<svg xmlns="http://www.w3.org/2000/svg" viewBox="0 0 400 300" width="400" height="300">
  <defs>
    <linearGradient id="bg14" x1="0%" y1="0%" x2="0%" y2="100%">
      <stop offset="0%" style="stop-color:#FFF3E0"/>
      <stop offset="100%" style="stop-color:#FFE0B2"/>
    </linearGradient>
    <radialGradient id="glow14" cx="60%" cy="20%" r="60%">
      <stop offset="0%" style="stop-color:white;stop-opacity:0.15"/>
      <stop offset="100%" style="stop-color:white;stop-opacity:0"/>
    </radialGradient>
  </defs>
  <rect width="400" height="300" rx="16" fill="url(#bg14)"/>
  <rect width="400" height="300" rx="16" fill="url(#glow14)"/>
  <!-- Sand -->
  <ellipse cx="200" cy="288" rx="200" ry="18" fill="#D4A574" opacity="0.25"/>
  <!-- Plants -->
  <path d="M60,285 Q55,255 62,235 Q58,245 55,260" stroke="#66BB6A" stroke-width="2" fill="none" opacity="0.4"/>
  <path d="M340,285 Q345,250 338,225 Q350,245 348,260" stroke="#43A047" stroke-width="2.5" fill="none" opacity="0.35"/>
  <!-- Bubbles -->
  <circle cx="320" cy="60" r="3" fill="white" opacity="0.15"/>
  <circle cx="335" cy="40" r="2" fill="white" opacity="0.1"/>
  <circle cx="310" cy="80" r="4" fill="white" opacity="0.12"/>
  <path d="M164,134 Q146,118.6 149.6,145 Q146,171.4 164,156" fill="#1976D2" opacity="0.7"/><path d="M192.8,123 L193.88000000000002,118.6 L194.96,123 L198.20000000000002,114.2 L199.28,123 L202.52,109.8 L203.6,123 L206.84000000000003,114.2 L207.92000000000002,123 L211.16000000000003,118.6 L212.24,123 " fill="#1976D2" opacity="0.6"/><ellipse cx="200" cy="145" rx="36" ry="22" fill="#1565C0"/>
    <ellipse cx="203" cy="140.6" rx="25.2" ry="11" fill="#0D47A1" opacity="0.25"/><circle cx="182" cy="158.2" r="2" fill="#FFD600" opacity="0.6"/><circle cx="187.4" cy="158.2" r="2" fill="#FFD600" opacity="0.6"/><circle cx="192.8" cy="158.2" r="2" fill="#FFD600" opacity="0.6"/>
  <circle cx="223.5" cy="140.6" r="5" fill="white"/>
  <circle cx="224.5" cy="140.6" r="3" fill="#1E293B"/>
  <circle cx="225" cy="139.6" r="1.1" fill="white"/><path d="M234,146 Q238,148 234,150" fill="none" stroke="#0D47A1" stroke-width="1.2" opacity="0.4"/>
</svg>