<svg xmlns="http://www.w3.org/2000/svg" viewBox="0 0 400 300" width="400" height="300">
  <defs>
    <linearGradient id="bg325" x1="0%" y1="0%" x2="0%" y2="100%">
      <stop offset="0%" style="stop-color:#E8F5E9"/>
      <stop offset="100%" style="stop-color:#C8E6C9"/>
    </linearGradient>
    <radialGradient id="glow325" cx="60%" cy="20%" r="60%">
      <stop offset="0%" style="stop-color:white;stop-opacity:0.15"/>
      <stop offset="100%" style="stop-color:white;stop-opacity:0"/>
    </radialGradient>
  </defs>
  <rect width="400" height="300" rx="16" fill="url(#bg325)"/>
  <rect width="400" height="300" rx="16" fill="url(#glow325)"/>
  <!-- Sand -->
  <ellipse cx="200" cy="288" rx="200" ry="18" fill="#D4A574" opacity="0.25"/>
  <!-- Plants -->
  <path d="M60,285 Q55,255 62,235 Q58,245 55,260" stroke="#66BB6A" stroke-width="2" fill="none" opacity="0.4"/>
  <path d="M340,285 Q345,250 338,225 Q350,245 348,260" stroke="#43A047" stroke-width="2.5" fill="none" opacity="0.35"/>
  <!-- Bubbles -->
  <circle cx="320" cy="60" r="3" fill="white" opacity="0.15"/>
  <circle cx="335" cy="40" r="2" fill="white" opacity="0.1"/>
  <circle cx="310" cy="80" r="4" fill="white" opacity="0.12"/>
  <path d="M165,145 L151,125.2 L159.75,145 L151,164.8 Z" fill="#8B5CF6" opacity="0.8"/><path d="M196.5,123 Q201.75,112 207,123" fill="#8B5CF6" opacity="0.6"/><ellipse cx="200" cy="145" rx="35" ry="22" fill="#3B82F6"/>
    <ellipse cx="203" cy="140.6" rx="24.5" ry="11" fill="#8B5CF6" opacity="0.25"/>
  <circle cx="222.5" cy="140.6" r="5" fill="white"/>
  <circle cx="223.5" cy="140.6" r="3" fill="#1E293B"/>
  <circle cx="224" cy="139.6" r="1.1" fill="white"/><path d="M233,146 Q237,148 233,150" fill="none" stroke="#8B5CF6" stroke-width="1.2" opacity="0.4"/>
</svg>