<svg xmlns="http://www.w3.org/2000/svg" viewBox="0 0 400 300" width="400" height="300">
  <defs>
    <linearGradient id="bg_14" x1="0%" y1="0%" x2="0%" y2="100%">
      <stop offset="0%" style="stop-color:#E0F2FE"/>
      <stop offset="100%" style="stop-color:#BAE6FD"/>
    </linearGradient>
    <linearGradient id="fish_14" x1="0%" y1="0%" x2="100%" y2="100%">
      <stop offset="0%" style="stop-color:#F59E0B"/>
      <stop offset="100%" style="stop-color:#D97706"/>
    </linearGradient>
    <radialGradient id="light_14" cx="50%" cy="0%" r="80%">
      <stop offset="0%" style="stop-color:white;stop-opacity:0.15"/>
      <stop offset="100%" style="stop-color:white;stop-opacity:0"/>
    </radialGradient>
  </defs>
  
  <!-- Background water -->
  <rect width="400" height="300" rx="16" fill="url(#bg_14)"/>
  <rect width="400" height="300" rx="16" fill="url(#light_14)"/>
  
  <!-- Sand/substrate -->
  <ellipse cx="200" cy="290" rx="210" ry="25" fill="#F5DEB3" opacity="0.4"/>
  
  <!-- Plants -->
  
  <path d="M81,285 Q73,250 76,230 Q86,240 81,285" fill="#86EFAC" opacity="0.5"/>
  <path d="M86,285 Q96,245 91,225 Q83,235 86,285" fill="#4ADE80" opacity="0.4"/>
  
  <path d="M181,285 Q173,240 176,215 Q186,230 181,285" fill="#86EFAC" opacity="0.5"/>
  <path d="M186,285 Q196,237 191,213 Q183,227 186,285" fill="#4ADE80" opacity="0.4"/>
  
  <path d="M281,285 Q273,230 276,200 Q286,220 281,285" fill="#86EFAC" opacity="0.5"/>
  <path d="M286,285 Q296,229 291,201 Q283,219 286,285" fill="#4ADE80" opacity="0.4"/>
  
  
  <!-- Bubbles -->
  <circle cx="261" cy="81" r="4" fill="white" opacity="0.15"/>
  <circle cx="286" cy="61" r="5" fill="white" opacity="0.2"/>
  <circle cx="311" cy="41" r="6" fill="white" opacity="0.25"/>
  <circle cx="336" cy="21" r="7" fill="white" opacity="0.30000000000000004"/>
  
  <!-- Fish body -->
  <ellipse cx="240" cy="150" rx="50.5" ry="28" fill="url(#fish_14)"/>
  
  <!-- Tail -->
  <path d="M189.5,150 L168.5,129 L168.5,171 Z" fill="#D97706"/>
  
  <!-- Dorsal fin -->
  <path d="M230,122 Q240,106 260,122" fill="#D97706" opacity="0.7"/>
  
  <!-- Ventral fin -->
  
  
  <!-- Pectoral fin -->
  <ellipse cx="256.8333333333333" cy="164" rx="10" ry="6" fill="#D97706" opacity="0.5" transform="rotate(-20 256.8333333333333 164)"/>
  
  <!-- Stripes or dots -->
  
  
  
  <!-- Eye -->
  <circle cx="204.5" cy="140.66666666666666" r="6" fill="white"/>
  <circle cx="205.5" cy="140.66666666666666" r="3.5" fill="#1E293B"/>
  <circle cx="206.5" cy="139.66666666666666" r="1.2" fill="white"/>
  
  <!-- Mouth -->
  <path d="M287.5,152 Q292.5,154 287.5,156" fill="none" stroke="#D97706" stroke-width="1.5" opacity="0.6"/>
</svg>