<svg xmlns="http://www.w3.org/2000/svg" viewBox="0 0 400 300" width="400" height="300">
  <defs>
    <linearGradient id="bg_24" x1="0%" y1="0%" x2="0%" y2="100%">
      <stop offset="0%" style="stop-color:#E0F2FE"/>
      <stop offset="100%" style="stop-color:#BAE6FD"/>
    </linearGradient>
    <linearGradient id="fish_24" x1="0%" y1="0%" x2="100%" y2="100%">
      <stop offset="0%" style="stop-color:#3B82F6"/>
      <stop offset="100%" style="stop-color:#1D4ED8"/>
    </linearGradient>
    <radialGradient id="light_24" cx="50%" cy="0%" r="80%">
      <stop offset="0%" style="stop-color:white;stop-opacity:0.15"/>
      <stop offset="100%" style="stop-color:white;stop-opacity:0"/>
    </radialGradient>
  </defs>
  
  <!-- Background water -->
  <rect width="400" height="300" rx="16" fill="url(#bg_24)"/>
  <rect width="400" height="300" rx="16" fill="url(#light_24)"/>
  
  <!-- Sand/substrate -->
  <ellipse cx="200" cy="290" rx="210" ry="25" fill="#F5DEB3" opacity="0.4"/>
  
  <!-- Plants -->
  
  <path d="M86,285 Q78,250 81,230 Q91,240 86,285" fill="#86EFAC" opacity="0.5"/>
  <path d="M91,285 Q101,245 96,225 Q88,235 91,285" fill="#4ADE80" opacity="0.4"/>
  
  <path d="M186,285 Q178,240 181,215 Q191,230 186,285" fill="#86EFAC" opacity="0.5"/>
  <path d="M191,285 Q201,237 196,213 Q188,227 191,285" fill="#4ADE80" opacity="0.4"/>
  
  <path d="M286,285 Q278,230 281,200 Q291,220 286,285" fill="#86EFAC" opacity="0.5"/>
  <path d="M291,285 Q301,229 296,201 Q288,219 291,285" fill="#4ADE80" opacity="0.4"/>
  
  <path d="M386,285 Q378,220 381,185 Q391,210 386,285" fill="#86EFAC" opacity="0.5"/>
  <path d="M391,285 Q401,221 396,189 Q388,211 391,285" fill="#4ADE80" opacity="0.4"/>
  
  
  <!-- Bubbles -->
  <circle cx="266" cy="91" r="5" fill="white" opacity="0.15"/>
  <circle cx="291" cy="71" r="6" fill="white" opacity="0.2"/>
  <circle cx="316" cy="51" r="7" fill="white" opacity="0.25"/>
  <circle cx="341" cy="31" r="8" fill="white" opacity="0.30000000000000004"/>
  <circle cx="366" cy="11" r="9" fill="white" opacity="0.35"/>
  
  <!-- Fish body -->
  <ellipse cx="240" cy="150" rx="53" ry="23" fill="url(#fish_24)"/>
  
  <!-- Tail -->
  <path d="M187,150 L156,119 L156,181 Z" fill="#1D4ED8"/>
  
  <!-- Dorsal fin -->
  <path d="M230,127 Q240,106 260,127" fill="#1D4ED8" opacity="0.7"/>
  
  <!-- Ventral fin -->
  <path d="M240,173 Q245,185 225,181" fill="#1D4ED8" opacity="0.6"/>
  
  <!-- Pectoral fin -->
  <ellipse cx="257.6666666666667" cy="161.5" rx="10" ry="6" fill="#1D4ED8" opacity="0.5" transform="rotate(-20 257.6666666666667 161.5)"/>
  
  <!-- Stripes or dots -->
  
  
  
  <!-- Eye -->
  <circle cx="202" cy="142.33333333333334" r="6" fill="white"/>
  <circle cx="203" cy="142.33333333333334" r="3.5" fill="#1E293B"/>
  <circle cx="204" cy="141.33333333333334" r="1.2" fill="white"/>
  
  <!-- Mouth -->
  <path d="M290,152 Q295,154 290,156" fill="none" stroke="#1D4ED8" stroke-width="1.5" opacity="0.6"/>
</svg>