<svg xmlns="http://www.w3.org/2000/svg" viewBox="0 0 400 300" width="400" height="300">
  <defs>
    <linearGradient id="bg245" x1="0%" y1="0%" x2="0%" y2="100%">
      <stop offset="0%" style="stop-color:#E0F7FA"/>
      <stop offset="100%" style="stop-color:#B2EBF2"/>
    </linearGradient>
    <radialGradient id="glow245" cx="60%" cy="20%" r="60%">
      <stop offset="0%" style="stop-color:white;stop-opacity:0.15"/>
      <stop offset="100%" style="stop-color:white;stop-opacity:0"/>
    </radialGradient>
  </defs>
  <rect width="400" height="300" rx="16" fill="url(#bg245)"/>
  <rect width="400" height="300" rx="16" fill="url(#glow245)"/>
  <!-- Sand -->
  <ellipse cx="200" cy="288" rx="200" ry="18" fill="#D4A574" opacity="0.25"/>
  <!-- Plants -->
  <path d="M60,285 Q55,255 62,235 Q58,245 55,260" stroke="#66BB6A" stroke-width="2" fill="none" opacity="0.4"/>
  <path d="M340,285 Q345,250 338,225 Q350,245 348,260" stroke="#43A047" stroke-width="2.5" fill="none" opacity="0.35"/>
  <!-- Bubbles -->
  <circle cx="320" cy="60" r="3" fill="white" opacity="0.15"/>
  <circle cx="335" cy="40" r="2" fill="white" opacity="0.1"/>
  <circle cx="310" cy="80" r="4" fill="white" opacity="0.12"/>
  
    <!-- Shrimp tail -->
    <path d="M179,148 Q169,155 164,150" fill="#BDBDBD" opacity="0.7"/>
    <path d="M179,148 Q169,141 164,143" fill="#BDBDBD" opacity="0.6"/>
    <!-- Shrimp body segments -->
    <ellipse cx="192" cy="145" rx="13" ry="12" fill="#BDBDBD"/>
    <ellipse cx="204" cy="143" rx="11.700000000000001" ry="10.8" fill="#BDBDBD"/>
    <ellipse cx="214.3" cy="140" rx="7.8" ry="9" fill="#9E9E9E"/>
    <!-- Head -->
    <ellipse cx="218.2" cy="139" rx="6.5" ry="7.800000000000001" fill="#9E9E9E"/>
    <!-- Rostrum -->
    <line x1="222.1" y1="137" x2="231" y2="133" stroke="#9E9E9E" stroke-width="1.5"/>
    <!-- Antennae -->
    <path d="M220.8,135 Q241,120 251,125" fill="none" stroke="#795548" stroke-width="0.8" opacity="0.6"/>
    <path d="M220.8,137 Q246,127 256,123" fill="none" stroke="#795548" stroke-width="0.8" opacity="0.6"/>
    <!-- Legs -->
    <line x1="192.2" y1="153.4" x2="190.2" y2="165" stroke="#795548" stroke-width="0.8" opacity="0.5"/><line x1="198.7" y1="153.4" x2="196.7" y2="165" stroke="#795548" stroke-width="0.8" opacity="0.5"/><line x1="205.2" y1="153.4" x2="203.2" y2="165" stroke="#795548" stroke-width="0.8" opacity="0.5"/><line x1="211.7" y1="153.4" x2="209.7" y2="165" stroke="#795548" stroke-width="0.8" opacity="0.5"/><line x1="218.2" y1="153.4" x2="216.2" y2="165" stroke="#795548" stroke-width="0.8" opacity="0.5"/>
    <!-- Eye -->
    <circle cx="219.5" cy="136" r="2.5" fill="#212121"/>
    <circle cx="219.76" cy="135.5" r="0.8" fill="white"/>
</svg>