<svg xmlns="http://www.w3.org/2000/svg" viewBox="0 0 400 300" width="400" height="300">
  <defs>
    <linearGradient id="bg8" x1="0%" y1="0%" x2="0%" y2="100%">
      <stop offset="0%" style="stop-color:#FFF3E0"/>
      <stop offset="100%" style="stop-color:#FFE0B2"/>
    </linearGradient>
    <radialGradient id="glow8" cx="60%" cy="20%" r="60%">
      <stop offset="0%" style="stop-color:white;stop-opacity:0.15"/>
      <stop offset="100%" style="stop-color:white;stop-opacity:0"/>
    </radialGradient>
  </defs>
  <rect width="400" height="300" rx="16" fill="url(#bg8)"/>
  <rect width="400" height="300" rx="16" fill="url(#glow8)"/>
  <!-- Sand -->
  <ellipse cx="200" cy="288" rx="200" ry="18" fill="#D4A574" opacity="0.25"/>
  <!-- Plants -->
  <path d="M60,285 Q55,255 62,235 Q58,245 55,260" stroke="#66BB6A" stroke-width="2" fill="none" opacity="0.4"/>
  <path d="M340,285 Q345,250 338,225 Q350,245 348,260" stroke="#43A047" stroke-width="2.5" fill="none" opacity="0.35"/>
  <!-- Bubbles -->
  <circle cx="320" cy="60" r="3" fill="white" opacity="0.15"/>
  <circle cx="335" cy="40" r="2" fill="white" opacity="0.1"/>
  <circle cx="310" cy="80" r="4" fill="white" opacity="0.12"/>
  <path d="M170,145 L159.5,114.2 L159.5,175.8 Z" fill="#F5F5F5" opacity="0.7"/><path d="M195.5,101 Q200,57 204.5,101" fill="#F5F5F5" opacity="0.6"/><path d="M200,87.8 Q221,145 200,202.2 Q179,145 200,87.8" fill="#E0E0E0"/>
    <path d="M200,110.68 Q210.5,145 200,162.16" fill="#BDBDBD" opacity="0.2"/><line x1="188" y1="114.2" x2="188" y2="175.8" stroke="#212121" stroke-width="2.5" opacity="0.4"/><line x1="197" y1="114.2" x2="197" y2="175.8" stroke="#212121" stroke-width="2.5" opacity="0.4"/><line x1="206" y1="114.2" x2="206" y2="175.8" stroke="#212121" stroke-width="2.5" opacity="0.4"/><line x1="215" y1="114.2" x2="215" y2="175.8" stroke="#212121" stroke-width="2.5" opacity="0.4"/><line x1="191" y1="109.8" x2="191" y2="180.2" stroke="#212121" stroke-width="3" opacity="0.3"/><line x1="201.5" y1="109.8" x2="201.5" y2="180.2" stroke="#212121" stroke-width="3" opacity="0.3"/><line x1="212" y1="109.8" x2="212" y2="180.2" stroke="#212121" stroke-width="3" opacity="0.3"/>
  <circle cx="217.5" cy="136.2" r="5" fill="white"/>
  <circle cx="218.5" cy="136.2" r="3" fill="#1E293B"/>
  <circle cx="219" cy="135.2" r="1.1" fill="white"/><path d="M228,146 Q232,148 228,150" fill="none" stroke="#BDBDBD" stroke-width="1.2" opacity="0.4"/>
</svg>