<svg xmlns="http://www.w3.org/2000/svg" viewBox="0 0 400 300" width="400" height="300">
  <defs>
    <linearGradient id="bg56" x1="0%" y1="0%" x2="0%" y2="100%">
      <stop offset="0%" style="stop-color:#FFF3E0"/>
      <stop offset="100%" style="stop-color:#FFE0B2"/>
    </linearGradient>
    <radialGradient id="glow56" cx="60%" cy="20%" r="60%">
      <stop offset="0%" style="stop-color:white;stop-opacity:0.15"/>
      <stop offset="100%" style="stop-color:white;stop-opacity:0"/>
    </radialGradient>
  </defs>
  <rect width="400" height="300" rx="16" fill="url(#bg56)"/>
  <rect width="400" height="300" rx="16" fill="url(#glow56)"/>
  <!-- Sand -->
  <ellipse cx="200" cy="288" rx="200" ry="18" fill="#D4A574" opacity="0.25"/>
  <!-- Plants -->
  <path d="M60,285 Q55,255 62,235 Q58,245 55,260" stroke="#66BB6A" stroke-width="2" fill="none" opacity="0.4"/>
  <path d="M340,285 Q345,250 338,225 Q350,245 348,260" stroke="#43A047" stroke-width="2.5" fill="none" opacity="0.35"/>
  <!-- Bubbles -->
  <circle cx="320" cy="60" r="3" fill="white" opacity="0.15"/>
  <circle cx="335" cy="40" r="2" fill="white" opacity="0.1"/>
  <circle cx="310" cy="80" r="4" fill="white" opacity="0.12"/>
  <path d="M172,139.6 L159.4,127 M172,150.4 L159.4,163" stroke="#FFC107" stroke-width="3" fill="none" stroke-linecap="round" opacity="0.7"/>
    <path d="M172,145 L165,145" stroke="#FFC107" stroke-width="2" fill="none" opacity="0.4"/><path d="M194.4,127 L195.24,123.4 L196.08,127 L198.60000000000002,119.8 L199.44000000000003,127 L201.96,116.2 L202.8,127 L205.32000000000002,119.8 L206.16000000000003,127 L208.68,123.4 L209.52,127 " fill="#FFC107" opacity="0.6"/><ellipse cx="200" cy="145" rx="28" ry="18" fill="#FFEB3B"/>
    <ellipse cx="203" cy="141.4" rx="19.599999999999998" ry="9" fill="#1976D2" opacity="0.25"/>
  <circle cx="218" cy="141.4" r="4" fill="white"/>
  <circle cx="219" cy="141.4" r="2.4" fill="#D32F2F"/>
  <circle cx="219.5" cy="140.6" r="0.88" fill="white"/><path d="M226,146 Q230,148 226,150" fill="none" stroke="#1976D2" stroke-width="1.2" opacity="0.4"/>
</svg>