<svg xmlns="http://www.w3.org/2000/svg" viewBox="0 0 400 300" width="400" height="300">
  <defs>
    <linearGradient id="bg69" x1="0%" y1="0%" x2="0%" y2="100%">
      <stop offset="0%" style="stop-color:#E3F2FD"/>
      <stop offset="100%" style="stop-color:#BBDEFB"/>
    </linearGradient>
    <radialGradient id="glow69" cx="60%" cy="20%" r="60%">
      <stop offset="0%" style="stop-color:white;stop-opacity:0.15"/>
      <stop offset="100%" style="stop-color:white;stop-opacity:0"/>
    </radialGradient>
  </defs>
  <rect width="400" height="300" rx="16" fill="url(#bg69)"/>
  <rect width="400" height="300" rx="16" fill="url(#glow69)"/>
  <!-- Sand -->
  <ellipse cx="200" cy="288" rx="200" ry="18" fill="#D4A574" opacity="0.25"/>
  <!-- Plants -->
  <path d="M60,285 Q55,255 62,235 Q58,245 55,260" stroke="#66BB6A" stroke-width="2" fill="none" opacity="0.4"/>
  <path d="M340,285 Q345,250 338,225 Q350,245 348,260" stroke="#43A047" stroke-width="2.5" fill="none" opacity="0.35"/>
  <!-- Bubbles -->
  <circle cx="320" cy="60" r="3" fill="white" opacity="0.15"/>
  <circle cx="335" cy="40" r="2" fill="white" opacity="0.1"/>
  <circle cx="310" cy="80" r="4" fill="white" opacity="0.12"/>
  <path d="M140,145 L119,133.8 L119,156.2 Z" fill="#FFA000" opacity="0.7"/><path d="M194,129 Q200,121 218,129" fill="#FFA000" opacity="0.5"/><ellipse cx="200" cy="145" rx="60" ry="16" fill="#FFB300"/>
    <ellipse cx="202" cy="142.6" rx="51" ry="9.6" fill="#FF8F00" opacity="0.3"/><ellipse cx="205" cy="141.8" rx="30" ry="6.4" fill="white" opacity="0.12"/><ellipse cx="195" cy="146.6" rx="18" ry="4" fill="white" opacity="0.08"/>
  <circle cx="247.5" cy="141.8" r="5" fill="white"/>
  <circle cx="248.5" cy="141.8" r="3" fill="#1E293B"/>
  <circle cx="249" cy="140.8" r="1.1" fill="white"/><path d="M258,147 Q266,153 270,151" fill="none" stroke="#E65100" stroke-width="1" opacity="0.5"/>
    <path d="M258,149 Q264,155 268,155" fill="none" stroke="#E65100" stroke-width="1" opacity="0.4"/>
</svg>