<svg xmlns="http://www.w3.org/2000/svg" viewBox="0 0 400 300" width="400" height="300">
  <defs>
    <linearGradient id="bg_69" x1="0%" y1="0%" x2="0%" y2="100%">
      <stop offset="0%" style="stop-color:#E0F2FE"/>
      <stop offset="100%" style="stop-color:#BAE6FD"/>
    </linearGradient>
    <linearGradient id="fish_69" x1="0%" y1="0%" x2="100%" y2="100%">
      <stop offset="0%" style="stop-color:#6366F1"/>
      <stop offset="100%" style="stop-color:#4F46E5"/>
    </linearGradient>
    <radialGradient id="light_69" cx="50%" cy="0%" r="80%">
      <stop offset="0%" style="stop-color:white;stop-opacity:0.15"/>
      <stop offset="100%" style="stop-color:white;stop-opacity:0"/>
    </radialGradient>
  </defs>
  
  <!-- Background water -->
  <rect width="400" height="300" rx="16" fill="url(#bg_69)"/>
  <rect width="400" height="300" rx="16" fill="url(#light_69)"/>
  
  <!-- Sand/substrate -->
  <ellipse cx="200" cy="290" rx="210" ry="25" fill="#F5DEB3" opacity="0.4"/>
  
  <!-- Plants -->
  
  <path d="M81,285 Q73,250 76,230 Q86,240 81,285" fill="#86EFAC" opacity="0.5"/>
  <path d="M86,285 Q96,245 91,225 Q83,235 86,285" fill="#4ADE80" opacity="0.4"/>
  
  <path d="M181,285 Q173,240 176,215 Q186,230 181,285" fill="#86EFAC" opacity="0.5"/>
  <path d="M186,285 Q196,237 191,213 Q183,227 186,285" fill="#4ADE80" opacity="0.4"/>
  
  <path d="M281,285 Q273,230 276,200 Q286,220 281,285" fill="#86EFAC" opacity="0.5"/>
  <path d="M286,285 Q296,229 291,201 Q283,219 286,285" fill="#4ADE80" opacity="0.4"/>
  
  <path d="M381,285 Q373,220 376,185 Q386,210 381,285" fill="#86EFAC" opacity="0.5"/>
  <path d="M386,285 Q396,221 391,189 Q383,211 386,285" fill="#4ADE80" opacity="0.4"/>
  
  
  <!-- Bubbles -->
  <circle cx="261" cy="91" r="4" fill="white" opacity="0.15"/>
  <circle cx="286" cy="71" r="5" fill="white" opacity="0.2"/>
  <circle cx="311" cy="51" r="6" fill="white" opacity="0.25"/>
  <circle cx="336" cy="31" r="7" fill="white" opacity="0.30000000000000004"/>
  <circle cx="361" cy="11" r="8" fill="white" opacity="0.35"/>
  
  <!-- Fish body -->
  <ellipse cx="240" cy="150" rx="50.5" ry="25.5" fill="url(#fish_69)"/>
  
  <!-- Tail -->
  <path d="M189.5,150 L158.5,119 L158.5,181 Z" fill="#4F46E5"/>
  
  <!-- Dorsal fin -->
  <path d="M230,124.5 Q240,108.5 260,124.5" fill="#4F46E5" opacity="0.7"/>
  
  <!-- Ventral fin -->
  
  
  <!-- Pectoral fin -->
  <ellipse cx="256.8333333333333" cy="162.75" rx="10" ry="6" fill="#4F46E5" opacity="0.5" transform="rotate(-20 256.8333333333333 162.75)"/>
  
  <!-- Stripes or dots -->
  
  
  
  <!-- Eye -->
  <circle cx="204.5" cy="141.5" r="6" fill="white"/>
  <circle cx="205.5" cy="141.5" r="3.5" fill="#1E293B"/>
  <circle cx="206.5" cy="140.5" r="1.2" fill="white"/>
  
  <!-- Mouth -->
  <path d="M287.5,152 Q292.5,154 287.5,156" fill="none" stroke="#4F46E5" stroke-width="1.5" opacity="0.6"/>
</svg>