<svg xmlns="http://www.w3.org/2000/svg" viewBox="0 0 400 300" width="400" height="300">
  <defs>
    <linearGradient id="bg247" x1="0%" y1="0%" x2="0%" y2="100%">
      <stop offset="0%" style="stop-color:#E8F5E9"/>
      <stop offset="100%" style="stop-color:#C8E6C9"/>
    </linearGradient>
    <radialGradient id="glow247" cx="60%" cy="20%" r="60%">
      <stop offset="0%" style="stop-color:white;stop-opacity:0.15"/>
      <stop offset="100%" style="stop-color:white;stop-opacity:0"/>
    </radialGradient>
  </defs>
  <rect width="400" height="300" rx="16" fill="url(#bg247)"/>
  <rect width="400" height="300" rx="16" fill="url(#glow247)"/>
  <!-- Sand -->
  <ellipse cx="200" cy="288" rx="200" ry="18" fill="#D4A574" opacity="0.25"/>
  <!-- Plants -->
  <path d="M60,285 Q55,255 62,235 Q58,245 55,260" stroke="#66BB6A" stroke-width="2" fill="none" opacity="0.4"/>
  <path d="M340,285 Q345,250 338,225 Q350,245 348,260" stroke="#43A047" stroke-width="2.5" fill="none" opacity="0.35"/>
  <!-- Bubbles -->
  <circle cx="320" cy="60" r="3" fill="white" opacity="0.15"/>
  <circle cx="335" cy="40" r="2" fill="white" opacity="0.1"/>
  <circle cx="310" cy="80" r="4" fill="white" opacity="0.12"/>
  
    <!-- Foot -->
    <ellipse cx="210" cy="160" rx="22" ry="8" fill="#FF8F00" opacity="0.6"/>
    <!-- Shell -->
    <path d="M195,155 Q185,125 200,120 Q215,125 205,155" fill="#FFB300"/>
    <path d="M197,150 Q190,130 200,125 Q210,130 203,150" fill="#3E2723" opacity="0.5"/>
    <!-- Shell bands -->
    <path d="M197,150 Q200,145 203,150" fill="none" stroke="#FF8F00" stroke-width="1.5" opacity="0.4"/><path d="M198,142 Q200,136 202,142" fill="none" stroke="#FF8F00" stroke-width="1.5" opacity="0.4"/><path d="M199,134 Q200,127 201,134" fill="none" stroke="#FF8F00" stroke-width="1.5" opacity="0.4"/>
    <!-- Tentacles -->
    <line x1="218" y1="155" x2="228" y2="145" stroke="#FF8F00" stroke-width="1.2" opacity="0.5"/>
    <line x1="220" y1="155" x2="232" y2="148" stroke="#FF8F00" stroke-width="1.2" opacity="0.5"/>
    <!-- Eye -->
    <circle cx="228" cy="144" r="1.5" fill="#212121"/>
</svg>