<svg xmlns="http://www.w3.org/2000/svg" viewBox="0 0 400 300" width="400" height="300">
  <defs>
    <linearGradient id="bg7" x1="0%" y1="0%" x2="0%" y2="100%">
      <stop offset="0%" style="stop-color:#E8F5E9"/>
      <stop offset="100%" style="stop-color:#C8E6C9"/>
    </linearGradient>
    <radialGradient id="glow7" cx="60%" cy="20%" r="60%">
      <stop offset="0%" style="stop-color:white;stop-opacity:0.15"/>
      <stop offset="100%" style="stop-color:white;stop-opacity:0"/>
    </radialGradient>
  </defs>
  <rect width="400" height="300" rx="16" fill="url(#bg7)"/>
  <rect width="400" height="300" rx="16" fill="url(#glow7)"/>
  <!-- Sand -->
  <ellipse cx="200" cy="288" rx="200" ry="18" fill="#D4A574" opacity="0.25"/>
  <!-- Plants -->
  <path d="M60,285 Q55,255 62,235 Q58,245 55,260" stroke="#66BB6A" stroke-width="2" fill="none" opacity="0.4"/>
  <path d="M340,285 Q345,250 338,225 Q350,245 348,260" stroke="#43A047" stroke-width="2.5" fill="none" opacity="0.35"/>
  <!-- Bubbles -->
  <circle cx="320" cy="60" r="3" fill="white" opacity="0.15"/>
  <circle cx="335" cy="40" r="2" fill="white" opacity="0.1"/>
  <circle cx="310" cy="80" r="4" fill="white" opacity="0.12"/>
  
    <!-- Body -->
    <ellipse cx="200" cy="145" rx="44" ry="18" fill="#FFECB3"/>
    <!-- Head -->
    <ellipse cx="238" cy="143" rx="22" ry="18" fill="#FFECB3"/>
    <!-- Gills -->
    
    <path d="M252,127 Q265,114 270,109" fill="none" stroke="#FF8A80" stroke-width="2.5" stroke-linecap="round" opacity="0.7"/>
    <path d="M252,127 Q262,118 266,118" fill="none" stroke="#FF8A80" stroke-width="2" stroke-linecap="round" opacity="0.5"/>
    
    <path d="M252,131 Q265,120 270,117" fill="none" stroke="#FF8A80" stroke-width="2.5" stroke-linecap="round" opacity="0.7"/>
    <path d="M252,131 Q262,123 266,125" fill="none" stroke="#FF8A80" stroke-width="2" stroke-linecap="round" opacity="0.5"/>
    
    <path d="M252,135 Q265,126 270,125" fill="none" stroke="#FF8A80" stroke-width="2.5" stroke-linecap="round" opacity="0.7"/>
    <path d="M252,135 Q262,128 266,132" fill="none" stroke="#FF8A80" stroke-width="2" stroke-linecap="round" opacity="0.5"/>
    
    
    <path d="M252,151 Q265,160 270,161" fill="none" stroke="#FF8A80" stroke-width="2.5" stroke-linecap="round" opacity="0.7"/>
    
    <path d="M252,155 Q265,166 270,169" fill="none" stroke="#FF8A80" stroke-width="2.5" stroke-linecap="round" opacity="0.7"/>
    
    <path d="M252,159 Q265,172 270,177" fill="none" stroke="#FF8A80" stroke-width="2.5" stroke-linecap="round" opacity="0.7"/>
    
    <!-- Tail -->
    <path d="M156,145 Q145,140 135,145 Q145,150 156,145" fill="#FFF8E1" opacity="0.6"/>
    <path d="M150,137 L130,143" fill="none" stroke="#FFF8E1" stroke-width="6" stroke-linecap="round" opacity="0.4"/>
    <!-- Legs -->
    <path d="M220,161 L224,177 L218,175 M224,177 L228,175" stroke="#FFECB3" stroke-width="3" fill="none" stroke-linecap="round"/>
    <path d="M185,161 L189,177 L183,175 M189,177 L193,175" stroke="#FFECB3" stroke-width="3" fill="none" stroke-linecap="round"/>
    <!-- Smile -->
    <path d="M248,149 Q252,153 256,149" fill="none" stroke="#FF8A80" stroke-width="1.5" opacity="0.5"/>
    <!-- Eyes -->
    <circle cx="244" cy="137" r="5" fill="#212121"/>
    <circle cx="245" cy="136" r="2" fill="white"/>
    <circle cx="254" cy="137" r="5" fill="#212121"/>
    <circle cx="255" cy="136" r="2" fill="white"/>
</svg>