<svg xmlns="http://www.w3.org/2000/svg" viewBox="0 0 400 300" width="400" height="300">
  <defs>
    <linearGradient id="bg_76" x1="0%" y1="0%" x2="0%" y2="100%">
      <stop offset="0%" style="stop-color:#E0F2FE"/>
      <stop offset="100%" style="stop-color:#BAE6FD"/>
    </linearGradient>
    <linearGradient id="fish_76" x1="0%" y1="0%" x2="100%" y2="100%">
      <stop offset="0%" style="stop-color:#EC4899"/>
      <stop offset="100%" style="stop-color:#DB2777"/>
    </linearGradient>
    <radialGradient id="light_76" cx="50%" cy="0%" r="80%">
      <stop offset="0%" style="stop-color:white;stop-opacity:0.15"/>
      <stop offset="100%" style="stop-color:white;stop-opacity:0"/>
    </radialGradient>
  </defs>
  
  <!-- Background water -->
  <rect width="400" height="300" rx="16" fill="url(#bg_76)"/>
  <rect width="400" height="300" rx="16" fill="url(#light_76)"/>
  
  <!-- Sand/substrate -->
  <ellipse cx="200" cy="290" rx="210" ry="25" fill="#F5DEB3" opacity="0.4"/>
  
  <!-- Plants -->
  
  <path d="M68,285 Q60,250 63,230 Q73,240 68,285" fill="#86EFAC" opacity="0.5"/>
  <path d="M73,285 Q83,245 78,225 Q70,235 73,285" fill="#4ADE80" opacity="0.4"/>
  
  <path d="M168,285 Q160,240 163,215 Q173,230 168,285" fill="#86EFAC" opacity="0.5"/>
  <path d="M173,285 Q183,237 178,213 Q170,227 173,285" fill="#4ADE80" opacity="0.4"/>
  
  <path d="M268,285 Q260,230 263,200 Q273,220 268,285" fill="#86EFAC" opacity="0.5"/>
  <path d="M273,285 Q283,229 278,201 Q270,219 273,285" fill="#4ADE80" opacity="0.4"/>
  
  <path d="M368,285 Q360,220 363,185 Q373,210 368,285" fill="#86EFAC" opacity="0.5"/>
  <path d="M373,285 Q383,221 378,189 Q370,211 373,285" fill="#4ADE80" opacity="0.4"/>
  
  
  <!-- Bubbles -->
  <circle cx="268" cy="88" r="3" fill="white" opacity="0.15"/>
  <circle cx="293" cy="68" r="4" fill="white" opacity="0.2"/>
  <circle cx="318" cy="48" r="5" fill="white" opacity="0.25"/>
  <circle cx="343" cy="28" r="6" fill="white" opacity="0.30000000000000004"/>
  <circle cx="368" cy="8" r="7" fill="white" opacity="0.35"/>
  
  <!-- Fish body -->
  <ellipse cx="240" cy="150" rx="44" ry="26.5" fill="url(#fish_76)"/>
  
  <!-- Tail -->
  <path d="M196,150 L168,122 L168,178 Z" fill="#DB2777"/>
  
  <!-- Dorsal fin -->
  <path d="M230,123.5 Q240,100.5 260,123.5" fill="#DB2777" opacity="0.7"/>
  
  <!-- Ventral fin -->
  <path d="M240,176.5 Q245,188.5 225,184.5" fill="#DB2777" opacity="0.6"/>
  
  <!-- Pectoral fin -->
  <ellipse cx="254.66666666666666" cy="163.25" rx="10" ry="6" fill="#DB2777" opacity="0.5" transform="rotate(-20 254.66666666666666 163.25)"/>
  
  <!-- Stripes or dots -->
  
  
  
  <!-- Eye -->
  <circle cx="211" cy="141.16666666666666" r="6" fill="white"/>
  <circle cx="212" cy="141.16666666666666" r="3.5" fill="#1E293B"/>
  <circle cx="213" cy="140.16666666666666" r="1.2" fill="white"/>
  
  <!-- Mouth -->
  <path d="M281,152 Q286,154 281,156" fill="none" stroke="#DB2777" stroke-width="1.5" opacity="0.6"/>
</svg>