<svg xmlns="http://www.w3.org/2000/svg" viewBox="0 0 400 300" width="400" height="300">
  <defs>
    <linearGradient id="bg76" x1="0%" y1="0%" x2="0%" y2="100%">
      <stop offset="0%" style="stop-color:#F3E5F5"/>
      <stop offset="100%" style="stop-color:#E1BEE7"/>
    </linearGradient>
    <radialGradient id="glow76" cx="60%" cy="20%" r="60%">
      <stop offset="0%" style="stop-color:white;stop-opacity:0.15"/>
      <stop offset="100%" style="stop-color:white;stop-opacity:0"/>
    </radialGradient>
  </defs>
  <rect width="400" height="300" rx="16" fill="url(#bg76)"/>
  <rect width="400" height="300" rx="16" fill="url(#glow76)"/>
  <!-- Sand -->
  <ellipse cx="200" cy="288" rx="200" ry="18" fill="#D4A574" opacity="0.25"/>
  <!-- Plants -->
  <path d="M60,285 Q55,255 62,235 Q58,245 55,260" stroke="#66BB6A" stroke-width="2" fill="none" opacity="0.4"/>
  <path d="M340,285 Q345,250 338,225 Q350,245 348,260" stroke="#43A047" stroke-width="2.5" fill="none" opacity="0.35"/>
  <!-- Bubbles -->
  <circle cx="320" cy="60" r="3" fill="white" opacity="0.15"/>
  <circle cx="335" cy="40" r="2" fill="white" opacity="0.1"/>
  <circle cx="310" cy="80" r="4" fill="white" opacity="0.12"/>
  
    <!-- Shrimp tail -->
    <path d="M175,148 Q165,155 160,150" fill="#8D6E63" opacity="0.7"/>
    <path d="M175,148 Q165,141 160,143" fill="#8D6E63" opacity="0.6"/>
    <!-- Shrimp body segments -->
    <ellipse cx="192" cy="145" rx="15" ry="14" fill="#8D6E63"/>
    <ellipse cx="204" cy="143" rx="13.5" ry="12.6" fill="#8D6E63"/>
    <ellipse cx="216.5" cy="140" rx="9" ry="10.5" fill="#6D4C41"/>
    <!-- Head -->
    <ellipse cx="221" cy="139" rx="7.5" ry="9.1" fill="#6D4C41"/>
    <!-- Rostrum -->
    <line x1="225.5" y1="137" x2="235" y2="133" stroke="#6D4C41" stroke-width="1.5"/>
    <!-- Antennae -->
    <path d="M224,135 Q245,120 255,125" fill="none" stroke="#FFECB3" stroke-width="0.8" opacity="0.6"/>
    <path d="M224,137 Q250,127 260,123" fill="none" stroke="#FFECB3" stroke-width="0.8" opacity="0.6"/>
    <!-- Legs -->
    <line x1="191" y1="154.8" x2="189" y2="167" stroke="#FFECB3" stroke-width="0.8" opacity="0.5"/><line x1="198.5" y1="154.8" x2="196.5" y2="167" stroke="#FFECB3" stroke-width="0.8" opacity="0.5"/><line x1="206" y1="154.8" x2="204" y2="167" stroke="#FFECB3" stroke-width="0.8" opacity="0.5"/><line x1="213.5" y1="154.8" x2="211.5" y2="167" stroke="#FFECB3" stroke-width="0.8" opacity="0.5"/><line x1="221" y1="154.8" x2="219" y2="167" stroke="#FFECB3" stroke-width="0.8" opacity="0.5"/>
    <!-- Eye -->
    <circle cx="222.5" cy="136" r="2.5" fill="#212121"/>
    <circle cx="222.8" cy="135.5" r="0.8" fill="white"/>
</svg>