<svg xmlns="http://www.w3.org/2000/svg" viewBox="0 0 400 300" width="400" height="300">
  <defs>
    <linearGradient id="bg0" x1="0%" y1="0%" x2="0%" y2="100%">
      <stop offset="0%" style="stop-color:#E0F2FE"/>
      <stop offset="100%" style="stop-color:#BAE6FD"/>
    </linearGradient>
    <radialGradient id="glow0" cx="60%" cy="20%" r="60%">
      <stop offset="0%" style="stop-color:white;stop-opacity:0.15"/>
      <stop offset="100%" style="stop-color:white;stop-opacity:0"/>
    </radialGradient>
  </defs>
  <rect width="400" height="300" rx="16" fill="url(#bg0)"/>
  <rect width="400" height="300" rx="16" fill="url(#glow0)"/>
  <!-- Sand -->
  <ellipse cx="200" cy="288" rx="200" ry="18" fill="#D4A574" opacity="0.25"/>
  <!-- Plants -->
  <path d="M60,285 Q55,255 62,235 Q58,245 55,260" stroke="#66BB6A" stroke-width="2" fill="none" opacity="0.4"/>
  <path d="M340,285 Q345,250 338,225 Q350,245 348,260" stroke="#43A047" stroke-width="2.5" fill="none" opacity="0.35"/>
  <!-- Bubbles -->
  <circle cx="320" cy="60" r="3" fill="white" opacity="0.15"/>
  <circle cx="335" cy="40" r="2" fill="white" opacity="0.1"/>
  <circle cx="310" cy="80" r="4" fill="white" opacity="0.12"/>
  <path d="M162,131.8 Q131.6,112 139.2,145 Q131.6,178 162,158.2" fill="#7B1FA2" opacity="0.6"/>
    <path d="M162,138.4 Q143,123 146.8,145 Q143,167 162,151.6" fill="#C62828" opacity="0.3"/><path d="M188.6,123 Q196.2,105.4 203.8,107.6 Q211.4,112 211.4,123" fill="#7B1FA2" opacity="0.5"/><ellipse cx="200" cy="145" rx="38" ry="22" fill="#C62828"/>
    <ellipse cx="203" cy="140.6" rx="26.599999999999998" ry="11" fill="#4A148C" opacity="0.25"/><ellipse cx="205" cy="140.6" rx="19" ry="8.8" fill="white" opacity="0.12"/><ellipse cx="195" cy="147.2" rx="11.4" ry="5.5" fill="white" opacity="0.08"/>
  <circle cx="225.5" cy="140.6" r="5" fill="white"/>
  <circle cx="226.5" cy="140.6" r="3" fill="#1E293B"/>
  <circle cx="227" cy="139.6" r="1.1" fill="white"/><path d="M236,146 Q240,148 236,150" fill="none" stroke="#4A148C" stroke-width="1.2" opacity="0.4"/>
</svg>