<svg xmlns="http://www.w3.org/2000/svg" viewBox="0 0 400 300" width="400" height="300">
  <defs>
    <linearGradient id="bg_72" x1="0%" y1="0%" x2="0%" y2="100%">
      <stop offset="0%" style="stop-color:#E0F2FE"/>
      <stop offset="100%" style="stop-color:#BAE6FD"/>
    </linearGradient>
    <linearGradient id="fish_72" x1="0%" y1="0%" x2="100%" y2="100%">
      <stop offset="0%" style="stop-color:#3B82F6"/>
      <stop offset="100%" style="stop-color:#1D4ED8"/>
    </linearGradient>
    <radialGradient id="light_72" cx="50%" cy="0%" r="80%">
      <stop offset="0%" style="stop-color:white;stop-opacity:0.15"/>
      <stop offset="100%" style="stop-color:white;stop-opacity:0"/>
    </radialGradient>
  </defs>
  
  <!-- Background water -->
  <rect width="400" height="300" rx="16" fill="url(#bg_72)"/>
  <rect width="400" height="300" rx="16" fill="url(#light_72)"/>
  
  <!-- Sand/substrate -->
  <ellipse cx="200" cy="290" rx="210" ry="25" fill="#F5DEB3" opacity="0.4"/>
  
  <!-- Plants -->
  
  <path d="M71,285 Q63,250 66,230 Q76,240 71,285" fill="#86EFAC" opacity="0.5"/>
  <path d="M76,285 Q86,245 81,225 Q73,235 76,285" fill="#4ADE80" opacity="0.4"/>
  
  <path d="M171,285 Q163,240 166,215 Q176,230 171,285" fill="#86EFAC" opacity="0.5"/>
  <path d="M176,285 Q186,237 181,213 Q173,227 176,285" fill="#4ADE80" opacity="0.4"/>
  
  
  <!-- Bubbles -->
  <circle cx="261" cy="86" r="6" fill="white" opacity="0.15"/>
  <circle cx="286" cy="66" r="7" fill="white" opacity="0.2"/>
  <circle cx="311" cy="46" r="8" fill="white" opacity="0.25"/>
  
  <!-- Fish body -->
  <ellipse cx="240" cy="150" rx="45.5" ry="30.5" fill="url(#fish_72)"/>
  
  <!-- Tail -->
  <path d="M194.5,150 L168.5,124 L168.5,176 Z" fill="#1D4ED8"/>
  
  <!-- Dorsal fin -->
  
  
  <!-- Ventral fin -->
  
  
  <!-- Pectoral fin -->
  <ellipse cx="255.16666666666666" cy="165.25" rx="10" ry="6" fill="#1D4ED8" opacity="0.5" transform="rotate(-20 255.16666666666666 165.25)"/>
  
  <!-- Stripes or dots -->
  <line x1="209.66666666666666" y1="124.5" x2="209.66666666666666" y2="175.5" stroke="#60A5FA" stroke-width="3" opacity="0.4"/><line x1="240" y1="124.5" x2="240" y2="175.5" stroke="#60A5FA" stroke-width="3" opacity="0.4"/><line x1="270.3333333333333" y1="124.5" x2="270.3333333333333" y2="175.5" stroke="#60A5FA" stroke-width="3" opacity="0.4"/>
  
  
  <!-- Eye -->
  <circle cx="209.5" cy="139.83333333333334" r="6" fill="white"/>
  <circle cx="210.5" cy="139.83333333333334" r="3.5" fill="#1E293B"/>
  <circle cx="211.5" cy="138.83333333333334" r="1.2" fill="white"/>
  
  <!-- Mouth -->
  <path d="M282.5,152 Q287.5,154 282.5,156" fill="none" stroke="#1D4ED8" stroke-width="1.5" opacity="0.6"/>
</svg>