<svg xmlns="http://www.w3.org/2000/svg" viewBox="0 0 400 300" width="400" height="300">
  <defs>
    <linearGradient id="bg72" x1="0%" y1="0%" x2="0%" y2="100%">
      <stop offset="0%" style="stop-color:#E0F2FE"/>
      <stop offset="100%" style="stop-color:#BAE6FD"/>
    </linearGradient>
    <radialGradient id="glow72" cx="60%" cy="20%" r="60%">
      <stop offset="0%" style="stop-color:white;stop-opacity:0.15"/>
      <stop offset="100%" style="stop-color:white;stop-opacity:0"/>
    </radialGradient>
  </defs>
  <rect width="400" height="300" rx="16" fill="url(#bg72)"/>
  <rect width="400" height="300" rx="16" fill="url(#glow72)"/>
  <!-- Sand -->
  <ellipse cx="200" cy="288" rx="200" ry="18" fill="#D4A574" opacity="0.25"/>
  <!-- Plants -->
  <path d="M60,285 Q55,255 62,235 Q58,245 55,260" stroke="#66BB6A" stroke-width="2" fill="none" opacity="0.4"/>
  <path d="M340,285 Q345,250 338,225 Q350,245 348,260" stroke="#43A047" stroke-width="2.5" fill="none" opacity="0.35"/>
  <!-- Bubbles -->
  <circle cx="320" cy="60" r="3" fill="white" opacity="0.15"/>
  <circle cx="335" cy="40" r="2" fill="white" opacity="0.1"/>
  <circle cx="310" cy="80" r="4" fill="white" opacity="0.12"/>
  <ellipse cx="140" cy="145" rx="12.5" ry="9.799999999999999" fill="#90A4AE" opacity="0.7"/><path d="M185,131 L187,126.1 L188,131" fill="#90A4AE" opacity="0.5"/><path d="M191,131 L193,126.1 L194,131" fill="#90A4AE" opacity="0.5"/><path d="M197,131 L199,126.1 L200,131" fill="#90A4AE" opacity="0.5"/><path d="M203,131 L205,126.1 L206,131" fill="#90A4AE" opacity="0.5"/><path d="M209,131 L211,126.1 L212,131" fill="#90A4AE" opacity="0.5"/><path d="M215,131 L217,126.1 L218,131" fill="#90A4AE" opacity="0.5"/><ellipse cx="200" cy="145" rx="50" ry="14" fill="#78909C"/>
    <ellipse cx="202" cy="142.9" rx="42.5" ry="8.4" fill="#546E7A" opacity="0.3"/><circle cx="175" cy="140.8" r="2.5" fill="#B0BEC5" opacity="0.35"/><circle cx="192.5" cy="140.8" r="2.5" fill="#B0BEC5" opacity="0.35"/><circle cx="210" cy="140.8" r="2.5" fill="#B0BEC5" opacity="0.35"/><circle cx="227.5" cy="140.8" r="2.5" fill="#B0BEC5" opacity="0.35"/><circle cx="175" cy="147.8" r="2.5" fill="#B0BEC5" opacity="0.35"/><circle cx="192.5" cy="147.8" r="2.5" fill="#B0BEC5" opacity="0.35"/><circle cx="210" cy="147.8" r="2.5" fill="#B0BEC5" opacity="0.35"/><circle cx="227.5" cy="147.8" r="2.5" fill="#B0BEC5" opacity="0.35"/>
  <circle cx="240" cy="142.2" r="4" fill="white"/>
  <circle cx="241" cy="142.2" r="2.4" fill="#1E293B"/>
  <circle cx="241.5" cy="141.39999999999998" r="0.88" fill="white"/><path d="M248,146 Q252,148 248,150" fill="none" stroke="#546E7A" stroke-width="1.2" opacity="0.4"/>
</svg>