<svg xmlns="http://www.w3.org/2000/svg" viewBox="0 0 400 300" width="400" height="300">
  <defs>
    <linearGradient id="bg27" x1="0%" y1="0%" x2="0%" y2="100%">
      <stop offset="0%" style="stop-color:#E3F2FD"/>
      <stop offset="100%" style="stop-color:#BBDEFB"/>
    </linearGradient>
    <radialGradient id="glow27" cx="60%" cy="20%" r="60%">
      <stop offset="0%" style="stop-color:white;stop-opacity:0.15"/>
      <stop offset="100%" style="stop-color:white;stop-opacity:0"/>
    </radialGradient>
  </defs>
  <rect width="400" height="300" rx="16" fill="url(#bg27)"/>
  <rect width="400" height="300" rx="16" fill="url(#glow27)"/>
  <!-- Sand -->
  <ellipse cx="200" cy="288" rx="200" ry="18" fill="#D4A574" opacity="0.25"/>
  <!-- Plants -->
  <path d="M60,285 Q55,255 62,235 Q58,245 55,260" stroke="#66BB6A" stroke-width="2" fill="none" opacity="0.4"/>
  <path d="M340,285 Q345,250 338,225 Q350,245 348,260" stroke="#43A047" stroke-width="2.5" fill="none" opacity="0.35"/>
  <!-- Bubbles -->
  <circle cx="320" cy="60" r="3" fill="white" opacity="0.15"/>
  <circle cx="335" cy="40" r="2" fill="white" opacity="0.1"/>
  <circle cx="310" cy="80" r="4" fill="white" opacity="0.12"/>
  <path d="M172,145 L160.8,125.2 L167.8,145 L160.8,164.8 Z" fill="#616161" opacity="0.8"/><path d="M195.8,123 Q200,101 204.2,123" fill="#616161" opacity="0.6"/><path d="M200,123 Q228,145 200,167 Q172,145 200,123" fill="#424242"/>
    <path d="M200,131.8 Q214,145 200,151.6" fill="#212121" opacity="0.2"/>
  <circle cx="215.5" cy="140.6" r="5" fill="white"/>
  <circle cx="216.5" cy="140.6" r="3" fill="#1E293B"/>
  <circle cx="217" cy="139.6" r="1.1" fill="white"/><path d="M226,146 Q230,148 226,150" fill="none" stroke="#212121" stroke-width="1.2" opacity="0.4"/>
</svg>