<svg xmlns="http://www.w3.org/2000/svg" viewBox="0 0 400 300" width="400" height="300">
  <defs>
    <linearGradient id="bg47" x1="0%" y1="0%" x2="0%" y2="100%">
      <stop offset="0%" style="stop-color:#E0F7FA"/>
      <stop offset="100%" style="stop-color:#B2EBF2"/>
    </linearGradient>
    <radialGradient id="glow47" cx="60%" cy="20%" r="60%">
      <stop offset="0%" style="stop-color:white;stop-opacity:0.15"/>
      <stop offset="100%" style="stop-color:white;stop-opacity:0"/>
    </radialGradient>
  </defs>
  <rect width="400" height="300" rx="16" fill="url(#bg47)"/>
  <rect width="400" height="300" rx="16" fill="url(#glow47)"/>
  <!-- Sand -->
  <ellipse cx="200" cy="288" rx="200" ry="18" fill="#D4A574" opacity="0.25"/>
  <!-- Plants -->
  <path d="M60,285 Q55,255 62,235 Q58,245 55,260" stroke="#66BB6A" stroke-width="2" fill="none" opacity="0.4"/>
  <path d="M340,285 Q345,250 338,225 Q350,245 348,260" stroke="#43A047" stroke-width="2.5" fill="none" opacity="0.35"/>
  <!-- Bubbles -->
  <circle cx="320" cy="60" r="3" fill="white" opacity="0.15"/>
  <circle cx="335" cy="40" r="2" fill="white" opacity="0.1"/>
  <circle cx="310" cy="80" r="4" fill="white" opacity="0.12"/>
  <path d="M156,118.4 Q129.6,99.4 134,126 Q142.8,145 134,164 Q129.6,190.6 156,171.6" fill="#1976D2" opacity="0.7"/><path d="M178,107 Q200,88 213.2,107" fill="#1976D2" opacity="0.5"/><circle cx="200" cy="145" r="44" fill="#1565C0"/>
    <circle cx="203" cy="138.4" r="30.799999999999997" fill="#0D47A1" opacity="0.2"/>
  <circle cx="231.5" cy="137.4" r="5" fill="white"/>
  <circle cx="232.5" cy="137.4" r="3" fill="#1E293B"/>
  <circle cx="233" cy="136.4" r="1.1" fill="white"/><path d="M242,146 Q246,148 242,150" fill="none" stroke="#0D47A1" stroke-width="1.2" opacity="0.4"/>
</svg>