<svg xmlns="http://www.w3.org/2000/svg" viewBox="0 0 400 300" width="400" height="300">
  <defs>
    <linearGradient id="bg_47" x1="0%" y1="0%" x2="0%" y2="100%">
      <stop offset="0%" style="stop-color:#E0F2FE"/>
      <stop offset="100%" style="stop-color:#BAE6FD"/>
    </linearGradient>
    <linearGradient id="fish_47" x1="0%" y1="0%" x2="100%" y2="100%">
      <stop offset="0%" style="stop-color:#D946EF"/>
      <stop offset="100%" style="stop-color:#C026D3"/>
    </linearGradient>
    <radialGradient id="light_47" cx="50%" cy="0%" r="80%">
      <stop offset="0%" style="stop-color:white;stop-opacity:0.15"/>
      <stop offset="100%" style="stop-color:white;stop-opacity:0"/>
    </radialGradient>
  </defs>
  
  <!-- Background water -->
  <rect width="400" height="300" rx="16" fill="url(#bg_47)"/>
  <rect width="400" height="300" rx="16" fill="url(#light_47)"/>
  
  <!-- Sand/substrate -->
  <ellipse cx="200" cy="290" rx="210" ry="25" fill="#F5DEB3" opacity="0.4"/>
  
  <!-- Plants -->
  
  <path d="M93,285 Q85,250 88,230 Q98,240 93,285" fill="#86EFAC" opacity="0.5"/>
  <path d="M98,285 Q108,245 103,225 Q95,235 98,285" fill="#4ADE80" opacity="0.4"/>
  
  <path d="M193,285 Q185,240 188,215 Q198,230 193,285" fill="#86EFAC" opacity="0.5"/>
  <path d="M198,285 Q208,237 203,213 Q195,227 198,285" fill="#4ADE80" opacity="0.4"/>
  
  <path d="M293,285 Q285,230 288,200 Q298,220 293,285" fill="#86EFAC" opacity="0.5"/>
  <path d="M298,285 Q308,229 303,201 Q295,219 298,285" fill="#4ADE80" opacity="0.4"/>
  
  <path d="M393,285 Q385,220 388,185 Q398,210 393,285" fill="#86EFAC" opacity="0.5"/>
  <path d="M398,285 Q408,221 403,189 Q395,211 398,285" fill="#4ADE80" opacity="0.4"/>
  
  
  <!-- Bubbles -->
  <circle cx="263" cy="88" r="4" fill="white" opacity="0.15"/>
  <circle cx="288" cy="68" r="5" fill="white" opacity="0.2"/>
  <circle cx="313" cy="48" r="6" fill="white" opacity="0.25"/>
  <circle cx="338" cy="28" r="7" fill="white" opacity="0.30000000000000004"/>
  <circle cx="363" cy="8" r="8" fill="white" opacity="0.35"/>
  
  <!-- Fish body -->
  <ellipse cx="240" cy="150" rx="56.5" ry="31.5" fill="url(#fish_47)"/>
  
  <!-- Tail -->
  <path d="M183.5,150 L155.5,122 L155.5,178 Z" fill="#C026D3"/>
  
  <!-- Dorsal fin -->
  <path d="M230,118.5 Q240,90.5 260,118.5" fill="#C026D3" opacity="0.7"/>
  
  <!-- Ventral fin -->
  
  
  <!-- Pectoral fin -->
  <ellipse cx="258.8333333333333" cy="165.75" rx="10" ry="6" fill="#C026D3" opacity="0.5" transform="rotate(-20 258.8333333333333 165.75)"/>
  
  <!-- Stripes or dots -->
  
  
  
  <!-- Eye -->
  <circle cx="198.5" cy="139.5" r="6" fill="white"/>
  <circle cx="199.5" cy="139.5" r="3.5" fill="#1E293B"/>
  <circle cx="200.5" cy="138.5" r="1.2" fill="white"/>
  
  <!-- Mouth -->
  <path d="M293.5,152 Q298.5,154 293.5,156" fill="none" stroke="#C026D3" stroke-width="1.5" opacity="0.6"/>
</svg>