<svg xmlns="http://www.w3.org/2000/svg" viewBox="0 0 400 300" width="400" height="300">
  <defs>
    <linearGradient id="bg_55" x1="0%" y1="0%" x2="0%" y2="100%">
      <stop offset="0%" style="stop-color:#E0F2FE"/>
      <stop offset="100%" style="stop-color:#BAE6FD"/>
    </linearGradient>
    <linearGradient id="fish_55" x1="0%" y1="0%" x2="100%" y2="100%">
      <stop offset="0%" style="stop-color:#F97316"/>
      <stop offset="100%" style="stop-color:#EA580C"/>
    </linearGradient>
    <radialGradient id="light_55" cx="50%" cy="0%" r="80%">
      <stop offset="0%" style="stop-color:white;stop-opacity:0.15"/>
      <stop offset="100%" style="stop-color:white;stop-opacity:0"/>
    </radialGradient>
  </defs>
  
  <!-- Background water -->
  <rect width="400" height="300" rx="16" fill="url(#bg_55)"/>
  <rect width="400" height="300" rx="16" fill="url(#light_55)"/>
  
  <!-- Sand/substrate -->
  <ellipse cx="200" cy="290" rx="210" ry="25" fill="#F5DEB3" opacity="0.4"/>
  
  <!-- Plants -->
  
  <path d="M73,285 Q65,250 68,230 Q78,240 73,285" fill="#86EFAC" opacity="0.5"/>
  <path d="M78,285 Q88,245 83,225 Q75,235 78,285" fill="#4ADE80" opacity="0.4"/>
  
  <path d="M173,285 Q165,240 168,215 Q178,230 173,285" fill="#86EFAC" opacity="0.5"/>
  <path d="M178,285 Q188,237 183,213 Q175,227 178,285" fill="#4ADE80" opacity="0.4"/>
  
  <path d="M273,285 Q265,230 268,200 Q278,220 273,285" fill="#86EFAC" opacity="0.5"/>
  <path d="M278,285 Q288,229 283,201 Q275,219 278,285" fill="#4ADE80" opacity="0.4"/>
  
  <path d="M373,285 Q365,220 368,185 Q378,210 373,285" fill="#86EFAC" opacity="0.5"/>
  <path d="M378,285 Q388,221 383,189 Q375,211 378,285" fill="#4ADE80" opacity="0.4"/>
  
  
  <!-- Bubbles -->
  <circle cx="263" cy="88" r="4" fill="white" opacity="0.15"/>
  <circle cx="288" cy="68" r="5" fill="white" opacity="0.2"/>
  <circle cx="313" cy="48" r="6" fill="white" opacity="0.25"/>
  <circle cx="338" cy="28" r="7" fill="white" opacity="0.30000000000000004"/>
  <circle cx="363" cy="8" r="8" fill="white" opacity="0.35"/>
  
  <!-- Fish body -->
  <ellipse cx="240" cy="150" rx="46.5" ry="31.5" fill="url(#fish_55)"/>
  
  <!-- Tail -->
  <path d="M193.5,150 L165.5,122 L165.5,178 Z" fill="#EA580C"/>
  
  <!-- Dorsal fin -->
  <path d="M230,118.5 Q240,90.5 260,118.5" fill="#EA580C" opacity="0.7"/>
  
  <!-- Ventral fin -->
  
  
  <!-- Pectoral fin -->
  <ellipse cx="255.5" cy="165.75" rx="10" ry="6" fill="#EA580C" opacity="0.5" transform="rotate(-20 255.5 165.75)"/>
  
  <!-- Stripes or dots -->
  
  
  
  <!-- Eye -->
  <circle cx="208.5" cy="139.5" r="6" fill="white"/>
  <circle cx="209.5" cy="139.5" r="3.5" fill="#1E293B"/>
  <circle cx="210.5" cy="138.5" r="1.2" fill="white"/>
  
  <!-- Mouth -->
  <path d="M283.5,152 Q288.5,154 283.5,156" fill="none" stroke="#EA580C" stroke-width="1.5" opacity="0.6"/>
</svg>