<svg xmlns="http://www.w3.org/2000/svg" viewBox="0 0 400 300" width="400" height="300">
  <defs>
    <linearGradient id="bg31" x1="0%" y1="0%" x2="0%" y2="100%">
      <stop offset="0%" style="stop-color:#E8F5E9"/>
      <stop offset="100%" style="stop-color:#C8E6C9"/>
    </linearGradient>
    <radialGradient id="glow31" cx="60%" cy="20%" r="60%">
      <stop offset="0%" style="stop-color:white;stop-opacity:0.15"/>
      <stop offset="100%" style="stop-color:white;stop-opacity:0"/>
    </radialGradient>
  </defs>
  <rect width="400" height="300" rx="16" fill="url(#bg31)"/>
  <rect width="400" height="300" rx="16" fill="url(#glow31)"/>
  <!-- Sand -->
  <ellipse cx="200" cy="288" rx="200" ry="18" fill="#D4A574" opacity="0.25"/>
  <!-- Plants -->
  <path d="M60,285 Q55,255 62,235 Q58,245 55,260" stroke="#66BB6A" stroke-width="2" fill="none" opacity="0.4"/>
  <path d="M340,285 Q345,250 338,225 Q350,245 348,260" stroke="#43A047" stroke-width="2.5" fill="none" opacity="0.35"/>
  <!-- Bubbles -->
  <circle cx="320" cy="60" r="3" fill="white" opacity="0.15"/>
  <circle cx="335" cy="40" r="2" fill="white" opacity="0.1"/>
  <circle cx="310" cy="80" r="4" fill="white" opacity="0.12"/>
  <path d="M164,145 L151.4,131 L151.4,159 Z" fill="#5D4037" opacity="0.7"/><path d="M189.2,125 Q196.4,103 205.4,109 Q210.8,117 212.6,125" fill="#5D4037" opacity="0.5"/><ellipse cx="200" cy="145" rx="36" ry="20" fill="#4E342E"/>
    <ellipse cx="200" cy="151" rx="32.4" ry="8" fill="#3E2723" opacity="0.3"/><circle cx="182" cy="139" r="2.5" fill="#D7CCC8" opacity="0.35"/><circle cx="194.6" cy="139" r="2.5" fill="#D7CCC8" opacity="0.35"/><circle cx="207.2" cy="139" r="2.5" fill="#D7CCC8" opacity="0.35"/><circle cx="219.8" cy="139" r="2.5" fill="#D7CCC8" opacity="0.35"/><circle cx="182" cy="149" r="2.5" fill="#D7CCC8" opacity="0.35"/><circle cx="194.6" cy="149" r="2.5" fill="#D7CCC8" opacity="0.35"/><circle cx="207.2" cy="149" r="2.5" fill="#D7CCC8" opacity="0.35"/><circle cx="219.8" cy="149" r="2.5" fill="#D7CCC8" opacity="0.35"/>
  <circle cx="226" cy="141" r="4" fill="white"/>
  <circle cx="227" cy="141" r="2.4" fill="#1E293B"/>
  <circle cx="227.5" cy="140.2" r="0.88" fill="white"/><ellipse cx="236" cy="147" rx="4" ry="3" fill="#3E2723" opacity="0.4"/>
</svg>