<svg xmlns="http://www.w3.org/2000/svg" viewBox="0 0 400 300" width="400" height="300">
  <defs>
    <linearGradient id="bg4" x1="0%" y1="0%" x2="0%" y2="100%">
      <stop offset="0%" style="stop-color:#F3E5F5"/>
      <stop offset="100%" style="stop-color:#E1BEE7"/>
    </linearGradient>
    <radialGradient id="glow4" cx="60%" cy="20%" r="60%">
      <stop offset="0%" style="stop-color:white;stop-opacity:0.15"/>
      <stop offset="100%" style="stop-color:white;stop-opacity:0"/>
    </radialGradient>
  </defs>
  <rect width="400" height="300" rx="16" fill="url(#bg4)"/>
  <rect width="400" height="300" rx="16" fill="url(#glow4)"/>
  <!-- Sand -->
  <ellipse cx="200" cy="288" rx="200" ry="18" fill="#D4A574" opacity="0.25"/>
  <!-- Plants -->
  <path d="M60,285 Q55,255 62,235 Q58,245 55,260" stroke="#66BB6A" stroke-width="2" fill="none" opacity="0.4"/>
  <path d="M340,285 Q345,250 338,225 Q350,245 348,260" stroke="#43A047" stroke-width="2.5" fill="none" opacity="0.35"/>
  <!-- Bubbles -->
  <circle cx="320" cy="60" r="3" fill="white" opacity="0.15"/>
  <circle cx="335" cy="40" r="2" fill="white" opacity="0.1"/>
  <circle cx="310" cy="80" r="4" fill="white" opacity="0.12"/>
  
    <!-- Shrimp tail -->
    <path d="M181,148 Q171,155 166,150" fill="#D32F2F" opacity="0.7"/>
    <path d="M181,148 Q171,141 166,143" fill="#D32F2F" opacity="0.6"/>
    <!-- Shrimp body segments -->
    <ellipse cx="192" cy="145" rx="12" ry="12" fill="#D32F2F"/>
    <ellipse cx="204" cy="143" rx="10.8" ry="10.8" fill="#D32F2F"/>
    <ellipse cx="213.2" cy="140" rx="7.199999999999999" ry="9" fill="#C62828"/>
    <!-- Head -->
    <ellipse cx="216.8" cy="139" rx="6" ry="7.800000000000001" fill="#C62828"/>
    <!-- Rostrum -->
    <line x1="220.4" y1="137" x2="229" y2="133" stroke="#C62828" stroke-width="1.5"/>
    <!-- Antennae -->
    <path d="M219.2,135 Q239,120 249,125" fill="none" stroke="#FFCDD2" stroke-width="0.8" opacity="0.6"/>
    <path d="M219.2,137 Q244,127 254,123" fill="none" stroke="#FFCDD2" stroke-width="0.8" opacity="0.6"/>
    <!-- Legs -->
    <line x1="192.8" y1="153.4" x2="190.8" y2="165" stroke="#FFCDD2" stroke-width="0.8" opacity="0.5"/><line x1="198.8" y1="153.4" x2="196.8" y2="165" stroke="#FFCDD2" stroke-width="0.8" opacity="0.5"/><line x1="204.8" y1="153.4" x2="202.8" y2="165" stroke="#FFCDD2" stroke-width="0.8" opacity="0.5"/><line x1="210.8" y1="153.4" x2="208.8" y2="165" stroke="#FFCDD2" stroke-width="0.8" opacity="0.5"/><line x1="216.8" y1="153.4" x2="214.8" y2="165" stroke="#FFCDD2" stroke-width="0.8" opacity="0.5"/>
    <!-- Eye -->
    <circle cx="218" cy="136" r="2.5" fill="#212121"/>
    <circle cx="218.24" cy="135.5" r="0.8" fill="white"/>
</svg>