<svg xmlns="http://www.w3.org/2000/svg" viewBox="0 0 400 300" width="400" height="300">
  <defs>
    <linearGradient id="bg_4" x1="0%" y1="0%" x2="0%" y2="100%">
      <stop offset="0%" style="stop-color:#E0F2FE"/>
      <stop offset="100%" style="stop-color:#BAE6FD"/>
    </linearGradient>
    <linearGradient id="fish_4" x1="0%" y1="0%" x2="100%" y2="100%">
      <stop offset="0%" style="stop-color:#EC4899"/>
      <stop offset="100%" style="stop-color:#DB2777"/>
    </linearGradient>
    <radialGradient id="light_4" cx="50%" cy="0%" r="80%">
      <stop offset="0%" style="stop-color:white;stop-opacity:0.15"/>
      <stop offset="100%" style="stop-color:white;stop-opacity:0"/>
    </radialGradient>
  </defs>
  
  <!-- Background water -->
  <rect width="400" height="300" rx="16" fill="url(#bg_4)"/>
  <rect width="400" height="300" rx="16" fill="url(#light_4)"/>
  
  <!-- Sand/substrate -->
  <ellipse cx="200" cy="290" rx="210" ry="25" fill="#F5DEB3" opacity="0.4"/>
  
  <!-- Plants -->
  
  <path d="M71,285 Q63,250 66,230 Q76,240 71,285" fill="#86EFAC" opacity="0.5"/>
  <path d="M76,285 Q86,245 81,225 Q73,235 76,285" fill="#4ADE80" opacity="0.4"/>
  
  <path d="M171,285 Q163,240 166,215 Q176,230 171,285" fill="#86EFAC" opacity="0.5"/>
  <path d="M176,285 Q186,237 181,213 Q173,227 176,285" fill="#4ADE80" opacity="0.4"/>
  
  <path d="M271,285 Q263,230 266,200 Q276,220 271,285" fill="#86EFAC" opacity="0.5"/>
  <path d="M276,285 Q286,229 281,201 Q273,219 276,285" fill="#4ADE80" opacity="0.4"/>
  
  <path d="M371,285 Q363,220 366,185 Q376,210 371,285" fill="#86EFAC" opacity="0.5"/>
  <path d="M376,285 Q386,221 381,189 Q373,211 376,285" fill="#4ADE80" opacity="0.4"/>
  
  
  <!-- Bubbles -->
  <circle cx="261" cy="91" r="6" fill="white" opacity="0.15"/>
  <circle cx="286" cy="71" r="7" fill="white" opacity="0.2"/>
  <circle cx="311" cy="51" r="8" fill="white" opacity="0.25"/>
  <circle cx="336" cy="31" r="9" fill="white" opacity="0.30000000000000004"/>
  <circle cx="361" cy="11" r="10" fill="white" opacity="0.35"/>
  
  <!-- Fish body -->
  <ellipse cx="240" cy="150" rx="45.5" ry="25.5" fill="url(#fish_4)"/>
  
  <!-- Tail -->
  <path d="M194.5,150 L163.5,119 L163.5,181 Z" fill="#DB2777"/>
  
  <!-- Dorsal fin -->
  <path d="M230,124.5 Q240,98.5 260,124.5" fill="#DB2777" opacity="0.7"/>
  
  <!-- Ventral fin -->
  
  
  <!-- Pectoral fin -->
  <ellipse cx="255.16666666666666" cy="162.75" rx="10" ry="6" fill="#DB2777" opacity="0.5" transform="rotate(-20 255.16666666666666 162.75)"/>
  
  <!-- Stripes or dots -->
  
  
  
  <!-- Eye -->
  <circle cx="209.5" cy="141.5" r="6" fill="white"/>
  <circle cx="210.5" cy="141.5" r="3.5" fill="#1E293B"/>
  <circle cx="211.5" cy="140.5" r="1.2" fill="white"/>
  
  <!-- Mouth -->
  <path d="M282.5,152 Q287.5,154 282.5,156" fill="none" stroke="#DB2777" stroke-width="1.5" opacity="0.6"/>
</svg>