<svg xmlns="http://www.w3.org/2000/svg" viewBox="0 0 400 300" width="400" height="300">
  <defs>
    <linearGradient id="bg58" x1="0%" y1="0%" x2="0%" y2="100%">
      <stop offset="0%" style="stop-color:#F3E5F5"/>
      <stop offset="100%" style="stop-color:#E1BEE7"/>
    </linearGradient>
    <radialGradient id="glow58" cx="60%" cy="20%" r="60%">
      <stop offset="0%" style="stop-color:white;stop-opacity:0.15"/>
      <stop offset="100%" style="stop-color:white;stop-opacity:0"/>
    </radialGradient>
  </defs>
  <rect width="400" height="300" rx="16" fill="url(#bg58)"/>
  <rect width="400" height="300" rx="16" fill="url(#glow58)"/>
  <!-- Sand -->
  <ellipse cx="200" cy="288" rx="200" ry="18" fill="#D4A574" opacity="0.25"/>
  <!-- Plants -->
  <path d="M60,285 Q55,255 62,235 Q58,245 55,260" stroke="#66BB6A" stroke-width="2" fill="none" opacity="0.4"/>
  <path d="M340,285 Q345,250 338,225 Q350,245 348,260" stroke="#43A047" stroke-width="2.5" fill="none" opacity="0.35"/>
  <!-- Bubbles -->
  <circle cx="320" cy="60" r="3" fill="white" opacity="0.15"/>
  <circle cx="335" cy="40" r="2" fill="white" opacity="0.1"/>
  <circle cx="310" cy="80" r="4" fill="white" opacity="0.12"/>
  <path d="M184,145 L177.6,138.7 L181.6,145 L177.6,151.3 Z" fill="#E53935" opacity="0.8"/><path d="M198.4,138 Q200.8,135.9 203.2,138" fill="#E53935" opacity="0.6"/><ellipse cx="200" cy="145" rx="16" ry="7" fill="#D32F2F"/>
    <ellipse cx="202" cy="143.95" rx="13.6" ry="4.2" fill="#B71C1C" opacity="0.3"/>
  <circle cx="208.5" cy="143.6" r="3" fill="white"/>
  <circle cx="209.5" cy="143.6" r="1.7999999999999998" fill="#1E293B"/>
  <circle cx="210" cy="143" r="0.66" fill="white"/><path d="M214,146 Q218,148 214,150" fill="none" stroke="#B71C1C" stroke-width="1.2" opacity="0.4"/>
</svg>