<svg xmlns="http://www.w3.org/2000/svg" viewBox="0 0 400 300" width="400" height="300">
  <defs>
    <linearGradient id="bg_58" x1="0%" y1="0%" x2="0%" y2="100%">
      <stop offset="0%" style="stop-color:#E0F2FE"/>
      <stop offset="100%" style="stop-color:#BAE6FD"/>
    </linearGradient>
    <linearGradient id="fish_58" x1="0%" y1="0%" x2="100%" y2="100%">
      <stop offset="0%" style="stop-color:#84CC16"/>
      <stop offset="100%" style="stop-color:#65A30D"/>
    </linearGradient>
    <radialGradient id="light_58" cx="50%" cy="0%" r="80%">
      <stop offset="0%" style="stop-color:white;stop-opacity:0.15"/>
      <stop offset="100%" style="stop-color:white;stop-opacity:0"/>
    </radialGradient>
  </defs>
  
  <!-- Background water -->
  <rect width="400" height="300" rx="16" fill="url(#bg_58)"/>
  <rect width="400" height="300" rx="16" fill="url(#light_58)"/>
  
  <!-- Sand/substrate -->
  <ellipse cx="200" cy="290" rx="210" ry="25" fill="#F5DEB3" opacity="0.4"/>
  
  <!-- Plants -->
  
  <path d="M72,285 Q64,250 67,230 Q77,240 72,285" fill="#86EFAC" opacity="0.5"/>
  <path d="M77,285 Q87,245 82,225 Q74,235 77,285" fill="#4ADE80" opacity="0.4"/>
  
  <path d="M172,285 Q164,240 167,215 Q177,230 172,285" fill="#86EFAC" opacity="0.5"/>
  <path d="M177,285 Q187,237 182,213 Q174,227 177,285" fill="#4ADE80" opacity="0.4"/>
  
  <path d="M272,285 Q264,230 267,200 Q277,220 272,285" fill="#86EFAC" opacity="0.5"/>
  <path d="M277,285 Q287,229 282,201 Q274,219 277,285" fill="#4ADE80" opacity="0.4"/>
  
  
  <!-- Bubbles -->
  <circle cx="262" cy="87" r="3" fill="white" opacity="0.15"/>
  <circle cx="287" cy="67" r="4" fill="white" opacity="0.2"/>
  <circle cx="312" cy="47" r="5" fill="white" opacity="0.25"/>
  <circle cx="337" cy="27" r="6" fill="white" opacity="0.30000000000000004"/>
  
  <!-- Fish body -->
  <ellipse cx="240" cy="150" rx="46" ry="28.5" fill="url(#fish_58)"/>
  
  <!-- Tail -->
  <path d="M194,150 L167,123 L167,177 Z" fill="#65A30D"/>
  
  <!-- Dorsal fin -->
  <path d="M230,121.5 Q240,94.5 260,121.5" fill="#65A30D" opacity="0.7"/>
  
  <!-- Ventral fin -->
  <path d="M240,178.5 Q245,190.5 225,186.5" fill="#65A30D" opacity="0.6"/>
  
  <!-- Pectoral fin -->
  <ellipse cx="255.33333333333334" cy="164.25" rx="10" ry="6" fill="#65A30D" opacity="0.5" transform="rotate(-20 255.33333333333334 164.25)"/>
  
  <!-- Stripes or dots -->
  
  
  
  <!-- Eye -->
  <circle cx="209" cy="140.5" r="6" fill="white"/>
  <circle cx="210" cy="140.5" r="3.5" fill="#1E293B"/>
  <circle cx="211" cy="139.5" r="1.2" fill="white"/>
  
  <!-- Mouth -->
  <path d="M283,152 Q288,154 283,156" fill="none" stroke="#65A30D" stroke-width="1.5" opacity="0.6"/>
</svg>