<svg xmlns="http://www.w3.org/2000/svg" viewBox="0 0 400 300" width="400" height="300">
  <defs>
    <linearGradient id="bg_48" x1="0%" y1="0%" x2="0%" y2="100%">
      <stop offset="0%" style="stop-color:#E0F2FE"/>
      <stop offset="100%" style="stop-color:#BAE6FD"/>
    </linearGradient>
    <linearGradient id="fish_48" x1="0%" y1="0%" x2="100%" y2="100%">
      <stop offset="0%" style="stop-color:#3B82F6"/>
      <stop offset="100%" style="stop-color:#1D4ED8"/>
    </linearGradient>
    <radialGradient id="light_48" cx="50%" cy="0%" r="80%">
      <stop offset="0%" style="stop-color:white;stop-opacity:0.15"/>
      <stop offset="100%" style="stop-color:white;stop-opacity:0"/>
    </radialGradient>
  </defs>
  
  <!-- Background water -->
  <rect width="400" height="300" rx="16" fill="url(#bg_48)"/>
  <rect width="400" height="300" rx="16" fill="url(#light_48)"/>
  
  <!-- Sand/substrate -->
  <ellipse cx="200" cy="290" rx="210" ry="25" fill="#F5DEB3" opacity="0.4"/>
  
  <!-- Plants -->
  
  <path d="M74,285 Q66,250 69,230 Q79,240 74,285" fill="#86EFAC" opacity="0.5"/>
  <path d="M79,285 Q89,245 84,225 Q76,235 79,285" fill="#4ADE80" opacity="0.4"/>
  
  <path d="M174,285 Q166,240 169,215 Q179,230 174,285" fill="#86EFAC" opacity="0.5"/>
  <path d="M179,285 Q189,237 184,213 Q176,227 179,285" fill="#4ADE80" opacity="0.4"/>
  
  
  <!-- Bubbles -->
  <circle cx="264" cy="89" r="5" fill="white" opacity="0.15"/>
  <circle cx="289" cy="69" r="6" fill="white" opacity="0.2"/>
  <circle cx="314" cy="49" r="7" fill="white" opacity="0.25"/>
  
  <!-- Fish body -->
  <ellipse cx="240" cy="150" rx="47" ry="27" fill="url(#fish_48)"/>
  
  <!-- Tail -->
  <path d="M193,150 L164,121 L164,179 Z" fill="#1D4ED8"/>
  
  <!-- Dorsal fin -->
  
  
  <!-- Ventral fin -->
  <path d="M240,177 Q245,189 225,185" fill="#1D4ED8" opacity="0.6"/>
  
  <!-- Pectoral fin -->
  <ellipse cx="255.66666666666666" cy="163.5" rx="10" ry="6" fill="#1D4ED8" opacity="0.5" transform="rotate(-20 255.66666666666666 163.5)"/>
  
  <!-- Stripes or dots -->
  <line x1="208.66666666666666" y1="128" x2="208.66666666666666" y2="172" stroke="#60A5FA" stroke-width="3" opacity="0.4"/><line x1="240" y1="128" x2="240" y2="172" stroke="#60A5FA" stroke-width="3" opacity="0.4"/><line x1="271.3333333333333" y1="128" x2="271.3333333333333" y2="172" stroke="#60A5FA" stroke-width="3" opacity="0.4"/>
  
  
  <!-- Eye -->
  <circle cx="208" cy="141" r="6" fill="white"/>
  <circle cx="209" cy="141" r="3.5" fill="#1E293B"/>
  <circle cx="210" cy="140" r="1.2" fill="white"/>
  
  <!-- Mouth -->
  <path d="M284,152 Q289,154 284,156" fill="none" stroke="#1D4ED8" stroke-width="1.5" opacity="0.6"/>
</svg>