<svg xmlns="http://www.w3.org/2000/svg" viewBox="0 0 400 300" width="400" height="300">
  <defs>
    <linearGradient id="bg48" x1="0%" y1="0%" x2="0%" y2="100%">
      <stop offset="0%" style="stop-color:#E0F2FE"/>
      <stop offset="100%" style="stop-color:#BAE6FD"/>
    </linearGradient>
    <radialGradient id="glow48" cx="60%" cy="20%" r="60%">
      <stop offset="0%" style="stop-color:white;stop-opacity:0.15"/>
      <stop offset="100%" style="stop-color:white;stop-opacity:0"/>
    </radialGradient>
  </defs>
  <rect width="400" height="300" rx="16" fill="url(#bg48)"/>
  <rect width="400" height="300" rx="16" fill="url(#glow48)"/>
  <!-- Sand -->
  <ellipse cx="200" cy="288" rx="200" ry="18" fill="#D4A574" opacity="0.25"/>
  <!-- Plants -->
  <path d="M60,285 Q55,255 62,235 Q58,245 55,260" stroke="#66BB6A" stroke-width="2" fill="none" opacity="0.4"/>
  <path d="M340,285 Q345,250 338,225 Q350,245 348,260" stroke="#43A047" stroke-width="2.5" fill="none" opacity="0.35"/>
  <!-- Bubbles -->
  <circle cx="320" cy="60" r="3" fill="white" opacity="0.15"/>
  <circle cx="335" cy="40" r="2" fill="white" opacity="0.1"/>
  <circle cx="310" cy="80" r="4" fill="white" opacity="0.12"/>
  
    <!-- Shrimp tail -->
    <path d="M177,148 Q167,155 162,150" fill="#D32F2F" opacity="0.7"/>
    <path d="M177,148 Q167,141 162,143" fill="#D32F2F" opacity="0.6"/>
    <!-- Shrimp body segments -->
    <ellipse cx="192" cy="145" rx="14" ry="12" fill="#D32F2F"/>
    <ellipse cx="204" cy="143" rx="12.6" ry="10.8" fill="#D32F2F"/>
    <ellipse cx="215.4" cy="140" rx="8.4" ry="9" fill="#FFFFFF"/>
    <!-- Head -->
    <ellipse cx="219.6" cy="139" rx="7" ry="7.800000000000001" fill="#FFFFFF"/>
    <!-- Rostrum -->
    <line x1="223.8" y1="137" x2="233" y2="133" stroke="#FFFFFF" stroke-width="1.5"/>
    <!-- Antennae -->
    <path d="M222.4,135 Q243,120 253,125" fill="none" stroke="#FFEB3B" stroke-width="0.8" opacity="0.6"/>
    <path d="M222.4,137 Q248,127 258,123" fill="none" stroke="#FFEB3B" stroke-width="0.8" opacity="0.6"/>
    <!-- Legs -->
    <line x1="191.6" y1="153.4" x2="189.6" y2="165" stroke="#FFEB3B" stroke-width="0.8" opacity="0.5"/><line x1="198.6" y1="153.4" x2="196.6" y2="165" stroke="#FFEB3B" stroke-width="0.8" opacity="0.5"/><line x1="205.6" y1="153.4" x2="203.6" y2="165" stroke="#FFEB3B" stroke-width="0.8" opacity="0.5"/><line x1="212.6" y1="153.4" x2="210.6" y2="165" stroke="#FFEB3B" stroke-width="0.8" opacity="0.5"/><line x1="219.6" y1="153.4" x2="217.6" y2="165" stroke="#FFEB3B" stroke-width="0.8" opacity="0.5"/>
    <!-- Eye -->
    <circle cx="221" cy="136" r="2.5" fill="#212121"/>
    <circle cx="221.28" cy="135.5" r="0.8" fill="white"/>
</svg>