<svg xmlns="http://www.w3.org/2000/svg" viewBox="0 0 400 300" width="400" height="300">
  <defs>
    <linearGradient id="bg_62" x1="0%" y1="0%" x2="0%" y2="100%">
      <stop offset="0%" style="stop-color:#E0F2FE"/>
      <stop offset="100%" style="stop-color:#BAE6FD"/>
    </linearGradient>
    <linearGradient id="fish_62" x1="0%" y1="0%" x2="100%" y2="100%">
      <stop offset="0%" style="stop-color:#F59E0B"/>
      <stop offset="100%" style="stop-color:#D97706"/>
    </linearGradient>
    <radialGradient id="light_62" cx="50%" cy="0%" r="80%">
      <stop offset="0%" style="stop-color:white;stop-opacity:0.15"/>
      <stop offset="100%" style="stop-color:white;stop-opacity:0"/>
    </radialGradient>
  </defs>
  
  <!-- Background water -->
  <rect width="400" height="300" rx="16" fill="url(#bg_62)"/>
  <rect width="400" height="300" rx="16" fill="url(#light_62)"/>
  
  <!-- Sand/substrate -->
  <ellipse cx="200" cy="290" rx="210" ry="25" fill="#F5DEB3" opacity="0.4"/>
  
  <!-- Plants -->
  
  <path d="M87,285 Q79,250 82,230 Q92,240 87,285" fill="#86EFAC" opacity="0.5"/>
  <path d="M92,285 Q102,245 97,225 Q89,235 92,285" fill="#4ADE80" opacity="0.4"/>
  
  <path d="M187,285 Q179,240 182,215 Q192,230 187,285" fill="#86EFAC" opacity="0.5"/>
  <path d="M192,285 Q202,237 197,213 Q189,227 192,285" fill="#4ADE80" opacity="0.4"/>
  
  <path d="M287,285 Q279,230 282,200 Q292,220 287,285" fill="#86EFAC" opacity="0.5"/>
  <path d="M292,285 Q302,229 297,201 Q289,219 292,285" fill="#4ADE80" opacity="0.4"/>
  
  <path d="M387,285 Q379,220 382,185 Q392,210 387,285" fill="#86EFAC" opacity="0.5"/>
  <path d="M392,285 Q402,221 397,189 Q389,211 392,285" fill="#4ADE80" opacity="0.4"/>
  
  
  <!-- Bubbles -->
  <circle cx="267" cy="82" r="6" fill="white" opacity="0.15"/>
  <circle cx="292" cy="62" r="7" fill="white" opacity="0.2"/>
  <circle cx="317" cy="42" r="8" fill="white" opacity="0.25"/>
  <circle cx="342" cy="22" r="9" fill="white" opacity="0.30000000000000004"/>
  <circle cx="367" cy="2" r="10" fill="white" opacity="0.35"/>
  
  <!-- Fish body -->
  <ellipse cx="240" cy="150" rx="53.5" ry="28.5" fill="url(#fish_62)"/>
  
  <!-- Tail -->
  <path d="M186.5,150 L164.5,128 L164.5,172 Z" fill="#D97706"/>
  
  <!-- Dorsal fin -->
  <path d="M230,121.5 Q240,99.5 260,121.5" fill="#D97706" opacity="0.7"/>
  
  <!-- Ventral fin -->
  
  
  <!-- Pectoral fin -->
  <ellipse cx="257.8333333333333" cy="164.25" rx="10" ry="6" fill="#D97706" opacity="0.5" transform="rotate(-20 257.8333333333333 164.25)"/>
  
  <!-- Stripes or dots -->
  
  
  
  <!-- Eye -->
  <circle cx="201.5" cy="140.5" r="6" fill="white"/>
  <circle cx="202.5" cy="140.5" r="3.5" fill="#1E293B"/>
  <circle cx="203.5" cy="139.5" r="1.2" fill="white"/>
  
  <!-- Mouth -->
  <path d="M290.5,152 Q295.5,154 290.5,156" fill="none" stroke="#D97706" stroke-width="1.5" opacity="0.6"/>
</svg>