<svg xmlns="http://www.w3.org/2000/svg" viewBox="0 0 400 300" width="400" height="300">
  <defs>
    <linearGradient id="bg43" x1="0%" y1="0%" x2="0%" y2="100%">
      <stop offset="0%" style="stop-color:#E8F5E9"/>
      <stop offset="100%" style="stop-color:#C8E6C9"/>
    </linearGradient>
    <radialGradient id="glow43" cx="60%" cy="20%" r="60%">
      <stop offset="0%" style="stop-color:white;stop-opacity:0.15"/>
      <stop offset="100%" style="stop-color:white;stop-opacity:0"/>
    </radialGradient>
  </defs>
  <rect width="400" height="300" rx="16" fill="url(#bg43)"/>
  <rect width="400" height="300" rx="16" fill="url(#glow43)"/>
  <!-- Sand -->
  <ellipse cx="200" cy="288" rx="200" ry="18" fill="#D4A574" opacity="0.25"/>
  <!-- Plants -->
  <path d="M60,285 Q55,255 62,235 Q58,245 55,260" stroke="#66BB6A" stroke-width="2" fill="none" opacity="0.4"/>
  <path d="M340,285 Q345,250 338,225 Q350,245 348,260" stroke="#43A047" stroke-width="2.5" fill="none" opacity="0.35"/>
  <!-- Bubbles -->
  <circle cx="320" cy="60" r="3" fill="white" opacity="0.15"/>
  <circle cx="335" cy="40" r="2" fill="white" opacity="0.1"/>
  <circle cx="310" cy="80" r="4" fill="white" opacity="0.12"/>
  <ellipse cx="164" cy="145" rx="7.5" ry="14" fill="#212121" opacity="0.7"/><path d="M185,125 Q200,115 209,125" fill="#212121" opacity="0.5"/><ellipse cx="200" cy="145" rx="30" ry="20" fill="#FF6D00"/>
    <ellipse cx="203" cy="141" rx="21" ry="10" fill="#E65100" opacity="0.25"/><rect x="191" y="125" width="3.5999999999999996" height="40" rx="2" fill="white" opacity="0.8"/><rect x="204.5" y="125" width="3.5999999999999996" height="40" rx="2" fill="white" opacity="0.8"/><rect x="190.1" y="125" width="2" height="40" fill="#212121" opacity="0.4"/><rect x="194.6" y="125" width="2" height="40" fill="#212121" opacity="0.4"/>
  <circle cx="217.5" cy="141" r="5" fill="white"/>
  <circle cx="218.5" cy="141" r="3" fill="#1E293B"/>
  <circle cx="219" cy="140" r="1.1" fill="white"/><path d="M228,146 Q232,148 228,150" fill="none" stroke="#E65100" stroke-width="1.2" opacity="0.4"/>
</svg>