<svg xmlns="http://www.w3.org/2000/svg" viewBox="0 0 400 300" width="400" height="300">
  <defs>
    <linearGradient id="bg48" x1="0%" y1="0%" x2="0%" y2="100%">
      <stop offset="0%" style="stop-color:#E0F2FE"/>
      <stop offset="100%" style="stop-color:#BAE6FD"/>
    </linearGradient>
    <radialGradient id="glow48" cx="60%" cy="20%" r="60%">
      <stop offset="0%" style="stop-color:white;stop-opacity:0.15"/>
      <stop offset="100%" style="stop-color:white;stop-opacity:0"/>
    </radialGradient>
  </defs>
  <rect width="400" height="300" rx="16" fill="url(#bg48)"/>
  <rect width="400" height="300" rx="16" fill="url(#glow48)"/>
  <!-- Sand -->
  <ellipse cx="200" cy="288" rx="200" ry="18" fill="#D4A574" opacity="0.25"/>
  <!-- Plants -->
  <path d="M60,285 Q55,255 62,235 Q58,245 55,260" stroke="#66BB6A" stroke-width="2" fill="none" opacity="0.4"/>
  <path d="M340,285 Q345,250 338,225 Q350,245 348,260" stroke="#43A047" stroke-width="2.5" fill="none" opacity="0.35"/>
  <!-- Bubbles -->
  <circle cx="320" cy="60" r="3" fill="white" opacity="0.15"/>
  <circle cx="335" cy="40" r="2" fill="white" opacity="0.1"/>
  <circle cx="310" cy="80" r="4" fill="white" opacity="0.12"/>
  <path d="M170,145 L159.5,132.4 L159.5,157.6 Z" fill="#4E342E" opacity="0.7"/><path d="M191,127 Q197,107.2 204.5,112.6 Q209,119.8 210.5,127" fill="#4E342E" opacity="0.5"/><ellipse cx="200" cy="145" rx="30" ry="18" fill="#3E2723"/>
    <ellipse cx="200" cy="150.4" rx="27" ry="7.2" fill="#212121" opacity="0.3"/><rect x="189.5" y="131.5" width="3.5999999999999996" height="27" rx="2" fill="#212121" opacity="0.5"/><rect x="200" y="131.5" width="3.5999999999999996" height="27" rx="2" fill="#212121" opacity="0.5"/><rect x="210.5" y="131.5" width="3.5999999999999996" height="27" rx="2" fill="#212121" opacity="0.5"/>
  <circle cx="220" cy="141.4" r="4" fill="white"/>
  <circle cx="221" cy="141.4" r="2.4" fill="#1E293B"/>
  <circle cx="221.5" cy="140.6" r="0.88" fill="white"/><ellipse cx="230" cy="146.8" rx="4" ry="3" fill="#212121" opacity="0.4"/>
</svg>