<svg xmlns="http://www.w3.org/2000/svg" viewBox="0 0 400 300" width="400" height="300">
  <defs>
    <linearGradient id="bg36" x1="0%" y1="0%" x2="0%" y2="100%">
      <stop offset="0%" style="stop-color:#E0F2FE"/>
      <stop offset="100%" style="stop-color:#BAE6FD"/>
    </linearGradient>
    <radialGradient id="glow36" cx="60%" cy="20%" r="60%">
      <stop offset="0%" style="stop-color:white;stop-opacity:0.15"/>
      <stop offset="100%" style="stop-color:white;stop-opacity:0"/>
    </radialGradient>
  </defs>
  <rect width="400" height="300" rx="16" fill="url(#bg36)"/>
  <rect width="400" height="300" rx="16" fill="url(#glow36)"/>
  <!-- Sand -->
  <ellipse cx="200" cy="288" rx="200" ry="18" fill="#D4A574" opacity="0.25"/>
  <!-- Plants -->
  <path d="M60,285 Q55,255 62,235 Q58,245 55,260" stroke="#66BB6A" stroke-width="2" fill="none" opacity="0.4"/>
  <path d="M340,285 Q345,250 338,225 Q350,245 348,260" stroke="#43A047" stroke-width="2.5" fill="none" opacity="0.35"/>
  <!-- Bubbles -->
  <circle cx="320" cy="60" r="3" fill="white" opacity="0.15"/>
  <circle cx="335" cy="40" r="2" fill="white" opacity="0.1"/>
  <circle cx="310" cy="80" r="4" fill="white" opacity="0.12"/>
  <ellipse cx="159.2" cy="145" rx="8.5" ry="15.399999999999999" fill="#B0BEC5" opacity="0.7"/><path d="M193.2,123 L194.22,118.6 L195.23999999999998,123 L198.3,114.2 L199.32,123 L202.38,109.8 L203.39999999999998,123 L206.46,114.2 L207.48,123 L210.54,118.6 L211.55999999999997,123 " fill="#B0BEC5" opacity="0.6"/><ellipse cx="200" cy="145" rx="34" ry="22" fill="#90A4AE"/>
    <ellipse cx="203" cy="140.6" rx="23.799999999999997" ry="11" fill="#78909C" opacity="0.25"/><line x1="186.4" y1="129.6" x2="186.4" y2="160.4" stroke="#212121" stroke-width="2.5" opacity="0.4"/><line x1="196.6" y1="129.6" x2="196.6" y2="160.4" stroke="#212121" stroke-width="2.5" opacity="0.4"/><line x1="206.8" y1="129.6" x2="206.8" y2="160.4" stroke="#212121" stroke-width="2.5" opacity="0.4"/><line x1="217" y1="129.6" x2="217" y2="160.4" stroke="#212121" stroke-width="2.5" opacity="0.4"/><line x1="183" y1="129.6" x2="183" y2="160.4" stroke="#212121" stroke-width="2.5" opacity="0.35"/><line x1="190.48" y1="129.6" x2="190.48" y2="160.4" stroke="#212121" stroke-width="2.5" opacity="0.35"/><line x1="197.96" y1="129.6" x2="197.96" y2="160.4" stroke="#212121" stroke-width="2.5" opacity="0.35"/><line x1="205.44" y1="129.6" x2="205.44" y2="160.4" stroke="#212121" stroke-width="2.5" opacity="0.35"/><line x1="212.92000000000002" y1="129.6" x2="212.92000000000002" y2="160.4" stroke="#212121" stroke-width="2.5" opacity="0.35"/><line x1="220.4" y1="129.6" x2="220.4" y2="160.4" stroke="#212121" stroke-width="2.5" opacity="0.35"/>
  <circle cx="221.5" cy="140.6" r="5" fill="white"/>
  <circle cx="222.5" cy="140.6" r="3" fill="#1E293B"/>
  <circle cx="223" cy="139.6" r="1.1" fill="white"/><path d="M232,146 Q236,148 232,150" fill="none" stroke="#78909C" stroke-width="1.2" opacity="0.4"/>
</svg>