<svg xmlns="http://www.w3.org/2000/svg" viewBox="0 0 400 300" width="400" height="300">
  <defs>
    <linearGradient id="bg_5" x1="0%" y1="0%" x2="0%" y2="100%">
      <stop offset="0%" style="stop-color:#E0F2FE"/>
      <stop offset="100%" style="stop-color:#BAE6FD"/>
    </linearGradient>
    <linearGradient id="fish_5" x1="0%" y1="0%" x2="100%" y2="100%">
      <stop offset="0%" style="stop-color:#06B6D4"/>
      <stop offset="100%" style="stop-color:#0891B2"/>
    </linearGradient>
    <radialGradient id="light_5" cx="50%" cy="0%" r="80%">
      <stop offset="0%" style="stop-color:white;stop-opacity:0.15"/>
      <stop offset="100%" style="stop-color:white;stop-opacity:0"/>
    </radialGradient>
  </defs>
  
  <!-- Background water -->
  <rect width="400" height="300" rx="16" fill="url(#bg_5)"/>
  <rect width="400" height="300" rx="16" fill="url(#light_5)"/>
  
  <!-- Sand/substrate -->
  <ellipse cx="200" cy="290" rx="210" ry="25" fill="#F5DEB3" opacity="0.4"/>
  
  <!-- Plants -->
  
  <path d="M99,285 Q91,250 94,230 Q104,240 99,285" fill="#86EFAC" opacity="0.5"/>
  <path d="M104,285 Q114,245 109,225 Q101,235 104,285" fill="#4ADE80" opacity="0.4"/>
  
  <path d="M199,285 Q191,240 194,215 Q204,230 199,285" fill="#86EFAC" opacity="0.5"/>
  <path d="M204,285 Q214,237 209,213 Q201,227 204,285" fill="#4ADE80" opacity="0.4"/>
  
  <path d="M299,285 Q291,230 294,200 Q304,220 299,285" fill="#86EFAC" opacity="0.5"/>
  <path d="M304,285 Q314,229 309,201 Q301,219 304,285" fill="#4ADE80" opacity="0.4"/>
  
  
  <!-- Bubbles -->
  <circle cx="269" cy="84" r="6" fill="white" opacity="0.15"/>
  <circle cx="294" cy="64" r="7" fill="white" opacity="0.2"/>
  <circle cx="319" cy="44" r="8" fill="white" opacity="0.25"/>
  <circle cx="344" cy="24" r="9" fill="white" opacity="0.30000000000000004"/>
  
  <!-- Fish body -->
  <ellipse cx="240" cy="150" rx="59.5" ry="24.5" fill="url(#fish_5)"/>
  
  <!-- Tail -->
  <path d="M180.5,150 L156.5,126 L156.5,174 Z" fill="#0891B2"/>
  
  <!-- Dorsal fin -->
  <path d="M230,125.5 Q240,91.5 260,125.5" fill="#0891B2" opacity="0.7"/>
  
  <!-- Ventral fin -->
  
  
  <!-- Pectoral fin -->
  <ellipse cx="259.8333333333333" cy="162.25" rx="10" ry="6" fill="#0891B2" opacity="0.5" transform="rotate(-20 259.8333333333333 162.25)"/>
  
  <!-- Stripes or dots -->
  
  
  
  <!-- Eye -->
  <circle cx="195.5" cy="141.83333333333334" r="6" fill="white"/>
  <circle cx="196.5" cy="141.83333333333334" r="3.5" fill="#1E293B"/>
  <circle cx="197.5" cy="140.83333333333334" r="1.2" fill="white"/>
  
  <!-- Mouth -->
  <path d="M296.5,152 Q301.5,154 296.5,156" fill="none" stroke="#0891B2" stroke-width="1.5" opacity="0.6"/>
</svg>