<svg xmlns="http://www.w3.org/2000/svg" viewBox="0 0 400 300" width="400" height="300">
  <defs>
    <linearGradient id="bg5" x1="0%" y1="0%" x2="0%" y2="100%">
      <stop offset="0%" style="stop-color:#E0F7FA"/>
      <stop offset="100%" style="stop-color:#B2EBF2"/>
    </linearGradient>
    <radialGradient id="glow5" cx="60%" cy="20%" r="60%">
      <stop offset="0%" style="stop-color:white;stop-opacity:0.15"/>
      <stop offset="100%" style="stop-color:white;stop-opacity:0"/>
    </radialGradient>
  </defs>
  <rect width="400" height="300" rx="16" fill="url(#bg5)"/>
  <rect width="400" height="300" rx="16" fill="url(#glow5)"/>
  <!-- Sand -->
  <ellipse cx="200" cy="288" rx="200" ry="18" fill="#D4A574" opacity="0.25"/>
  <!-- Plants -->
  <path d="M60,285 Q55,255 62,235 Q58,245 55,260" stroke="#66BB6A" stroke-width="2" fill="none" opacity="0.4"/>
  <path d="M340,285 Q345,250 338,225 Q350,245 348,260" stroke="#43A047" stroke-width="2.5" fill="none" opacity="0.35"/>
  <!-- Bubbles -->
  <circle cx="320" cy="60" r="3" fill="white" opacity="0.15"/>
  <circle cx="335" cy="40" r="2" fill="white" opacity="0.1"/>
  <circle cx="310" cy="80" r="4" fill="white" opacity="0.12"/>
  <path d="M172,145 L160.8,128.8 L167.8,145 L160.8,161.2 Z" fill="#A1887F" opacity="0.8"/><path d="M194.4,127 L195.24,123.4 L196.08,127 L198.60000000000002,119.8 L199.44000000000003,127 L201.96,116.2 L202.8,127 L205.32000000000002,119.8 L206.16000000000003,127 L208.68,123.4 L209.52,127 " fill="#A1887F" opacity="0.6"/><path d="M172,147 Q172,127 200,127 Q228,127 228,147 L222.4,155.8 Q200,159.4 177.6,155.8 Z" fill="#8D6E63"/>
    <path d="M183.2,136 Q200,130.6 216.8,136" fill="#D7CCC8" opacity="0.3"/><circle cx="186" cy="139.6" r="2.5" fill="#D7CCC8" opacity="0.35"/><circle cx="195.8" cy="139.6" r="2.5" fill="#D7CCC8" opacity="0.35"/><circle cx="205.6" cy="139.6" r="2.5" fill="#D7CCC8" opacity="0.35"/><circle cx="215.4" cy="139.6" r="2.5" fill="#D7CCC8" opacity="0.35"/><circle cx="186" cy="148.6" r="2.5" fill="#D7CCC8" opacity="0.35"/><circle cx="195.8" cy="148.6" r="2.5" fill="#D7CCC8" opacity="0.35"/><circle cx="205.6" cy="148.6" r="2.5" fill="#D7CCC8" opacity="0.35"/><circle cx="215.4" cy="148.6" r="2.5" fill="#D7CCC8" opacity="0.35"/>
  <circle cx="215.5" cy="141.4" r="5" fill="white"/>
  <circle cx="216.5" cy="141.4" r="3" fill="#1E293B"/>
  <circle cx="217" cy="140.4" r="1.1" fill="white"/><path d="M226,147 Q234,153 238,151" fill="none" stroke="#D7CCC8" stroke-width="1" opacity="0.5"/>
    <path d="M226,149 Q232,155 236,155" fill="none" stroke="#D7CCC8" stroke-width="1" opacity="0.4"/>
</svg>