<svg xmlns="http://www.w3.org/2000/svg" viewBox="0 0 400 300" width="400" height="300">
  <defs>
    <linearGradient id="bg58" x1="0%" y1="0%" x2="0%" y2="100%">
      <stop offset="0%" style="stop-color:#F3E5F5"/>
      <stop offset="100%" style="stop-color:#E1BEE7"/>
    </linearGradient>
    <radialGradient id="glow58" cx="60%" cy="20%" r="60%">
      <stop offset="0%" style="stop-color:white;stop-opacity:0.15"/>
      <stop offset="100%" style="stop-color:white;stop-opacity:0"/>
    </radialGradient>
  </defs>
  <rect width="400" height="300" rx="16" fill="url(#bg58)"/>
  <rect width="400" height="300" rx="16" fill="url(#glow58)"/>
  <!-- Sand -->
  <ellipse cx="200" cy="288" rx="200" ry="18" fill="#D4A574" opacity="0.25"/>
  <!-- Plants -->
  <path d="M60,285 Q55,255 62,235 Q58,245 55,260" stroke="#66BB6A" stroke-width="2" fill="none" opacity="0.4"/>
  <path d="M340,285 Q345,250 338,225 Q350,245 348,260" stroke="#43A047" stroke-width="2.5" fill="none" opacity="0.35"/>
  <!-- Bubbles -->
  <circle cx="320" cy="60" r="3" fill="white" opacity="0.15"/>
  <circle cx="335" cy="40" r="2" fill="white" opacity="0.1"/>
  <circle cx="310" cy="80" r="4" fill="white" opacity="0.12"/>
  <path d="M160,145 L144,132.4 L154,145 L144,157.6 Z" fill="#FFD600" opacity="0.8"/><path d="M196,131 Q202,124 208,131" fill="#FFD600" opacity="0.6"/><ellipse cx="200" cy="145" rx="40" ry="14" fill="#E0E0E0"/>
    <ellipse cx="202" cy="142.9" rx="34" ry="8.4" fill="#BDBDBD" opacity="0.3"/><line x1="172" y1="138" x2="228" y2="138" stroke="#D32F2F" stroke-width="2" opacity="0.4"/><line x1="172" y1="142.9" x2="228" y2="142.9" stroke="#D32F2F" stroke-width="2" opacity="0.4"/><line x1="172" y1="147.8" x2="228" y2="147.8" stroke="#D32F2F" stroke-width="2" opacity="0.4"/><line x1="172" y1="152.7" x2="228" y2="152.7" stroke="#D32F2F" stroke-width="2" opacity="0.4"/>
  <circle cx="230" cy="142.2" r="4" fill="white"/>
  <circle cx="231" cy="142.2" r="2.4" fill="#1E293B"/>
  <circle cx="231.5" cy="141.39999999999998" r="0.88" fill="white"/><path d="M238,146 Q242,148 238,150" fill="none" stroke="#BDBDBD" stroke-width="1.2" opacity="0.4"/>
</svg>