<svg xmlns="http://www.w3.org/2000/svg" viewBox="0 0 400 300" width="400" height="300">
  <defs>
    <linearGradient id="bg60" x1="0%" y1="0%" x2="0%" y2="100%">
      <stop offset="0%" style="stop-color:#E0F2FE"/>
      <stop offset="100%" style="stop-color:#BAE6FD"/>
    </linearGradient>
    <radialGradient id="glow60" cx="60%" cy="20%" r="60%">
      <stop offset="0%" style="stop-color:white;stop-opacity:0.15"/>
      <stop offset="100%" style="stop-color:white;stop-opacity:0"/>
    </radialGradient>
  </defs>
  <rect width="400" height="300" rx="16" fill="url(#bg60)"/>
  <rect width="400" height="300" rx="16" fill="url(#glow60)"/>
  <!-- Sand -->
  <ellipse cx="200" cy="288" rx="200" ry="18" fill="#D4A574" opacity="0.25"/>
  <!-- Plants -->
  <path d="M60,285 Q55,255 62,235 Q58,245 55,260" stroke="#66BB6A" stroke-width="2" fill="none" opacity="0.4"/>
  <path d="M340,285 Q345,250 338,225 Q350,245 348,260" stroke="#43A047" stroke-width="2.5" fill="none" opacity="0.35"/>
  <!-- Bubbles -->
  <circle cx="320" cy="60" r="3" fill="white" opacity="0.15"/>
  <circle cx="335" cy="40" r="2" fill="white" opacity="0.1"/>
  <circle cx="310" cy="80" r="4" fill="white" opacity="0.12"/>
  <ellipse cx="149.6" cy="145" rx="10.5" ry="29.4" fill="#1976D2" opacity="0.7"/><path d="M179,103 Q200,82 212.6,103" fill="#1976D2" opacity="0.5"/><circle cx="200" cy="145" r="42" fill="#1565C0"/>
    <circle cx="203" cy="138.7" r="29.4" fill="#0D47A1" opacity="0.2"/>
  <circle cx="227" cy="136.6" r="6" fill="white"/>
  <circle cx="228" cy="136.6" r="3.5999999999999996" fill="#D32F2F"/>
  <circle cx="228.5" cy="135.4" r="1.32" fill="white"/><path d="M240,146 Q244,148 240,150" fill="none" stroke="#0D47A1" stroke-width="1.2" opacity="0.4"/>
</svg>