<svg xmlns="http://www.w3.org/2000/svg" viewBox="0 0 400 300" width="400" height="300">
  <defs>
    <linearGradient id="bg64" x1="0%" y1="0%" x2="0%" y2="100%">
      <stop offset="0%" style="stop-color:#F3E5F5"/>
      <stop offset="100%" style="stop-color:#E1BEE7"/>
    </linearGradient>
    <radialGradient id="glow64" cx="60%" cy="20%" r="60%">
      <stop offset="0%" style="stop-color:white;stop-opacity:0.15"/>
      <stop offset="100%" style="stop-color:white;stop-opacity:0"/>
    </radialGradient>
  </defs>
  <rect width="400" height="300" rx="16" fill="url(#bg64)"/>
  <rect width="400" height="300" rx="16" fill="url(#glow64)"/>
  <!-- Sand -->
  <ellipse cx="200" cy="288" rx="200" ry="18" fill="#D4A574" opacity="0.25"/>
  <!-- Plants -->
  <path d="M60,285 Q55,255 62,235 Q58,245 55,260" stroke="#66BB6A" stroke-width="2" fill="none" opacity="0.4"/>
  <path d="M340,285 Q345,250 338,225 Q350,245 348,260" stroke="#43A047" stroke-width="2.5" fill="none" opacity="0.35"/>
  <!-- Bubbles -->
  <circle cx="320" cy="60" r="3" fill="white" opacity="0.15"/>
  <circle cx="335" cy="40" r="2" fill="white" opacity="0.1"/>
  <circle cx="310" cy="80" r="4" fill="white" opacity="0.12"/>
  <ellipse cx="158" cy="145" rx="8.75" ry="19.599999999999998" fill="#01579B" opacity="0.7"/><path d="M196.5,117 L201.75,97.4 L207,117" fill="#01579B" opacity="0.6"/><ellipse cx="200" cy="145" rx="35" ry="28" fill="#E65100"/>
    <ellipse cx="203" cy="139.4" rx="24.5" ry="14" fill="#0D47A1" opacity="0.25"/><line x1="186" y1="125.4" x2="186" y2="164.6" stroke="#FF6F00" stroke-width="2.5" opacity="0.4"/><line x1="196.5" y1="125.4" x2="196.5" y2="164.6" stroke="#FF6F00" stroke-width="2.5" opacity="0.4"/><line x1="207" y1="125.4" x2="207" y2="164.6" stroke="#FF6F00" stroke-width="2.5" opacity="0.4"/><line x1="217.5" y1="125.4" x2="217.5" y2="164.6" stroke="#FF6F00" stroke-width="2.5" opacity="0.4"/>
  <circle cx="222.5" cy="139.4" r="5" fill="white"/>
  <circle cx="223.5" cy="139.4" r="3" fill="#1E293B"/>
  <circle cx="224" cy="138.4" r="1.1" fill="white"/><path d="M233,146 Q237,148 233,150" fill="none" stroke="#0D47A1" stroke-width="1.2" opacity="0.4"/>
</svg>