<svg xmlns="http://www.w3.org/2000/svg" viewBox="0 0 400 300" width="400" height="300">
  <defs>
    <linearGradient id="bg_13" x1="0%" y1="0%" x2="0%" y2="100%">
      <stop offset="0%" style="stop-color:#E0F2FE"/>
      <stop offset="100%" style="stop-color:#BAE6FD"/>
    </linearGradient>
    <linearGradient id="fish_13" x1="0%" y1="0%" x2="100%" y2="100%">
      <stop offset="0%" style="stop-color:#EF4444"/>
      <stop offset="100%" style="stop-color:#DC2626"/>
    </linearGradient>
    <radialGradient id="light_13" cx="50%" cy="0%" r="80%">
      <stop offset="0%" style="stop-color:white;stop-opacity:0.15"/>
      <stop offset="100%" style="stop-color:white;stop-opacity:0"/>
    </radialGradient>
  </defs>
  
  <!-- Background water -->
  <rect width="400" height="300" rx="16" fill="url(#bg_13)"/>
  <rect width="400" height="300" rx="16" fill="url(#light_13)"/>
  
  <!-- Sand/substrate -->
  <ellipse cx="200" cy="290" rx="210" ry="25" fill="#F5DEB3" opacity="0.4"/>
  
  <!-- Plants -->
  
  <path d="M64,285 Q56,250 59,230 Q69,240 64,285" fill="#86EFAC" opacity="0.5"/>
  <path d="M69,285 Q79,245 74,225 Q66,235 69,285" fill="#4ADE80" opacity="0.4"/>
  
  <path d="M164,285 Q156,240 159,215 Q169,230 164,285" fill="#86EFAC" opacity="0.5"/>
  <path d="M169,285 Q179,237 174,213 Q166,227 169,285" fill="#4ADE80" opacity="0.4"/>
  
  <path d="M264,285 Q256,230 259,200 Q269,220 264,285" fill="#86EFAC" opacity="0.5"/>
  <path d="M269,285 Q279,229 274,201 Q266,219 269,285" fill="#4ADE80" opacity="0.4"/>
  
  <path d="M364,285 Q356,220 359,185 Q369,210 364,285" fill="#86EFAC" opacity="0.5"/>
  <path d="M369,285 Q379,221 374,189 Q366,211 369,285" fill="#4ADE80" opacity="0.4"/>
  
  
  <!-- Bubbles -->
  <circle cx="264" cy="94" r="3" fill="white" opacity="0.15"/>
  <circle cx="289" cy="74" r="4" fill="white" opacity="0.2"/>
  <circle cx="314" cy="54" r="5" fill="white" opacity="0.25"/>
  <circle cx="339" cy="34" r="6" fill="white" opacity="0.30000000000000004"/>
  <circle cx="364" cy="14" r="7" fill="white" opacity="0.35"/>
  
  <!-- Fish body -->
  <ellipse cx="240" cy="150" rx="42" ry="32" fill="url(#fish_13)"/>
  
  <!-- Tail -->
  <path d="M198,150 L164,116 L164,184 Z" fill="#DC2626"/>
  
  <!-- Dorsal fin -->
  <path d="M230,118 Q240,99 260,118" fill="#DC2626" opacity="0.7"/>
  
  <!-- Ventral fin -->
  <path d="M240,182 Q245,194 225,190" fill="#DC2626" opacity="0.6"/>
  
  <!-- Pectoral fin -->
  <ellipse cx="254" cy="166" rx="10" ry="6" fill="#DC2626" opacity="0.5" transform="rotate(-20 254 166)"/>
  
  <!-- Stripes or dots -->
  
  
  
  <!-- Eye -->
  <circle cx="213" cy="139.33333333333334" r="6" fill="white"/>
  <circle cx="214" cy="139.33333333333334" r="3.5" fill="#1E293B"/>
  <circle cx="215" cy="138.33333333333334" r="1.2" fill="white"/>
  
  <!-- Mouth -->
  <path d="M279,152 Q284,154 279,156" fill="none" stroke="#DC2626" stroke-width="1.5" opacity="0.6"/>
</svg>