<svg xmlns="http://www.w3.org/2000/svg" viewBox="0 0 400 300" width="400" height="300">
  <defs>
    <linearGradient id="bg13" x1="0%" y1="0%" x2="0%" y2="100%">
      <stop offset="0%" style="stop-color:#E8F5E9"/>
      <stop offset="100%" style="stop-color:#C8E6C9"/>
    </linearGradient>
    <radialGradient id="glow13" cx="60%" cy="20%" r="60%">
      <stop offset="0%" style="stop-color:white;stop-opacity:0.15"/>
      <stop offset="100%" style="stop-color:white;stop-opacity:0"/>
    </radialGradient>
  </defs>
  <rect width="400" height="300" rx="16" fill="url(#bg13)"/>
  <rect width="400" height="300" rx="16" fill="url(#glow13)"/>
  <!-- Sand -->
  <ellipse cx="200" cy="288" rx="200" ry="18" fill="#D4A574" opacity="0.25"/>
  <!-- Plants -->
  <path d="M60,285 Q55,255 62,235 Q58,245 55,260" stroke="#66BB6A" stroke-width="2" fill="none" opacity="0.4"/>
  <path d="M340,285 Q345,250 338,225 Q350,245 348,260" stroke="#43A047" stroke-width="2.5" fill="none" opacity="0.35"/>
  <!-- Bubbles -->
  <circle cx="320" cy="60" r="3" fill="white" opacity="0.15"/>
  <circle cx="335" cy="40" r="2" fill="white" opacity="0.1"/>
  <circle cx="310" cy="80" r="4" fill="white" opacity="0.12"/>
  <path d="M180,145 L172,136 L177,145 L172,154 Z" fill="#FF8F00" opacity="0.8"/><path d="M198,135 Q201,130 204,135" fill="#FF8F00" opacity="0.6"/><ellipse cx="200" cy="145" rx="20" ry="10" fill="#FF6D00"/>
    <ellipse cx="202" cy="143.5" rx="17" ry="6" fill="#E65100" opacity="0.3"/>
  <circle cx="210" cy="143" r="4" fill="white"/>
  <circle cx="211" cy="143" r="2.4" fill="#1E293B"/>
  <circle cx="211.5" cy="142.2" r="0.88" fill="white"/><path d="M218,146 Q222,148 218,150" fill="none" stroke="#E65100" stroke-width="1.2" opacity="0.4"/>
</svg>