<svg xmlns="http://www.w3.org/2000/svg" viewBox="0 0 400 300" width="400" height="300">
  <defs>
    <linearGradient id="bg76" x1="0%" y1="0%" x2="0%" y2="100%">
      <stop offset="0%" style="stop-color:#F3E5F5"/>
      <stop offset="100%" style="stop-color:#E1BEE7"/>
    </linearGradient>
    <radialGradient id="glow76" cx="60%" cy="20%" r="60%">
      <stop offset="0%" style="stop-color:white;stop-opacity:0.15"/>
      <stop offset="100%" style="stop-color:white;stop-opacity:0"/>
    </radialGradient>
  </defs>
  <rect width="400" height="300" rx="16" fill="url(#bg76)"/>
  <rect width="400" height="300" rx="16" fill="url(#glow76)"/>
  <!-- Sand -->
  <ellipse cx="200" cy="288" rx="200" ry="18" fill="#D4A574" opacity="0.25"/>
  <!-- Plants -->
  <path d="M60,285 Q55,255 62,235 Q58,245 55,260" stroke="#66BB6A" stroke-width="2" fill="none" opacity="0.4"/>
  <path d="M340,285 Q345,250 338,225 Q350,245 348,260" stroke="#43A047" stroke-width="2.5" fill="none" opacity="0.35"/>
  <!-- Bubbles -->
  <circle cx="320" cy="60" r="3" fill="white" opacity="0.15"/>
  <circle cx="335" cy="40" r="2" fill="white" opacity="0.1"/>
  <circle cx="310" cy="80" r="4" fill="white" opacity="0.12"/>
  <ellipse cx="156.8" cy="145" rx="9" ry="16.799999999999997" fill="#90A4AE" opacity="0.7"/><path d="M192.8,121 L193.88000000000002,116.2 L194.96,121 L198.20000000000002,111.4 L199.28,121 L202.52,106.6 L203.6,121 L206.84000000000003,111.4 L207.92000000000002,121 L211.16000000000003,116.2 L212.24,121 " fill="#90A4AE" opacity="0.6"/><ellipse cx="200" cy="145" rx="36" ry="24" fill="#78909C"/>
    <ellipse cx="203" cy="140.2" rx="25.2" ry="12" fill="#546E7A" opacity="0.25"/><ellipse cx="207.2" cy="157" rx="10.799999999999999" ry="8.399999999999999" fill="#D32F2F" opacity="0.5"/>
  <circle cx="223.5" cy="140.2" r="5" fill="white"/>
  <circle cx="224.5" cy="140.2" r="3" fill="#1E293B"/>
  <circle cx="225" cy="139.2" r="1.1" fill="white"/><path d="M234,146 Q238,148 234,150" fill="none" stroke="#546E7A" stroke-width="1.2" opacity="0.4"/>
</svg>