<svg xmlns="http://www.w3.org/2000/svg" viewBox="0 0 400 300" width="400" height="300">
  <defs>
    <linearGradient id="bg_35" x1="0%" y1="0%" x2="0%" y2="100%">
      <stop offset="0%" style="stop-color:#E0F2FE"/>
      <stop offset="100%" style="stop-color:#BAE6FD"/>
    </linearGradient>
    <linearGradient id="fish_35" x1="0%" y1="0%" x2="100%" y2="100%">
      <stop offset="0%" style="stop-color:#D946EF"/>
      <stop offset="100%" style="stop-color:#C026D3"/>
    </linearGradient>
    <radialGradient id="light_35" cx="50%" cy="0%" r="80%">
      <stop offset="0%" style="stop-color:white;stop-opacity:0.15"/>
      <stop offset="100%" style="stop-color:white;stop-opacity:0"/>
    </radialGradient>
  </defs>
  
  <!-- Background water -->
  <rect width="400" height="300" rx="16" fill="url(#bg_35)"/>
  <rect width="400" height="300" rx="16" fill="url(#light_35)"/>
  
  <!-- Sand/substrate -->
  <ellipse cx="200" cy="290" rx="210" ry="25" fill="#F5DEB3" opacity="0.4"/>
  
  <!-- Plants -->
  
  <path d="M76,285 Q68,250 71,230 Q81,240 76,285" fill="#86EFAC" opacity="0.5"/>
  <path d="M81,285 Q91,245 86,225 Q78,235 81,285" fill="#4ADE80" opacity="0.4"/>
  
  <path d="M176,285 Q168,240 171,215 Q181,230 176,285" fill="#86EFAC" opacity="0.5"/>
  <path d="M181,285 Q191,237 186,213 Q178,227 181,285" fill="#4ADE80" opacity="0.4"/>
  
  
  <!-- Bubbles -->
  <circle cx="266" cy="86" r="3" fill="white" opacity="0.15"/>
  <circle cx="291" cy="66" r="4" fill="white" opacity="0.2"/>
  <circle cx="316" cy="46" r="5" fill="white" opacity="0.25"/>
  
  <!-- Fish body -->
  <ellipse cx="240" cy="150" rx="48" ry="30.5" fill="url(#fish_35)"/>
  
  <!-- Tail -->
  <path d="M192,150 L166,124 L166,176 Z" fill="#C026D3"/>
  
  <!-- Dorsal fin -->
  
  
  <!-- Ventral fin -->
  <path d="M240,180.5 Q245,192.5 225,188.5" fill="#C026D3" opacity="0.6"/>
  
  <!-- Pectoral fin -->
  <ellipse cx="256" cy="165.25" rx="10" ry="6" fill="#C026D3" opacity="0.5" transform="rotate(-20 256 165.25)"/>
  
  <!-- Stripes or dots -->
  <line x1="208" y1="124.5" x2="208" y2="175.5" stroke="#E879F9" stroke-width="3" opacity="0.4"/><line x1="240" y1="124.5" x2="240" y2="175.5" stroke="#E879F9" stroke-width="3" opacity="0.4"/><line x1="272" y1="124.5" x2="272" y2="175.5" stroke="#E879F9" stroke-width="3" opacity="0.4"/>
  
  
  <!-- Eye -->
  <circle cx="207" cy="139.83333333333334" r="6" fill="white"/>
  <circle cx="208" cy="139.83333333333334" r="3.5" fill="#1E293B"/>
  <circle cx="209" cy="138.83333333333334" r="1.2" fill="white"/>
  
  <!-- Mouth -->
  <path d="M285,152 Q290,154 285,156" fill="none" stroke="#C026D3" stroke-width="1.5" opacity="0.6"/>
</svg>