<svg xmlns="http://www.w3.org/2000/svg" viewBox="0 0 400 300" width="400" height="300">
  <defs>
    <linearGradient id="bg80" x1="0%" y1="0%" x2="0%" y2="100%">
      <stop offset="0%" style="stop-color:#FFF3E0"/>
      <stop offset="100%" style="stop-color:#FFE0B2"/>
    </linearGradient>
    <radialGradient id="glow80" cx="60%" cy="20%" r="60%">
      <stop offset="0%" style="stop-color:white;stop-opacity:0.15"/>
      <stop offset="100%" style="stop-color:white;stop-opacity:0"/>
    </radialGradient>
  </defs>
  <rect width="400" height="300" rx="16" fill="url(#bg80)"/>
  <rect width="400" height="300" rx="16" fill="url(#glow80)"/>
  <!-- Sand -->
  <ellipse cx="200" cy="288" rx="200" ry="18" fill="#D4A574" opacity="0.25"/>
  <!-- Plants -->
  <path d="M60,285 Q55,255 62,235 Q58,245 55,260" stroke="#66BB6A" stroke-width="2" fill="none" opacity="0.4"/>
  <path d="M340,285 Q345,250 338,225 Q350,245 348,260" stroke="#43A047" stroke-width="2.5" fill="none" opacity="0.35"/>
  <!-- Bubbles -->
  <circle cx="320" cy="60" r="3" fill="white" opacity="0.15"/>
  <circle cx="335" cy="40" r="2" fill="white" opacity="0.1"/>
  <circle cx="310" cy="80" r="4" fill="white" opacity="0.12"/>
  <ellipse cx="142.4" cy="145" rx="12" ry="23.799999999999997" fill="#B71C1C" opacity="0.7"/><path d="M176,111 Q200,94 214.4,111" fill="#B71C1C" opacity="0.5"/><ellipse cx="200" cy="145" rx="48" ry="34" fill="#D32F2F"/>
    <ellipse cx="203" cy="138.2" rx="33.599999999999994" ry="17" fill="#C62828" opacity="0.25"/><ellipse cx="214.4" cy="103" rx="12" ry="10" fill="#D32F2F" opacity="0.8"/>
  <circle cx="233" cy="138.2" r="6" fill="white"/>
  <circle cx="234" cy="138.2" r="3.5999999999999996" fill="#1E293B"/>
  <circle cx="234.5" cy="137" r="1.32" fill="white"/><path d="M246,146 Q250,148 246,150" fill="none" stroke="#C62828" stroke-width="1.2" opacity="0.4"/>
</svg>