<svg xmlns="http://www.w3.org/2000/svg" viewBox="0 0 400 300" width="400" height="300">
  <defs>
    <linearGradient id="bg97" x1="0%" y1="0%" x2="0%" y2="100%">
      <stop offset="0%" style="stop-color:#E8F5E9"/>
      <stop offset="100%" style="stop-color:#C8E6C9"/>
    </linearGradient>
    <radialGradient id="glow97" cx="60%" cy="20%" r="60%">
      <stop offset="0%" style="stop-color:white;stop-opacity:0.15"/>
      <stop offset="100%" style="stop-color:white;stop-opacity:0"/>
    </radialGradient>
  </defs>
  <rect width="400" height="300" rx="16" fill="url(#bg97)"/>
  <rect width="400" height="300" rx="16" fill="url(#glow97)"/>
  <!-- Sand -->
  <ellipse cx="200" cy="288" rx="200" ry="18" fill="#D4A574" opacity="0.25"/>
  <!-- Plants -->
  <path d="M60,285 Q55,255 62,235 Q58,245 55,260" stroke="#66BB6A" stroke-width="2" fill="none" opacity="0.4"/>
  <path d="M340,285 Q345,250 338,225 Q350,245 348,260" stroke="#43A047" stroke-width="2.5" fill="none" opacity="0.35"/>
  <!-- Bubbles -->
  <circle cx="320" cy="60" r="3" fill="white" opacity="0.15"/>
  <circle cx="335" cy="40" r="2" fill="white" opacity="0.1"/>
  <circle cx="310" cy="80" r="4" fill="white" opacity="0.12"/>
  <path d="M166,145 L152.4,136 L160.9,145 L152.4,154 Z" fill="rgba(220,220,220,0.3)" opacity="0.8"/><path d="M196.6,135 Q201.7,132 206.8,135" fill="rgba(220,220,220,0.3)" opacity="0.6"/><ellipse cx="200" cy="145" rx="34" ry="10" fill="rgba(200,200,200,0.3)"/>
    <ellipse cx="202" cy="143.5" rx="28.9" ry="6" fill="rgba(180,180,180,0.2)" opacity="0.3"/><line x1="179.6" y1="145" x2="220.4" y2="145" stroke="#9E9E9E" stroke-width="1" opacity="0.4"/><line x1="183" y1="143" x2="183" y2="147" stroke="#BDBDBD" stroke-width="0.5" opacity="0.3"/><line x1="188.1" y1="143" x2="188.1" y2="147" stroke="#BDBDBD" stroke-width="0.5" opacity="0.3"/><line x1="193.2" y1="143" x2="193.2" y2="147" stroke="#BDBDBD" stroke-width="0.5" opacity="0.3"/><line x1="198.3" y1="143" x2="198.3" y2="147" stroke="#BDBDBD" stroke-width="0.5" opacity="0.3"/><line x1="203.4" y1="143" x2="203.4" y2="147" stroke="#BDBDBD" stroke-width="0.5" opacity="0.3"/><line x1="208.5" y1="143" x2="208.5" y2="147" stroke="#BDBDBD" stroke-width="0.5" opacity="0.3"/><line x1="213.6" y1="143" x2="213.6" y2="147" stroke="#BDBDBD" stroke-width="0.5" opacity="0.3"/><line x1="218.7" y1="143" x2="218.7" y2="147" stroke="#BDBDBD" stroke-width="0.5" opacity="0.3"/>
  <circle cx="224" cy="143" r="4" fill="white"/>
  <circle cx="225" cy="143" r="2.4" fill="#1E293B"/>
  <circle cx="225.5" cy="142.2" r="0.88" fill="white"/><path d="M232,147 Q240,153 244,151" fill="none" stroke="#E0E0E0" stroke-width="1" opacity="0.5"/>
    <path d="M232,149 Q238,155 242,155" fill="none" stroke="#E0E0E0" stroke-width="1" opacity="0.4"/>
</svg>