<svg xmlns="http://www.w3.org/2000/svg" viewBox="0 0 400 300" width="400" height="300">
  <defs>
    <linearGradient id="bg2" x1="0%" y1="0%" x2="0%" y2="100%">
      <stop offset="0%" style="stop-color:#FFF3E0"/>
      <stop offset="100%" style="stop-color:#FFE0B2"/>
    </linearGradient>
    <radialGradient id="glow2" cx="60%" cy="20%" r="60%">
      <stop offset="0%" style="stop-color:white;stop-opacity:0.15"/>
      <stop offset="100%" style="stop-color:white;stop-opacity:0"/>
    </radialGradient>
  </defs>
  <rect width="400" height="300" rx="16" fill="url(#bg2)"/>
  <rect width="400" height="300" rx="16" fill="url(#glow2)"/>
  <!-- Sand -->
  <ellipse cx="200" cy="288" rx="200" ry="18" fill="#D4A574" opacity="0.25"/>
  <!-- Plants -->
  <path d="M60,285 Q55,255 62,235 Q58,245 55,260" stroke="#66BB6A" stroke-width="2" fill="none" opacity="0.4"/>
  <path d="M340,285 Q345,250 338,225 Q350,245 348,260" stroke="#43A047" stroke-width="2.5" fill="none" opacity="0.35"/>
  <!-- Bubbles -->
  <circle cx="320" cy="60" r="3" fill="white" opacity="0.15"/>
  <circle cx="335" cy="40" r="2" fill="white" opacity="0.1"/>
  <circle cx="310" cy="80" r="4" fill="white" opacity="0.12"/>
  <path d="M156,134.2 Q134,101.80000000000001 138.4,137.8 Q142.8,145 138.4,152.2 Q134,188.2 156,155.8" fill="#FFA000" opacity="0.6"/><path d="M186.8,109 Q195.6,80.2 204.4,83.8 Q213.2,91 213.2,109" fill="#FFA000" opacity="0.5"/><ellipse cx="200" cy="145" rx="44" ry="36" fill="#FF8F00"/>
    <ellipse cx="204" cy="137.8" rx="26.4" ry="16.2" fill="#FFD54F" opacity="0.2"/>
  <circle cx="229" cy="137.8" r="6" fill="white"/>
  <circle cx="230" cy="137.8" r="3.5999999999999996" fill="#1E293B"/>
  <circle cx="230.5" cy="136.60000000000002" r="1.32" fill="white"/><path d="M242,146 Q246,148 242,150" fill="none" stroke="#F57F17" stroke-width="1.2" opacity="0.4"/>
</svg>