<svg xmlns="http://www.w3.org/2000/svg" viewBox="0 0 400 300" width="400" height="300">
  <defs>
    <linearGradient id="bg_2" x1="0%" y1="0%" x2="0%" y2="100%">
      <stop offset="0%" style="stop-color:#E0F2FE"/>
      <stop offset="100%" style="stop-color:#BAE6FD"/>
    </linearGradient>
    <linearGradient id="fish_2" x1="0%" y1="0%" x2="100%" y2="100%">
      <stop offset="0%" style="stop-color:#F59E0B"/>
      <stop offset="100%" style="stop-color:#D97706"/>
    </linearGradient>
    <radialGradient id="light_2" cx="50%" cy="0%" r="80%">
      <stop offset="0%" style="stop-color:white;stop-opacity:0.15"/>
      <stop offset="100%" style="stop-color:white;stop-opacity:0"/>
    </radialGradient>
  </defs>
  
  <!-- Background water -->
  <rect width="400" height="300" rx="16" fill="url(#bg_2)"/>
  <rect width="400" height="300" rx="16" fill="url(#light_2)"/>
  
  <!-- Sand/substrate -->
  <ellipse cx="200" cy="290" rx="210" ry="25" fill="#F5DEB3" opacity="0.4"/>
  
  <!-- Plants -->
  
  <path d="M60,285 Q52,250 55,230 Q65,240 60,285" fill="#86EFAC" opacity="0.5"/>
  <path d="M65,285 Q75,245 70,225 Q62,235 65,285" fill="#4ADE80" opacity="0.4"/>
  
  <path d="M160,285 Q152,240 155,215 Q165,230 160,285" fill="#86EFAC" opacity="0.5"/>
  <path d="M165,285 Q175,237 170,213 Q162,227 165,285" fill="#4ADE80" opacity="0.4"/>
  
  
  <!-- Bubbles -->
  <circle cx="260" cy="80" r="3" fill="white" opacity="0.15"/>
  <circle cx="285" cy="60" r="4" fill="white" opacity="0.2"/>
  <circle cx="310" cy="40" r="5" fill="white" opacity="0.25"/>
  
  <!-- Fish body -->
  <ellipse cx="240" cy="150" rx="40" ry="30" fill="url(#fish_2)"/>
  
  <!-- Tail -->
  <path d="M200,150 L180,130 L180,170 Z" fill="#D97706"/>
  
  <!-- Dorsal fin -->
  
  
  <!-- Ventral fin -->
  <path d="M240,180 Q245,192 225,188" fill="#D97706" opacity="0.6"/>
  
  <!-- Pectoral fin -->
  <ellipse cx="253.33333333333334" cy="165" rx="10" ry="6" fill="#D97706" opacity="0.5" transform="rotate(-20 253.33333333333334 165)"/>
  
  <!-- Stripes or dots -->
  <line x1="213.33333333333334" y1="125" x2="213.33333333333334" y2="175" stroke="#FCD34D" stroke-width="3" opacity="0.4"/><line x1="240" y1="125" x2="240" y2="175" stroke="#FCD34D" stroke-width="3" opacity="0.4"/><line x1="266.6666666666667" y1="125" x2="266.6666666666667" y2="175" stroke="#FCD34D" stroke-width="3" opacity="0.4"/>
  <circle cx="213.33333333333334" cy="135" r="3" fill="#FCD34D" opacity="0.35"/><circle cx="233.33333333333334" cy="155" r="3" fill="#FCD34D" opacity="0.35"/><circle cx="253.33333333333334" cy="135" r="3" fill="#FCD34D" opacity="0.35"/><circle cx="273.33333333333337" cy="155" r="3" fill="#FCD34D" opacity="0.35"/><circle cx="293.33333333333337" cy="135" r="3" fill="#FCD34D" opacity="0.35"/>
  
  <!-- Eye -->
  <circle cx="215" cy="140" r="6" fill="white"/>
  <circle cx="216" cy="140" r="3.5" fill="#1E293B"/>
  <circle cx="217" cy="139" r="1.2" fill="white"/>
  
  <!-- Mouth -->
  <path d="M277,152 Q282,154 277,156" fill="none" stroke="#D97706" stroke-width="1.5" opacity="0.6"/>
</svg>