<svg xmlns="http://www.w3.org/2000/svg" viewBox="0 0 400 300" width="400" height="300">
  <defs>
    <linearGradient id="bg57" x1="0%" y1="0%" x2="0%" y2="100%">
      <stop offset="0%" style="stop-color:#E3F2FD"/>
      <stop offset="100%" style="stop-color:#BBDEFB"/>
    </linearGradient>
    <radialGradient id="glow57" cx="60%" cy="20%" r="60%">
      <stop offset="0%" style="stop-color:white;stop-opacity:0.15"/>
      <stop offset="100%" style="stop-color:white;stop-opacity:0"/>
    </radialGradient>
  </defs>
  <rect width="400" height="300" rx="16" fill="url(#bg57)"/>
  <rect width="400" height="300" rx="16" fill="url(#glow57)"/>
  <!-- Sand -->
  <ellipse cx="200" cy="288" rx="200" ry="18" fill="#D4A574" opacity="0.25"/>
  <!-- Plants -->
  <path d="M60,285 Q55,255 62,235 Q58,245 55,260" stroke="#66BB6A" stroke-width="2" fill="none" opacity="0.4"/>
  <path d="M340,285 Q345,250 338,225 Q350,245 348,260" stroke="#43A047" stroke-width="2.5" fill="none" opacity="0.35"/>
  <!-- Bubbles -->
  <circle cx="320" cy="60" r="3" fill="white" opacity="0.15"/>
  <circle cx="335" cy="40" r="2" fill="white" opacity="0.1"/>
  <circle cx="310" cy="80" r="4" fill="white" opacity="0.12"/>
  <path d="M178,145 L169.2,136 L174.7,145 L169.2,154 Z" fill="#E8F5E9" opacity="0.8"/><path d="M197.8,135 Q201.1,130 204.4,135" fill="#E8F5E9" opacity="0.6"/><ellipse cx="200" cy="145" rx="22" ry="10" fill="#C8E6C9"/>
    <ellipse cx="202" cy="143.5" rx="18.7" ry="6" fill="#A5D6A7" opacity="0.3"/><line x1="184.6" y1="143" x2="215.4" y2="143" stroke="#00E676" stroke-width="3" opacity="0.9"/>
  <circle cx="214.5" cy="143" r="3" fill="white"/>
  <circle cx="215.5" cy="143" r="1.7999999999999998" fill="#1E293B"/>
  <circle cx="216" cy="142.4" r="0.66" fill="white"/><path d="M220,146 Q224,148 220,150" fill="none" stroke="#A5D6A7" stroke-width="1.2" opacity="0.4"/>
</svg>