<svg xmlns="http://www.w3.org/2000/svg" viewBox="0 0 400 300" width="400" height="300">
  <defs>
    <linearGradient id="bg_57" x1="0%" y1="0%" x2="0%" y2="100%">
      <stop offset="0%" style="stop-color:#E0F2FE"/>
      <stop offset="100%" style="stop-color:#BAE6FD"/>
    </linearGradient>
    <linearGradient id="fish_57" x1="0%" y1="0%" x2="100%" y2="100%">
      <stop offset="0%" style="stop-color:#6366F1"/>
      <stop offset="100%" style="stop-color:#4F46E5"/>
    </linearGradient>
    <radialGradient id="light_57" cx="50%" cy="0%" r="80%">
      <stop offset="0%" style="stop-color:white;stop-opacity:0.15"/>
      <stop offset="100%" style="stop-color:white;stop-opacity:0"/>
    </radialGradient>
  </defs>
  
  <!-- Background water -->
  <rect width="400" height="300" rx="16" fill="url(#bg_57)"/>
  <rect width="400" height="300" rx="16" fill="url(#light_57)"/>
  
  <!-- Sand/substrate -->
  <ellipse cx="200" cy="290" rx="210" ry="25" fill="#F5DEB3" opacity="0.4"/>
  
  <!-- Plants -->
  
  <path d="M65,285 Q57,250 60,230 Q70,240 65,285" fill="#86EFAC" opacity="0.5"/>
  <path d="M70,285 Q80,245 75,225 Q67,235 70,285" fill="#4ADE80" opacity="0.4"/>
  
  <path d="M165,285 Q157,240 160,215 Q170,230 165,285" fill="#86EFAC" opacity="0.5"/>
  <path d="M170,285 Q180,237 175,213 Q167,227 170,285" fill="#4ADE80" opacity="0.4"/>
  
  
  <!-- Bubbles -->
  <circle cx="265" cy="80" r="4" fill="white" opacity="0.15"/>
  <circle cx="290" cy="60" r="5" fill="white" opacity="0.2"/>
  <circle cx="315" cy="40" r="6" fill="white" opacity="0.25"/>
  
  <!-- Fish body -->
  <ellipse cx="240" cy="150" rx="42.5" ry="27.5" fill="url(#fish_57)"/>
  
  <!-- Tail -->
  <path d="M197.5,150 L177.5,130 L177.5,170 Z" fill="#4F46E5"/>
  
  <!-- Dorsal fin -->
  
  
  <!-- Ventral fin -->
  
  
  <!-- Pectoral fin -->
  <ellipse cx="254.16666666666666" cy="163.75" rx="10" ry="6" fill="#4F46E5" opacity="0.5" transform="rotate(-20 254.16666666666666 163.75)"/>
  
  <!-- Stripes or dots -->
  <line x1="211.66666666666666" y1="127.5" x2="211.66666666666666" y2="172.5" stroke="#A5B4FC" stroke-width="3" opacity="0.4"/><line x1="240" y1="127.5" x2="240" y2="172.5" stroke="#A5B4FC" stroke-width="3" opacity="0.4"/><line x1="268.3333333333333" y1="127.5" x2="268.3333333333333" y2="172.5" stroke="#A5B4FC" stroke-width="3" opacity="0.4"/>
  <circle cx="211.66666666666666" cy="136.25" r="3" fill="#A5B4FC" opacity="0.35"/><circle cx="232.91666666666666" cy="154.58333333333334" r="3" fill="#A5B4FC" opacity="0.35"/><circle cx="254.16666666666666" cy="136.25" r="3" fill="#A5B4FC" opacity="0.35"/><circle cx="275.41666666666663" cy="154.58333333333334" r="3" fill="#A5B4FC" opacity="0.35"/><circle cx="296.66666666666663" cy="136.25" r="3" fill="#A5B4FC" opacity="0.35"/>
  
  <!-- Eye -->
  <circle cx="212.5" cy="140.83333333333334" r="6" fill="white"/>
  <circle cx="213.5" cy="140.83333333333334" r="3.5" fill="#1E293B"/>
  <circle cx="214.5" cy="139.83333333333334" r="1.2" fill="white"/>
  
  <!-- Mouth -->
  <path d="M279.5,152 Q284.5,154 279.5,156" fill="none" stroke="#4F46E5" stroke-width="1.5" opacity="0.6"/>
</svg>