<svg xmlns="http://www.w3.org/2000/svg" viewBox="0 0 400 300" width="400" height="300">
  <defs>
    <linearGradient id="bg_3" x1="0%" y1="0%" x2="0%" y2="100%">
      <stop offset="0%" style="stop-color:#E0F2FE"/>
      <stop offset="100%" style="stop-color:#BAE6FD"/>
    </linearGradient>
    <linearGradient id="fish_3" x1="0%" y1="0%" x2="100%" y2="100%">
      <stop offset="0%" style="stop-color:#8B5CF6"/>
      <stop offset="100%" style="stop-color:#7C3AED"/>
    </linearGradient>
    <radialGradient id="light_3" cx="50%" cy="0%" r="80%">
      <stop offset="0%" style="stop-color:white;stop-opacity:0.15"/>
      <stop offset="100%" style="stop-color:white;stop-opacity:0"/>
    </radialGradient>
  </defs>
  
  <!-- Background water -->
  <rect width="400" height="300" rx="16" fill="url(#bg_3)"/>
  <rect width="400" height="300" rx="16" fill="url(#light_3)"/>
  
  <!-- Sand/substrate -->
  <ellipse cx="200" cy="290" rx="210" ry="25" fill="#F5DEB3" opacity="0.4"/>
  
  <!-- Plants -->
  
  <path d="M95,285 Q87,250 90,230 Q100,240 95,285" fill="#86EFAC" opacity="0.5"/>
  <path d="M100,285 Q110,245 105,225 Q97,235 100,285" fill="#4ADE80" opacity="0.4"/>
  
  <path d="M195,285 Q187,240 190,215 Q200,230 195,285" fill="#86EFAC" opacity="0.5"/>
  <path d="M200,285 Q210,237 205,213 Q197,227 200,285" fill="#4ADE80" opacity="0.4"/>
  
  <path d="M295,285 Q287,230 290,200 Q300,220 295,285" fill="#86EFAC" opacity="0.5"/>
  <path d="M300,285 Q310,229 305,201 Q297,219 300,285" fill="#4ADE80" opacity="0.4"/>
  
  
  <!-- Bubbles -->
  <circle cx="265" cy="90" r="6" fill="white" opacity="0.15"/>
  <circle cx="290" cy="70" r="7" fill="white" opacity="0.2"/>
  <circle cx="315" cy="50" r="8" fill="white" opacity="0.25"/>
  <circle cx="340" cy="30" r="9" fill="white" opacity="0.30000000000000004"/>
  
  <!-- Fish body -->
  <ellipse cx="240" cy="150" rx="57.5" ry="25" fill="url(#fish_3)"/>
  
  <!-- Tail -->
  <path d="M182.5,150 L152.5,120 L152.5,180 Z" fill="#7C3AED"/>
  
  <!-- Dorsal fin -->
  <path d="M230,125 Q240,95 260,125" fill="#7C3AED" opacity="0.7"/>
  
  <!-- Ventral fin -->
  
  
  <!-- Pectoral fin -->
  <ellipse cx="259.1666666666667" cy="162.5" rx="10" ry="6" fill="#7C3AED" opacity="0.5" transform="rotate(-20 259.1666666666667 162.5)"/>
  
  <!-- Stripes or dots -->
  
  <circle cx="201.66666666666666" cy="137.5" r="3" fill="#A78BFA" opacity="0.35"/><circle cx="230.41666666666666" cy="154.16666666666666" r="3" fill="#A78BFA" opacity="0.35"/><circle cx="259.16666666666663" cy="137.5" r="3" fill="#A78BFA" opacity="0.35"/><circle cx="287.91666666666663" cy="154.16666666666666" r="3" fill="#A78BFA" opacity="0.35"/><circle cx="316.66666666666663" cy="137.5" r="3" fill="#A78BFA" opacity="0.35"/>
  
  <!-- Eye -->
  <circle cx="197.5" cy="141.66666666666666" r="6" fill="white"/>
  <circle cx="198.5" cy="141.66666666666666" r="3.5" fill="#1E293B"/>
  <circle cx="199.5" cy="140.66666666666666" r="1.2" fill="white"/>
  
  <!-- Mouth -->
  <path d="M294.5,152 Q299.5,154 294.5,156" fill="none" stroke="#7C3AED" stroke-width="1.5" opacity="0.6"/>
</svg>