<svg xmlns="http://www.w3.org/2000/svg" viewBox="0 0 400 300" width="400" height="300">
  <defs>
    <linearGradient id="bg11" x1="0%" y1="0%" x2="0%" y2="100%">
      <stop offset="0%" style="stop-color:#E0F7FA"/>
      <stop offset="100%" style="stop-color:#B2EBF2"/>
    </linearGradient>
    <radialGradient id="glow11" cx="60%" cy="20%" r="60%">
      <stop offset="0%" style="stop-color:white;stop-opacity:0.15"/>
      <stop offset="100%" style="stop-color:white;stop-opacity:0"/>
    </radialGradient>
  </defs>
  <rect width="400" height="300" rx="16" fill="url(#bg11)"/>
  <rect width="400" height="300" rx="16" fill="url(#glow11)"/>
  <!-- Sand -->
  <ellipse cx="200" cy="288" rx="200" ry="18" fill="#D4A574" opacity="0.25"/>
  <!-- Plants -->
  <path d="M60,285 Q55,255 62,235 Q58,245 55,260" stroke="#66BB6A" stroke-width="2" fill="none" opacity="0.4"/>
  <path d="M340,285 Q345,250 338,225 Q350,245 348,260" stroke="#43A047" stroke-width="2.5" fill="none" opacity="0.35"/>
  <!-- Bubbles -->
  <circle cx="320" cy="60" r="3" fill="white" opacity="0.15"/>
  <circle cx="335" cy="40" r="2" fill="white" opacity="0.1"/>
  <circle cx="310" cy="80" r="4" fill="white" opacity="0.12"/>
  <path d="M174,145 L163.6,132.4 L170.1,145 L163.6,157.6 Z" fill="#FFAB91" opacity="0.8"/><path d="M197.4,131 Q201.3,124 205.2,131" fill="#FFAB91" opacity="0.6"/><ellipse cx="200" cy="145" rx="26" ry="14" fill="#FF8A65"/>
    <ellipse cx="202" cy="142.9" rx="22.099999999999998" ry="8.4" fill="#FF7043" opacity="0.3"/><path d="M200,138 L190.9,149.2 L202.6,149.2 Z" fill="#212121" opacity="0.5"/>
  <circle cx="216" cy="142.2" r="4" fill="white"/>
  <circle cx="217" cy="142.2" r="2.4" fill="#1E293B"/>
  <circle cx="217.5" cy="141.39999999999998" r="0.88" fill="white"/><path d="M224,146 Q228,148 224,150" fill="none" stroke="#FF7043" stroke-width="1.2" opacity="0.4"/>
</svg>