<svg xmlns="http://www.w3.org/2000/svg" viewBox="0 0 400 300" width="400" height="300">
  <defs>
    <linearGradient id="bg112" x1="0%" y1="0%" x2="0%" y2="100%">
      <stop offset="0%" style="stop-color:#F3E5F5"/>
      <stop offset="100%" style="stop-color:#E1BEE7"/>
    </linearGradient>
    <radialGradient id="glow112" cx="60%" cy="20%" r="60%">
      <stop offset="0%" style="stop-color:white;stop-opacity:0.15"/>
      <stop offset="100%" style="stop-color:white;stop-opacity:0"/>
    </radialGradient>
  </defs>
  <rect width="400" height="300" rx="16" fill="url(#bg112)"/>
  <rect width="400" height="300" rx="16" fill="url(#glow112)"/>
  <!-- Sand -->
  <ellipse cx="200" cy="288" rx="200" ry="18" fill="#D4A574" opacity="0.25"/>
  <!-- Plants -->
  <path d="M60,285 Q55,255 62,235 Q58,245 55,260" stroke="#66BB6A" stroke-width="2" fill="none" opacity="0.4"/>
  <path d="M340,285 Q345,250 338,225 Q350,245 348,260" stroke="#43A047" stroke-width="2.5" fill="none" opacity="0.35"/>
  <!-- Bubbles -->
  <circle cx="320" cy="60" r="3" fill="white" opacity="0.15"/>
  <circle cx="335" cy="40" r="2" fill="white" opacity="0.1"/>
  <circle cx="310" cy="80" r="4" fill="white" opacity="0.12"/>
  <path d="M170,145 L159.5,138 L159.5,152 Z" fill="#8D6E63" opacity="0.7"/><path d="M197,135 Q201.5,130 206,135" fill="#8D6E63" opacity="0.6"/><ellipse cx="200" cy="145" rx="30" ry="10" fill="#795548"/><circle cx="185" cy="142" r="2.5" fill="#FFEB3B" opacity="0.35"/><circle cx="195.5" cy="142" r="2.5" fill="#FFEB3B" opacity="0.35"/><circle cx="206" cy="142" r="2.5" fill="#FFEB3B" opacity="0.35"/><circle cx="216.5" cy="142" r="2.5" fill="#FFEB3B" opacity="0.35"/><circle cx="185" cy="147" r="2.5" fill="#FFEB3B" opacity="0.35"/><circle cx="195.5" cy="147" r="2.5" fill="#FFEB3B" opacity="0.35"/><circle cx="206" cy="147" r="2.5" fill="#FFEB3B" opacity="0.35"/><circle cx="216.5" cy="147" r="2.5" fill="#FFEB3B" opacity="0.35"/>
  <circle cx="222.5" cy="143" r="3" fill="white"/>
  <circle cx="223.5" cy="143" r="1.7999999999999998" fill="#1E293B"/>
  <circle cx="224" cy="142.4" r="0.66" fill="white"/><path d="M228,146 Q232,148 228,150" fill="none" stroke="#5D4037" stroke-width="1.2" opacity="0.4"/>
</svg>