<svg xmlns="http://www.w3.org/2000/svg" viewBox="0 0 400 300" width="400" height="300">
  <defs>
    <linearGradient id="bg_42" x1="0%" y1="0%" x2="0%" y2="100%">
      <stop offset="0%" style="stop-color:#E0F2FE"/>
      <stop offset="100%" style="stop-color:#BAE6FD"/>
    </linearGradient>
    <linearGradient id="fish_42" x1="0%" y1="0%" x2="100%" y2="100%">
      <stop offset="0%" style="stop-color:#10B981"/>
      <stop offset="100%" style="stop-color:#059669"/>
    </linearGradient>
    <radialGradient id="light_42" cx="50%" cy="0%" r="80%">
      <stop offset="0%" style="stop-color:white;stop-opacity:0.15"/>
      <stop offset="100%" style="stop-color:white;stop-opacity:0"/>
    </radialGradient>
  </defs>
  
  <!-- Background water -->
  <rect width="400" height="300" rx="16" fill="url(#bg_42)"/>
  <rect width="400" height="300" rx="16" fill="url(#light_42)"/>
  
  <!-- Sand/substrate -->
  <ellipse cx="200" cy="290" rx="210" ry="25" fill="#F5DEB3" opacity="0.4"/>
  
  <!-- Plants -->
  
  <path d="M86,285 Q78,250 81,230 Q91,240 86,285" fill="#86EFAC" opacity="0.5"/>
  <path d="M91,285 Q101,245 96,225 Q88,235 91,285" fill="#4ADE80" opacity="0.4"/>
  
  <path d="M186,285 Q178,240 181,215 Q191,230 186,285" fill="#86EFAC" opacity="0.5"/>
  <path d="M191,285 Q201,237 196,213 Q188,227 191,285" fill="#4ADE80" opacity="0.4"/>
  
  
  <!-- Bubbles -->
  <circle cx="266" cy="86" r="5" fill="white" opacity="0.15"/>
  <circle cx="291" cy="66" r="6" fill="white" opacity="0.2"/>
  <circle cx="316" cy="46" r="7" fill="white" opacity="0.25"/>
  
  <!-- Fish body -->
  <ellipse cx="240" cy="150" rx="53" ry="25.5" fill="url(#fish_42)"/>
  
  <!-- Tail -->
  <path d="M187,150 L161,124 L161,176 Z" fill="#059669"/>
  
  <!-- Dorsal fin -->
  
  
  <!-- Ventral fin -->
  <path d="M240,175.5 Q245,187.5 225,183.5" fill="#059669" opacity="0.6"/>
  
  <!-- Pectoral fin -->
  <ellipse cx="257.6666666666667" cy="162.75" rx="10" ry="6" fill="#059669" opacity="0.5" transform="rotate(-20 257.6666666666667 162.75)"/>
  
  <!-- Stripes or dots -->
  <line x1="204.66666666666666" y1="129.5" x2="204.66666666666666" y2="170.5" stroke="#6EE7B7" stroke-width="3" opacity="0.4"/><line x1="240" y1="129.5" x2="240" y2="170.5" stroke="#6EE7B7" stroke-width="3" opacity="0.4"/><line x1="275.3333333333333" y1="129.5" x2="275.3333333333333" y2="170.5" stroke="#6EE7B7" stroke-width="3" opacity="0.4"/>
  
  
  <!-- Eye -->
  <circle cx="202" cy="141.5" r="6" fill="white"/>
  <circle cx="203" cy="141.5" r="3.5" fill="#1E293B"/>
  <circle cx="204" cy="140.5" r="1.2" fill="white"/>
  
  <!-- Mouth -->
  <path d="M290,152 Q295,154 290,156" fill="none" stroke="#059669" stroke-width="1.5" opacity="0.6"/>
</svg>