<svg xmlns="http://www.w3.org/2000/svg" viewBox="0 0 400 300" width="400" height="300">
  <defs>
    <linearGradient id="bg34" x1="0%" y1="0%" x2="0%" y2="100%">
      <stop offset="0%" style="stop-color:#F3E5F5"/>
      <stop offset="100%" style="stop-color:#E1BEE7"/>
    </linearGradient>
    <radialGradient id="glow34" cx="60%" cy="20%" r="60%">
      <stop offset="0%" style="stop-color:white;stop-opacity:0.15"/>
      <stop offset="100%" style="stop-color:white;stop-opacity:0"/>
    </radialGradient>
  </defs>
  <rect width="400" height="300" rx="16" fill="url(#bg34)"/>
  <rect width="400" height="300" rx="16" fill="url(#glow34)"/>
  <!-- Sand -->
  <ellipse cx="200" cy="288" rx="200" ry="18" fill="#D4A574" opacity="0.25"/>
  <!-- Plants -->
  <path d="M60,285 Q55,255 62,235 Q58,245 55,260" stroke="#66BB6A" stroke-width="2" fill="none" opacity="0.4"/>
  <path d="M340,285 Q345,250 338,225 Q350,245 348,260" stroke="#43A047" stroke-width="2.5" fill="none" opacity="0.35"/>
  <!-- Bubbles -->
  <circle cx="320" cy="60" r="3" fill="white" opacity="0.15"/>
  <circle cx="335" cy="40" r="2" fill="white" opacity="0.1"/>
  <circle cx="310" cy="80" r="4" fill="white" opacity="0.12"/>
  <ellipse cx="147.2" cy="145" rx="11" ry="21" fill="#388E3C" opacity="0.7"/><path d="M191.2,115 L192.51999999999998,109 L193.83999999999997,115 L197.79999999999998,103 L199.11999999999998,115 L203.07999999999998,97 L204.39999999999998,115 L208.35999999999999,103 L209.67999999999998,115 L213.64,109 L214.95999999999998,115 " fill="#388E3C" opacity="0.6"/><ellipse cx="200" cy="145" rx="44" ry="30" fill="#1B5E20"/>
    <ellipse cx="203" cy="139" rx="30.799999999999997" ry="15" fill="#2E7D32" opacity="0.25"/>
  <circle cx="231.5" cy="139" r="5" fill="white"/>
  <circle cx="232.5" cy="139" r="3" fill="#1E293B"/>
  <circle cx="233" cy="138" r="1.1" fill="white"/><path d="M242,146 Q246,148 242,150" fill="none" stroke="#2E7D32" stroke-width="1.2" opacity="0.4"/>
</svg>