<svg xmlns="http://www.w3.org/2000/svg" viewBox="0 0 400 300" width="400" height="300">
  <defs>
    <linearGradient id="bg129" x1="0%" y1="0%" x2="0%" y2="100%">
      <stop offset="0%" style="stop-color:#E3F2FD"/>
      <stop offset="100%" style="stop-color:#BBDEFB"/>
    </linearGradient>
    <radialGradient id="glow129" cx="60%" cy="20%" r="60%">
      <stop offset="0%" style="stop-color:white;stop-opacity:0.15"/>
      <stop offset="100%" style="stop-color:white;stop-opacity:0"/>
    </radialGradient>
  </defs>
  <rect width="400" height="300" rx="16" fill="url(#bg129)"/>
  <rect width="400" height="300" rx="16" fill="url(#glow129)"/>
  <!-- Sand -->
  <ellipse cx="200" cy="288" rx="200" ry="18" fill="#D4A574" opacity="0.25"/>
  <!-- Plants -->
  <path d="M60,285 Q55,255 62,235 Q58,245 55,260" stroke="#66BB6A" stroke-width="2" fill="none" opacity="0.4"/>
  <path d="M340,285 Q345,250 338,225 Q350,245 348,260" stroke="#43A047" stroke-width="2.5" fill="none" opacity="0.35"/>
  <!-- Bubbles -->
  <circle cx="320" cy="60" r="3" fill="white" opacity="0.15"/>
  <circle cx="335" cy="40" r="2" fill="white" opacity="0.1"/>
  <circle cx="310" cy="80" r="4" fill="white" opacity="0.12"/>
  <path d="M150,145 L132.5,139.4 L132.5,150.6 Z" fill="#FFB300" opacity="0.7"/><path d="M195,137 Q202.5,134.6 210,137" fill="#FFB300" opacity="0.6"/><ellipse cx="200" cy="145" rx="50" ry="8" fill="#FF8F00" rx="8"/>
    <ellipse cx="200" cy="143.4" rx="45" ry="4" fill="#E65100" opacity="0.3"/>
  <circle cx="242.5" cy="143.4" r="3" fill="white"/>
  <circle cx="243.5" cy="143.4" r="1.7999999999999998" fill="#1E293B"/>
  <circle cx="244" cy="142.8" r="0.66" fill="white"/><path d="M248,146 Q252,148 248,150" fill="none" stroke="#E65100" stroke-width="1.2" opacity="0.4"/>
</svg>