<svg xmlns="http://www.w3.org/2000/svg" viewBox="0 0 400 300" width="400" height="300">
  <defs>
    <linearGradient id="bg19" x1="0%" y1="0%" x2="0%" y2="100%">
      <stop offset="0%" style="stop-color:#E8F5E9"/>
      <stop offset="100%" style="stop-color:#C8E6C9"/>
    </linearGradient>
    <radialGradient id="glow19" cx="60%" cy="20%" r="60%">
      <stop offset="0%" style="stop-color:white;stop-opacity:0.15"/>
      <stop offset="100%" style="stop-color:white;stop-opacity:0"/>
    </radialGradient>
  </defs>
  <rect width="400" height="300" rx="16" fill="url(#bg19)"/>
  <rect width="400" height="300" rx="16" fill="url(#glow19)"/>
  <!-- Sand -->
  <ellipse cx="200" cy="288" rx="200" ry="18" fill="#D4A574" opacity="0.25"/>
  <!-- Plants -->
  <path d="M60,285 Q55,255 62,235 Q58,245 55,260" stroke="#66BB6A" stroke-width="2" fill="none" opacity="0.4"/>
  <path d="M340,285 Q345,250 338,225 Q350,245 348,260" stroke="#43A047" stroke-width="2.5" fill="none" opacity="0.35"/>
  <!-- Bubbles -->
  <circle cx="320" cy="60" r="3" fill="white" opacity="0.15"/>
  <circle cx="335" cy="40" r="2" fill="white" opacity="0.1"/>
  <circle cx="310" cy="80" r="4" fill="white" opacity="0.12"/>
  <path d="M168,136 Q152,123.4 155.2,145 Q152,166.6 168,154" fill="#616161" opacity="0.7"/><path d="M190.4,127 Q196.8,107.2 204.8,112.6 Q209.6,119.8 211.2,127" fill="#616161" opacity="0.5"/><ellipse cx="200" cy="145" rx="32" ry="18" fill="#212121"/>
    <ellipse cx="203" cy="141.4" rx="22.4" ry="9" fill="#424242" opacity="0.25"/>
  <circle cx="219.5" cy="141.4" r="5" fill="white"/>
  <circle cx="220.5" cy="141.4" r="3" fill="#1E293B"/>
  <circle cx="221" cy="140.4" r="1.1" fill="white"/><path d="M230,146 Q234,148 230,150" fill="none" stroke="#424242" stroke-width="1.2" opacity="0.4"/>
</svg>