<svg xmlns="http://www.w3.org/2000/svg" viewBox="0 0 400 300" width="400" height="300">
  <defs>
    <linearGradient id="bg287" x1="0%" y1="0%" x2="0%" y2="100%">
      <stop offset="0%" style="stop-color:#E0F7FA"/>
      <stop offset="100%" style="stop-color:#B2EBF2"/>
    </linearGradient>
    <radialGradient id="glow287" cx="60%" cy="20%" r="60%">
      <stop offset="0%" style="stop-color:white;stop-opacity:0.15"/>
      <stop offset="100%" style="stop-color:white;stop-opacity:0"/>
    </radialGradient>
  </defs>
  <rect width="400" height="300" rx="16" fill="url(#bg287)"/>
  <rect width="400" height="300" rx="16" fill="url(#glow287)"/>
  <!-- Sand -->
  <ellipse cx="200" cy="288" rx="200" ry="18" fill="#D4A574" opacity="0.25"/>
  <!-- Plants -->
  <path d="M60,285 Q55,255 62,235 Q58,245 55,260" stroke="#66BB6A" stroke-width="2" fill="none" opacity="0.4"/>
  <path d="M340,285 Q345,250 338,225 Q350,245 348,260" stroke="#43A047" stroke-width="2.5" fill="none" opacity="0.35"/>
  <!-- Bubbles -->
  <circle cx="320" cy="60" r="3" fill="white" opacity="0.15"/>
  <circle cx="335" cy="40" r="2" fill="white" opacity="0.1"/>
  <circle cx="310" cy="80" r="4" fill="white" opacity="0.12"/>
  
    <!-- Foot -->
    <ellipse cx="208" cy="161" rx="24" ry="8" fill="#5D4037" opacity="0.5"/>
    <!-- Shell -->
    <circle cx="200" cy="145" r="22" fill="#FFB300"/>
    <circle cx="202" cy="143" r="16" fill="#FF8F00" opacity="0.4"/>
    <!-- Spiral -->
    <path d="M208,145 A8,8 0 1,0 200,137 A5,5 0 1,0 205,145" fill="none" stroke="#5D4037" stroke-width="1.5" opacity="0.4"/>
    <!-- Tentacles -->
    <line x1="220" y1="153" x2="232" y2="145" stroke="#5D4037" stroke-width="1.5" opacity="0.5"/>
    <line x1="222" y1="155" x2="235" y2="150" stroke="#5D4037" stroke-width="1.5" opacity="0.5"/>
    <!-- Eyes on stalks -->
    <circle cx="232" cy="144" r="2" fill="#212121"/>
    <circle cx="233" cy="143.5" r="0.7" fill="white"/>
</svg>