<svg xmlns="http://www.w3.org/2000/svg" viewBox="0 0 400 300" width="400" height="300">
  <defs>
    <linearGradient id="bg1" x1="0%" y1="0%" x2="0%" y2="100%">
      <stop offset="0%" style="stop-color:#E8F5E9"/>
      <stop offset="100%" style="stop-color:#C8E6C9"/>
    </linearGradient>
    <radialGradient id="glow1" cx="60%" cy="20%" r="60%">
      <stop offset="0%" style="stop-color:white;stop-opacity:0.15"/>
      <stop offset="100%" style="stop-color:white;stop-opacity:0"/>
    </radialGradient>
  </defs>
  <rect width="400" height="300" rx="16" fill="url(#bg1)"/>
  <rect width="400" height="300" rx="16" fill="url(#glow1)"/>
  <!-- Sand -->
  <ellipse cx="200" cy="288" rx="200" ry="18" fill="#D4A574" opacity="0.25"/>
  <!-- Plants -->
  <path d="M60,285 Q55,255 62,235 Q58,245 55,260" stroke="#66BB6A" stroke-width="2" fill="none" opacity="0.4"/>
  <path d="M340,285 Q345,250 338,225 Q350,245 348,260" stroke="#43A047" stroke-width="2.5" fill="none" opacity="0.35"/>
  <!-- Bubbles -->
  <circle cx="320" cy="60" r="3" fill="white" opacity="0.15"/>
  <circle cx="335" cy="40" r="2" fill="white" opacity="0.1"/>
  <circle cx="310" cy="80" r="4" fill="white" opacity="0.12"/>
  <path d="M174,145 L163.6,134.2 L170.1,145 L163.6,155.8 Z" fill="#F5F5F5" opacity="0.8"/><path d="M197.4,133 Q201.3,127 205.2,133" fill="#F5F5F5" opacity="0.6"/><ellipse cx="200" cy="145" rx="26" ry="12" fill="#BDBDBD"/>
    <ellipse cx="202" cy="143.2" rx="22.099999999999998" ry="7.199999999999999" fill="#E0E0E0" opacity="0.3"/><line x1="181.8" y1="142.6" x2="218.2" y2="142.6" stroke="#2196F3" stroke-width="3" opacity="0.9"/><path d="M194.8,146.2 Q187,151 174,145" fill="#D32F2F" opacity="0.6"/>
  <circle cx="216" cy="142.6" r="4" fill="white"/>
  <circle cx="217" cy="142.6" r="2.4" fill="#1E293B"/>
  <circle cx="217.5" cy="141.79999999999998" r="0.88" fill="white"/><path d="M224,146 Q228,148 224,150" fill="none" stroke="#E0E0E0" stroke-width="1.2" opacity="0.4"/>
</svg>