<svg xmlns="http://www.w3.org/2000/svg" viewBox="0 0 400 300" width="400" height="300">
  <defs>
    <linearGradient id="bg15" x1="0%" y1="0%" x2="0%" y2="100%">
      <stop offset="0%" style="stop-color:#E3F2FD"/>
      <stop offset="100%" style="stop-color:#BBDEFB"/>
    </linearGradient>
    <radialGradient id="glow15" cx="60%" cy="20%" r="60%">
      <stop offset="0%" style="stop-color:white;stop-opacity:0.15"/>
      <stop offset="100%" style="stop-color:white;stop-opacity:0"/>
    </radialGradient>
  </defs>
  <rect width="400" height="300" rx="16" fill="url(#bg15)"/>
  <rect width="400" height="300" rx="16" fill="url(#glow15)"/>
  <!-- Sand -->
  <ellipse cx="200" cy="288" rx="200" ry="18" fill="#D4A574" opacity="0.25"/>
  <!-- Plants -->
  <path d="M60,285 Q55,255 62,235 Q58,245 55,260" stroke="#66BB6A" stroke-width="2" fill="none" opacity="0.4"/>
  <path d="M340,285 Q345,250 338,225 Q350,245 348,260" stroke="#43A047" stroke-width="2.5" fill="none" opacity="0.35"/>
  <!-- Bubbles -->
  <circle cx="320" cy="60" r="3" fill="white" opacity="0.15"/>
  <circle cx="335" cy="40" r="2" fill="white" opacity="0.1"/>
  <circle cx="310" cy="80" r="4" fill="white" opacity="0.12"/>
  <ellipse cx="140" cy="145" rx="12.5" ry="23.799999999999997" fill="#4E342E" opacity="0.7"/><path d="M175,111 Q200,94 215,111" fill="#4E342E" opacity="0.5"/><ellipse cx="200" cy="145" rx="50" ry="34" fill="#3E2723"/>
    <ellipse cx="203" cy="138.2" rx="35" ry="17" fill="#212121" opacity="0.25"/><circle cx="165" cy="145" r="6" fill="#212121" opacity="0.5"/>
    <circle cx="165" cy="145" r="3" fill="#FF6D00" opacity="0.7"/>
  <circle cx="235" cy="138.2" r="6" fill="white"/>
  <circle cx="236" cy="138.2" r="3.5999999999999996" fill="#1E293B"/>
  <circle cx="236.5" cy="137" r="1.32" fill="white"/><path d="M248,146 Q252,148 248,150" fill="none" stroke="#212121" stroke-width="1.2" opacity="0.4"/>
</svg>