<svg xmlns="http://www.w3.org/2000/svg" viewBox="0 0 400 300" width="400" height="300">
  <defs>
    <linearGradient id="bg_9" x1="0%" y1="0%" x2="0%" y2="100%">
      <stop offset="0%" style="stop-color:#E0F2FE"/>
      <stop offset="100%" style="stop-color:#BAE6FD"/>
    </linearGradient>
    <linearGradient id="fish_9" x1="0%" y1="0%" x2="100%" y2="100%">
      <stop offset="0%" style="stop-color:#6366F1"/>
      <stop offset="100%" style="stop-color:#4F46E5"/>
    </linearGradient>
    <radialGradient id="light_9" cx="50%" cy="0%" r="80%">
      <stop offset="0%" style="stop-color:white;stop-opacity:0.15"/>
      <stop offset="100%" style="stop-color:white;stop-opacity:0"/>
    </radialGradient>
  </defs>
  
  <!-- Background water -->
  <rect width="400" height="300" rx="16" fill="url(#bg_9)"/>
  <rect width="400" height="300" rx="16" fill="url(#light_9)"/>
  
  <!-- Sand/substrate -->
  <ellipse cx="200" cy="290" rx="210" ry="25" fill="#F5DEB3" opacity="0.4"/>
  
  <!-- Plants -->
  
  <path d="M73,285 Q65,250 68,230 Q78,240 73,285" fill="#86EFAC" opacity="0.5"/>
  <path d="M78,285 Q88,245 83,225 Q75,235 78,285" fill="#4ADE80" opacity="0.4"/>
  
  <path d="M173,285 Q165,240 168,215 Q178,230 173,285" fill="#86EFAC" opacity="0.5"/>
  <path d="M178,285 Q188,237 183,213 Q175,227 178,285" fill="#4ADE80" opacity="0.4"/>
  
  
  <!-- Bubbles -->
  <circle cx="263" cy="83" r="4" fill="white" opacity="0.15"/>
  <circle cx="288" cy="63" r="5" fill="white" opacity="0.2"/>
  <circle cx="313" cy="43" r="6" fill="white" opacity="0.25"/>
  
  <!-- Fish body -->
  <ellipse cx="240" cy="150" rx="46.5" ry="29" fill="url(#fish_9)"/>
  
  <!-- Tail -->
  <path d="M193.5,150 L170.5,127 L170.5,173 Z" fill="#4F46E5"/>
  
  <!-- Dorsal fin -->
  
  
  <!-- Ventral fin -->
  
  
  <!-- Pectoral fin -->
  <ellipse cx="255.5" cy="164.5" rx="10" ry="6" fill="#4F46E5" opacity="0.5" transform="rotate(-20 255.5 164.5)"/>
  
  <!-- Stripes or dots -->
  <line x1="209" y1="126" x2="209" y2="174" stroke="#A5B4FC" stroke-width="3" opacity="0.4"/><line x1="240" y1="126" x2="240" y2="174" stroke="#A5B4FC" stroke-width="3" opacity="0.4"/><line x1="271" y1="126" x2="271" y2="174" stroke="#A5B4FC" stroke-width="3" opacity="0.4"/>
  
  
  <!-- Eye -->
  <circle cx="208.5" cy="140.33333333333334" r="6" fill="white"/>
  <circle cx="209.5" cy="140.33333333333334" r="3.5" fill="#1E293B"/>
  <circle cx="210.5" cy="139.33333333333334" r="1.2" fill="white"/>
  
  <!-- Mouth -->
  <path d="M283.5,152 Q288.5,154 283.5,156" fill="none" stroke="#4F46E5" stroke-width="1.5" opacity="0.6"/>
</svg>