<svg xmlns="http://www.w3.org/2000/svg" viewBox="0 0 400 300" width="400" height="300">
  <defs>
    <linearGradient id="bg73" x1="0%" y1="0%" x2="0%" y2="100%">
      <stop offset="0%" style="stop-color:#E8F5E9"/>
      <stop offset="100%" style="stop-color:#C8E6C9"/>
    </linearGradient>
    <radialGradient id="glow73" cx="60%" cy="20%" r="60%">
      <stop offset="0%" style="stop-color:white;stop-opacity:0.15"/>
      <stop offset="100%" style="stop-color:white;stop-opacity:0"/>
    </radialGradient>
  </defs>
  <rect width="400" height="300" rx="16" fill="url(#bg73)"/>
  <rect width="400" height="300" rx="16" fill="url(#glow73)"/>
  <!-- Sand -->
  <ellipse cx="200" cy="288" rx="200" ry="18" fill="#D4A574" opacity="0.25"/>
  <!-- Plants -->
  <path d="M60,285 Q55,255 62,235 Q58,245 55,260" stroke="#66BB6A" stroke-width="2" fill="none" opacity="0.4"/>
  <path d="M340,285 Q345,250 338,225 Q350,245 348,260" stroke="#43A047" stroke-width="2.5" fill="none" opacity="0.35"/>
  <!-- Bubbles -->
  <circle cx="320" cy="60" r="3" fill="white" opacity="0.15"/>
  <circle cx="335" cy="40" r="2" fill="white" opacity="0.1"/>
  <circle cx="310" cy="80" r="4" fill="white" opacity="0.12"/>
  <path d="M176,145 L166.4,130.6 L172.4,145 L166.4,159.4 Z" fill="#FFF8E1" opacity="0.8"/><path d="M195.2,129 L195.92,125.8 L196.64,129 L198.79999999999998,122.6 L199.51999999999998,129 L201.67999999999998,119.4 L202.39999999999998,129 L204.55999999999997,122.6 L205.27999999999997,129 L207.44,125.8 L208.16,129 " fill="#FFF8E1" opacity="0.6"/><path d="M176,147 Q176,129 200,129 Q224,129 224,147 L219.2,154.6 Q200,157.8 180.8,154.6 Z" fill="#FFECB3"/>
    <path d="M185.6,137 Q200,132.2 214.4,137" fill="#212121" opacity="0.3"/>
  <circle cx="211.5" cy="141.8" r="5" fill="white"/>
  <circle cx="212.5" cy="141.8" r="3" fill="#1E293B"/>
  <circle cx="213" cy="140.8" r="1.1" fill="white"/><path d="M222,147 Q230,153 234,151" fill="none" stroke="#212121" stroke-width="1" opacity="0.5"/>
    <path d="M222,149 Q228,155 232,155" fill="none" stroke="#212121" stroke-width="1" opacity="0.4"/>
</svg>