<svg xmlns="http://www.w3.org/2000/svg" viewBox="0 0 400 300" width="400" height="300">
  <defs>
    <linearGradient id="bg54" x1="0%" y1="0%" x2="0%" y2="100%">
      <stop offset="0%" style="stop-color:#E0F2FE"/>
      <stop offset="100%" style="stop-color:#BAE6FD"/>
    </linearGradient>
    <radialGradient id="glow54" cx="60%" cy="20%" r="60%">
      <stop offset="0%" style="stop-color:white;stop-opacity:0.15"/>
      <stop offset="100%" style="stop-color:white;stop-opacity:0"/>
    </radialGradient>
  </defs>
  <rect width="400" height="300" rx="16" fill="url(#bg54)"/>
  <rect width="400" height="300" rx="16" fill="url(#glow54)"/>
  <!-- Sand -->
  <ellipse cx="200" cy="288" rx="200" ry="18" fill="#D4A574" opacity="0.25"/>
  <!-- Plants -->
  <path d="M60,285 Q55,255 62,235 Q58,245 55,260" stroke="#66BB6A" stroke-width="2" fill="none" opacity="0.4"/>
  <path d="M340,285 Q345,250 338,225 Q350,245 348,260" stroke="#43A047" stroke-width="2.5" fill="none" opacity="0.35"/>
  <!-- Bubbles -->
  <circle cx="320" cy="60" r="3" fill="white" opacity="0.15"/>
  <circle cx="335" cy="40" r="2" fill="white" opacity="0.1"/>
  <circle cx="310" cy="80" r="4" fill="white" opacity="0.12"/>
  <path d="M162,133 Q143,116.2 146.8,145 Q143,173.8 162,157" fill="#3F51B5" opacity="0.7"/><path d="M192.4,121 L193.54,116.2 L194.68,121 L198.1,111.4 L199.24,121 L202.66,106.6 L203.8,121 L207.22,111.4 L208.36,121 L211.78,116.2 L212.92000000000002,121 " fill="#3F51B5" opacity="0.6"/><ellipse cx="200" cy="145" rx="38" ry="24" fill="#1A237E"/>
    <ellipse cx="203" cy="140.2" rx="26.599999999999998" ry="12" fill="#283593" opacity="0.25"/><ellipse cx="205" cy="140.2" rx="19" ry="9.600000000000001" fill="white" opacity="0.12"/><ellipse cx="195" cy="147.4" rx="11.4" ry="6" fill="white" opacity="0.08"/>
  <circle cx="225.5" cy="140.2" r="5" fill="white"/>
  <circle cx="226.5" cy="140.2" r="3" fill="#1E293B"/>
  <circle cx="227" cy="139.2" r="1.1" fill="white"/><path d="M236,146 Q240,148 236,150" fill="none" stroke="#283593" stroke-width="1.2" opacity="0.4"/>
</svg>