<svg xmlns="http://www.w3.org/2000/svg" viewBox="0 0 400 300" width="400" height="300">
  <defs>
    <linearGradient id="bg158" x1="0%" y1="0%" x2="0%" y2="100%">
      <stop offset="0%" style="stop-color:#FFF3E0"/>
      <stop offset="100%" style="stop-color:#FFE0B2"/>
    </linearGradient>
    <radialGradient id="glow158" cx="60%" cy="20%" r="60%">
      <stop offset="0%" style="stop-color:white;stop-opacity:0.15"/>
      <stop offset="100%" style="stop-color:white;stop-opacity:0"/>
    </radialGradient>
  </defs>
  <rect width="400" height="300" rx="16" fill="url(#bg158)"/>
  <rect width="400" height="300" rx="16" fill="url(#glow158)"/>
  <!-- Sand -->
  <ellipse cx="200" cy="288" rx="200" ry="18" fill="#D4A574" opacity="0.25"/>
  <!-- Plants -->
  <path d="M60,285 Q55,255 62,235 Q58,245 55,260" stroke="#66BB6A" stroke-width="2" fill="none" opacity="0.4"/>
  <path d="M340,285 Q345,250 338,225 Q350,245 348,260" stroke="#43A047" stroke-width="2.5" fill="none" opacity="0.35"/>
  <!-- Bubbles -->
  <circle cx="320" cy="60" r="3" fill="white" opacity="0.15"/>
  <circle cx="335" cy="40" r="2" fill="white" opacity="0.1"/>
  <circle cx="310" cy="80" r="4" fill="white" opacity="0.12"/>
  <ellipse cx="152" cy="145" rx="10" ry="19.599999999999998" fill="#BF360C" opacity="0.7"/><path d="M196,117 L202,97.4 L208,117" fill="#BF360C" opacity="0.6"/><ellipse cx="200" cy="145" rx="40" ry="28" fill="#FFAB91"/>
    <ellipse cx="203" cy="139.4" rx="28" ry="14" fill="#E65100" opacity="0.25"/><circle cx="180" cy="136.6" r="2" fill="#FFFFFF" opacity="0.35"/><circle cx="194" cy="136.6" r="2" fill="#FFFFFF" opacity="0.35"/><circle cx="208" cy="136.6" r="2" fill="#FFFFFF" opacity="0.35"/><circle cx="222" cy="136.6" r="2" fill="#FFFFFF" opacity="0.35"/><circle cx="180" cy="150.6" r="2" fill="#FFFFFF" opacity="0.35"/><circle cx="194" cy="150.6" r="2" fill="#FFFFFF" opacity="0.35"/><circle cx="208" cy="150.6" r="2" fill="#FFFFFF" opacity="0.35"/><circle cx="222" cy="150.6" r="2" fill="#FFFFFF" opacity="0.35"/>
  <circle cx="227.5" cy="139.4" r="5" fill="white"/>
  <circle cx="228.5" cy="139.4" r="3" fill="#1E293B"/>
  <circle cx="229" cy="138.4" r="1.1" fill="white"/><path d="M238,146 Q242,148 238,150" fill="none" stroke="#E65100" stroke-width="1.2" opacity="0.4"/>
</svg>