<svg xmlns="http://www.w3.org/2000/svg" viewBox="0 0 400 300" width="400" height="300">
  <defs>
    <linearGradient id="bg_41" x1="0%" y1="0%" x2="0%" y2="100%">
      <stop offset="0%" style="stop-color:#E0F2FE"/>
      <stop offset="100%" style="stop-color:#BAE6FD"/>
    </linearGradient>
    <linearGradient id="fish_41" x1="0%" y1="0%" x2="100%" y2="100%">
      <stop offset="0%" style="stop-color:#06B6D4"/>
      <stop offset="100%" style="stop-color:#0891B2"/>
    </linearGradient>
    <radialGradient id="light_41" cx="50%" cy="0%" r="80%">
      <stop offset="0%" style="stop-color:white;stop-opacity:0.15"/>
      <stop offset="100%" style="stop-color:white;stop-opacity:0"/>
    </radialGradient>
  </defs>
  
  <!-- Background water -->
  <rect width="400" height="300" rx="16" fill="url(#bg_41)"/>
  <rect width="400" height="300" rx="16" fill="url(#light_41)"/>
  
  <!-- Sand/substrate -->
  <ellipse cx="200" cy="290" rx="210" ry="25" fill="#F5DEB3" opacity="0.4"/>
  
  <!-- Plants -->
  
  <path d="M85,285 Q77,250 80,230 Q90,240 85,285" fill="#86EFAC" opacity="0.5"/>
  <path d="M90,285 Q100,245 95,225 Q87,235 90,285" fill="#4ADE80" opacity="0.4"/>
  
  <path d="M185,285 Q177,240 180,215 Q190,230 185,285" fill="#86EFAC" opacity="0.5"/>
  <path d="M190,285 Q200,237 195,213 Q187,227 190,285" fill="#4ADE80" opacity="0.4"/>
  
  
  <!-- Bubbles -->
  <circle cx="265" cy="80" r="4" fill="white" opacity="0.15"/>
  <circle cx="290" cy="60" r="5" fill="white" opacity="0.2"/>
  <circle cx="315" cy="40" r="6" fill="white" opacity="0.25"/>
  
  <!-- Fish body -->
  <ellipse cx="240" cy="150" rx="52.5" ry="20" fill="url(#fish_41)"/>
  
  <!-- Tail -->
  <path d="M187.5,150 L167.5,130 L167.5,170 Z" fill="#0891B2"/>
  
  <!-- Dorsal fin -->
  
  
  <!-- Ventral fin -->
  
  
  <!-- Pectoral fin -->
  <ellipse cx="257.5" cy="160" rx="10" ry="6" fill="#0891B2" opacity="0.5" transform="rotate(-20 257.5 160)"/>
  
  <!-- Stripes or dots -->
  <line x1="205" y1="135" x2="205" y2="165" stroke="#67E8F9" stroke-width="3" opacity="0.4"/><line x1="240" y1="135" x2="240" y2="165" stroke="#67E8F9" stroke-width="3" opacity="0.4"/><line x1="275" y1="135" x2="275" y2="165" stroke="#67E8F9" stroke-width="3" opacity="0.4"/>
  <circle cx="205" cy="140" r="3" fill="#67E8F9" opacity="0.35"/><circle cx="231.25" cy="153.33333333333334" r="3" fill="#67E8F9" opacity="0.35"/><circle cx="257.5" cy="140" r="3" fill="#67E8F9" opacity="0.35"/><circle cx="283.75" cy="153.33333333333334" r="3" fill="#67E8F9" opacity="0.35"/><circle cx="310" cy="140" r="3" fill="#67E8F9" opacity="0.35"/>
  
  <!-- Eye -->
  <circle cx="202.5" cy="143.33333333333334" r="6" fill="white"/>
  <circle cx="203.5" cy="143.33333333333334" r="3.5" fill="#1E293B"/>
  <circle cx="204.5" cy="142.33333333333334" r="1.2" fill="white"/>
  
  <!-- Mouth -->
  <path d="M289.5,152 Q294.5,154 289.5,156" fill="none" stroke="#0891B2" stroke-width="1.5" opacity="0.6"/>
</svg>