<svg xmlns="http://www.w3.org/2000/svg" viewBox="0 0 400 300" width="400" height="300">
  <defs>
    <linearGradient id="bg65" x1="0%" y1="0%" x2="0%" y2="100%">
      <stop offset="0%" style="stop-color:#E0F7FA"/>
      <stop offset="100%" style="stop-color:#B2EBF2"/>
    </linearGradient>
    <radialGradient id="glow65" cx="60%" cy="20%" r="60%">
      <stop offset="0%" style="stop-color:white;stop-opacity:0.15"/>
      <stop offset="100%" style="stop-color:white;stop-opacity:0"/>
    </radialGradient>
  </defs>
  <rect width="400" height="300" rx="16" fill="url(#bg65)"/>
  <rect width="400" height="300" rx="16" fill="url(#glow65)"/>
  <!-- Sand -->
  <ellipse cx="200" cy="288" rx="200" ry="18" fill="#D4A574" opacity="0.25"/>
  <!-- Plants -->
  <path d="M60,285 Q55,255 62,235 Q58,245 55,260" stroke="#66BB6A" stroke-width="2" fill="none" opacity="0.4"/>
  <path d="M340,285 Q345,250 338,225 Q350,245 348,260" stroke="#43A047" stroke-width="2.5" fill="none" opacity="0.35"/>
  <!-- Bubbles -->
  <circle cx="320" cy="60" r="3" fill="white" opacity="0.15"/>
  <circle cx="335" cy="40" r="2" fill="white" opacity="0.1"/>
  <circle cx="310" cy="80" r="4" fill="white" opacity="0.12"/>
  <path d="M164,145 L149.6,130.6 L158.6,145 L149.6,159.4 Z" fill="#F5F5F5" opacity="0.8"/><path d="M192.8,129 L193.88000000000002,125.8 L194.96,129 L198.20000000000002,122.6 L199.28,129 L202.52,119.4 L203.6,129 L206.84000000000003,122.6 L207.92000000000002,129 L211.16000000000003,125.8 L212.24,129 " fill="#F5F5F5" opacity="0.6"/><ellipse cx="200" cy="145" rx="36" ry="16" fill="#E0E0E0"/>
    <ellipse cx="202" cy="142.6" rx="30.599999999999998" ry="9.6" fill="#BDBDBD" opacity="0.3"/><circle cx="182" cy="140.2" r="2.5" fill="#212121" opacity="0.35"/><circle cx="194.6" cy="140.2" r="2.5" fill="#212121" opacity="0.35"/><circle cx="207.2" cy="140.2" r="2.5" fill="#212121" opacity="0.35"/><circle cx="219.8" cy="140.2" r="2.5" fill="#212121" opacity="0.35"/><circle cx="182" cy="148.2" r="2.5" fill="#212121" opacity="0.35"/><circle cx="194.6" cy="148.2" r="2.5" fill="#212121" opacity="0.35"/><circle cx="207.2" cy="148.2" r="2.5" fill="#212121" opacity="0.35"/><circle cx="219.8" cy="148.2" r="2.5" fill="#212121" opacity="0.35"/>
  <circle cx="223.5" cy="141.8" r="5" fill="white"/>
  <circle cx="224.5" cy="141.8" r="3" fill="#1E293B"/>
  <circle cx="225" cy="140.8" r="1.1" fill="white"/><path d="M234,146 Q238,148 234,150" fill="none" stroke="#BDBDBD" stroke-width="1.2" opacity="0.4"/>
</svg>