<svg xmlns="http://www.w3.org/2000/svg" viewBox="0 0 400 300" width="400" height="300">
  <defs>
    <linearGradient id="bg_65" x1="0%" y1="0%" x2="0%" y2="100%">
      <stop offset="0%" style="stop-color:#E0F2FE"/>
      <stop offset="100%" style="stop-color:#BAE6FD"/>
    </linearGradient>
    <linearGradient id="fish_65" x1="0%" y1="0%" x2="100%" y2="100%">
      <stop offset="0%" style="stop-color:#06B6D4"/>
      <stop offset="100%" style="stop-color:#0891B2"/>
    </linearGradient>
    <radialGradient id="light_65" cx="50%" cy="0%" r="80%">
      <stop offset="0%" style="stop-color:white;stop-opacity:0.15"/>
      <stop offset="100%" style="stop-color:white;stop-opacity:0"/>
    </radialGradient>
  </defs>
  
  <!-- Background water -->
  <rect width="400" height="300" rx="16" fill="url(#bg_65)"/>
  <rect width="400" height="300" rx="16" fill="url(#light_65)"/>
  
  <!-- Sand/substrate -->
  <ellipse cx="200" cy="290" rx="210" ry="25" fill="#F5DEB3" opacity="0.4"/>
  
  <!-- Plants -->
  
  <path d="M75,285 Q67,250 70,230 Q80,240 75,285" fill="#86EFAC" opacity="0.5"/>
  <path d="M80,285 Q90,245 85,225 Q77,235 80,285" fill="#4ADE80" opacity="0.4"/>
  
  <path d="M175,285 Q167,240 170,215 Q180,230 175,285" fill="#86EFAC" opacity="0.5"/>
  <path d="M180,285 Q190,237 185,213 Q177,227 180,285" fill="#4ADE80" opacity="0.4"/>
  
  <path d="M275,285 Q267,230 270,200 Q280,220 275,285" fill="#86EFAC" opacity="0.5"/>
  <path d="M280,285 Q290,229 285,201 Q277,219 280,285" fill="#4ADE80" opacity="0.4"/>
  
  <path d="M375,285 Q367,220 370,185 Q380,210 375,285" fill="#86EFAC" opacity="0.5"/>
  <path d="M380,285 Q390,221 385,189 Q377,211 380,285" fill="#4ADE80" opacity="0.4"/>
  
  
  <!-- Bubbles -->
  <circle cx="265" cy="85" r="6" fill="white" opacity="0.15"/>
  <circle cx="290" cy="65" r="7" fill="white" opacity="0.2"/>
  <circle cx="315" cy="45" r="8" fill="white" opacity="0.25"/>
  <circle cx="340" cy="25" r="9" fill="white" opacity="0.30000000000000004"/>
  <circle cx="365" cy="5" r="10" fill="white" opacity="0.35"/>
  
  <!-- Fish body -->
  <ellipse cx="240" cy="150" rx="47.5" ry="27.5" fill="url(#fish_65)"/>
  
  <!-- Tail -->
  <path d="M192.5,150 L167.5,125 L167.5,175 Z" fill="#0891B2"/>
  
  <!-- Dorsal fin -->
  <path d="M230,122.5 Q240,92.5 260,122.5" fill="#0891B2" opacity="0.7"/>
  
  <!-- Ventral fin -->
  
  
  <!-- Pectoral fin -->
  <ellipse cx="255.83333333333334" cy="163.75" rx="10" ry="6" fill="#0891B2" opacity="0.5" transform="rotate(-20 255.83333333333334 163.75)"/>
  
  <!-- Stripes or dots -->
  
  <circle cx="208.33333333333334" cy="136.25" r="3" fill="#67E8F9" opacity="0.35"/><circle cx="232.08333333333334" cy="154.58333333333334" r="3" fill="#67E8F9" opacity="0.35"/><circle cx="255.83333333333334" cy="136.25" r="3" fill="#67E8F9" opacity="0.35"/><circle cx="279.58333333333337" cy="154.58333333333334" r="3" fill="#67E8F9" opacity="0.35"/><circle cx="303.33333333333337" cy="136.25" r="3" fill="#67E8F9" opacity="0.35"/>
  
  <!-- Eye -->
  <circle cx="207.5" cy="140.83333333333334" r="6" fill="white"/>
  <circle cx="208.5" cy="140.83333333333334" r="3.5" fill="#1E293B"/>
  <circle cx="209.5" cy="139.83333333333334" r="1.2" fill="white"/>
  
  <!-- Mouth -->
  <path d="M284.5,152 Q289.5,154 284.5,156" fill="none" stroke="#0891B2" stroke-width="1.5" opacity="0.6"/>
</svg>