<svg xmlns="http://www.w3.org/2000/svg" viewBox="0 0 400 300" width="400" height="300">
  <defs>
    <linearGradient id="bg_18" x1="0%" y1="0%" x2="0%" y2="100%">
      <stop offset="0%" style="stop-color:#E0F2FE"/>
      <stop offset="100%" style="stop-color:#BAE6FD"/>
    </linearGradient>
    <linearGradient id="fish_18" x1="0%" y1="0%" x2="100%" y2="100%">
      <stop offset="0%" style="stop-color:#10B981"/>
      <stop offset="100%" style="stop-color:#059669"/>
    </linearGradient>
    <radialGradient id="light_18" cx="50%" cy="0%" r="80%">
      <stop offset="0%" style="stop-color:white;stop-opacity:0.15"/>
      <stop offset="100%" style="stop-color:white;stop-opacity:0"/>
    </radialGradient>
  </defs>
  
  <!-- Background water -->
  <rect width="400" height="300" rx="16" fill="url(#bg_18)"/>
  <rect width="400" height="300" rx="16" fill="url(#light_18)"/>
  
  <!-- Sand/substrate -->
  <ellipse cx="200" cy="290" rx="210" ry="25" fill="#F5DEB3" opacity="0.4"/>
  
  <!-- Plants -->
  
  <path d="M94,285 Q86,250 89,230 Q99,240 94,285" fill="#86EFAC" opacity="0.5"/>
  <path d="M99,285 Q109,245 104,225 Q96,235 99,285" fill="#4ADE80" opacity="0.4"/>
  
  <path d="M194,285 Q186,240 189,215 Q199,230 194,285" fill="#86EFAC" opacity="0.5"/>
  <path d="M199,285 Q209,237 204,213 Q196,227 199,285" fill="#4ADE80" opacity="0.4"/>
  
  <path d="M294,285 Q286,230 289,200 Q299,220 294,285" fill="#86EFAC" opacity="0.5"/>
  <path d="M299,285 Q309,229 304,201 Q296,219 299,285" fill="#4ADE80" opacity="0.4"/>
  
  <path d="M394,285 Q386,220 389,185 Q399,210 394,285" fill="#86EFAC" opacity="0.5"/>
  <path d="M399,285 Q409,221 404,189 Q396,211 399,285" fill="#4ADE80" opacity="0.4"/>
  
  
  <!-- Bubbles -->
  <circle cx="264" cy="94" r="5" fill="white" opacity="0.15"/>
  <circle cx="289" cy="74" r="6" fill="white" opacity="0.2"/>
  <circle cx="314" cy="54" r="7" fill="white" opacity="0.25"/>
  <circle cx="339" cy="34" r="8" fill="white" opacity="0.30000000000000004"/>
  <circle cx="364" cy="14" r="9" fill="white" opacity="0.35"/>
  
  <!-- Fish body -->
  <ellipse cx="240" cy="150" rx="57" ry="27" fill="url(#fish_18)"/>
  
  <!-- Tail -->
  <path d="M183,150 L149,116 L149,184 Z" fill="#059669"/>
  
  <!-- Dorsal fin -->
  <path d="M230,123 Q240,94 260,123" fill="#059669" opacity="0.7"/>
  
  <!-- Ventral fin -->
  <path d="M240,177 Q245,189 225,185" fill="#059669" opacity="0.6"/>
  
  <!-- Pectoral fin -->
  <ellipse cx="259" cy="163.5" rx="10" ry="6" fill="#059669" opacity="0.5" transform="rotate(-20 259 163.5)"/>
  
  <!-- Stripes or dots -->
  
  
  
  <!-- Eye -->
  <circle cx="198" cy="141" r="6" fill="white"/>
  <circle cx="199" cy="141" r="3.5" fill="#1E293B"/>
  <circle cx="200" cy="140" r="1.2" fill="white"/>
  
  <!-- Mouth -->
  <path d="M294,152 Q299,154 294,156" fill="none" stroke="#059669" stroke-width="1.5" opacity="0.6"/>
</svg>