<svg xmlns="http://www.w3.org/2000/svg" viewBox="0 0 400 300" width="400" height="300">
  <defs>
    <linearGradient id="bg166" x1="0%" y1="0%" x2="0%" y2="100%">
      <stop offset="0%" style="stop-color:#F3E5F5"/>
      <stop offset="100%" style="stop-color:#E1BEE7"/>
    </linearGradient>
    <radialGradient id="glow166" cx="60%" cy="20%" r="60%">
      <stop offset="0%" style="stop-color:white;stop-opacity:0.15"/>
      <stop offset="100%" style="stop-color:white;stop-opacity:0"/>
    </radialGradient>
  </defs>
  <rect width="400" height="300" rx="16" fill="url(#bg166)"/>
  <rect width="400" height="300" rx="16" fill="url(#glow166)"/>
  <!-- Sand -->
  <ellipse cx="200" cy="288" rx="200" ry="18" fill="#D4A574" opacity="0.25"/>
  <!-- Plants -->
  <path d="M60,285 Q55,255 62,235 Q58,245 55,260" stroke="#66BB6A" stroke-width="2" fill="none" opacity="0.4"/>
  <path d="M340,285 Q345,250 338,225 Q350,245 348,260" stroke="#43A047" stroke-width="2.5" fill="none" opacity="0.35"/>
  <!-- Bubbles -->
  <circle cx="320" cy="60" r="3" fill="white" opacity="0.15"/>
  <circle cx="335" cy="40" r="2" fill="white" opacity="0.1"/>
  <circle cx="310" cy="80" r="4" fill="white" opacity="0.12"/>
  <path d="M174,137 Q161,125.8 163.6,145 Q161,164.2 174,153" fill="#FF7043" opacity="0.7"/><path d="M197.4,129 Q201.3,121 205.2,129" fill="#FF7043" opacity="0.6"/><ellipse cx="200" cy="145" rx="26" ry="16" fill="#FF5722"/>
    <ellipse cx="203" cy="141.8" rx="18.2" ry="8" fill="#FF9800" opacity="0.25"/>
  <circle cx="216" cy="141.8" r="4" fill="white"/>
  <circle cx="217" cy="141.8" r="2.4" fill="#1E293B"/>
  <circle cx="217.5" cy="141" r="0.88" fill="white"/><path d="M224,146 Q228,148 224,150" fill="none" stroke="#FF9800" stroke-width="1.2" opacity="0.4"/>
</svg>