<svg xmlns="http://www.w3.org/2000/svg" viewBox="0 0 400 300" width="400" height="300">
  <defs>
    <linearGradient id="bg22" x1="0%" y1="0%" x2="0%" y2="100%">
      <stop offset="0%" style="stop-color:#F3E5F5"/>
      <stop offset="100%" style="stop-color:#E1BEE7"/>
    </linearGradient>
    <radialGradient id="glow22" cx="60%" cy="20%" r="60%">
      <stop offset="0%" style="stop-color:white;stop-opacity:0.15"/>
      <stop offset="100%" style="stop-color:white;stop-opacity:0"/>
    </radialGradient>
  </defs>
  <rect width="400" height="300" rx="16" fill="url(#bg22)"/>
  <rect width="400" height="300" rx="16" fill="url(#glow22)"/>
  <!-- Sand -->
  <ellipse cx="200" cy="288" rx="200" ry="18" fill="#D4A574" opacity="0.25"/>
  <!-- Plants -->
  <path d="M60,285 Q55,255 62,235 Q58,245 55,260" stroke="#66BB6A" stroke-width="2" fill="none" opacity="0.4"/>
  <path d="M340,285 Q345,250 338,225 Q350,245 348,260" stroke="#43A047" stroke-width="2.5" fill="none" opacity="0.35"/>
  <!-- Bubbles -->
  <circle cx="320" cy="60" r="3" fill="white" opacity="0.15"/>
  <circle cx="335" cy="40" r="2" fill="white" opacity="0.1"/>
  <circle cx="310" cy="80" r="4" fill="white" opacity="0.12"/>
  <path d="M178,145 L170.3,132.4 L170.3,157.6 Z" fill="#9CCC65" opacity="0.7"/><path d="M197.8,127 Q201.1,121.6 204.4,127" fill="#9CCC65" opacity="0.6"/><ellipse cx="200" cy="145" rx="22" ry="18" fill="#8BC34A"/>
    <ellipse cx="204" cy="141.4" rx="13.2" ry="8.1" fill="#33691E" opacity="0.2"/><circle cx="189" cy="139.6" r="2.5" fill="#33691E" opacity="0.35"/><circle cx="196.7" cy="139.6" r="2.5" fill="#33691E" opacity="0.35"/><circle cx="204.4" cy="139.6" r="2.5" fill="#33691E" opacity="0.35"/><circle cx="212.1" cy="139.6" r="2.5" fill="#33691E" opacity="0.35"/><circle cx="189" cy="148.6" r="2.5" fill="#33691E" opacity="0.35"/><circle cx="196.7" cy="148.6" r="2.5" fill="#33691E" opacity="0.35"/><circle cx="204.4" cy="148.6" r="2.5" fill="#33691E" opacity="0.35"/><circle cx="212.1" cy="148.6" r="2.5" fill="#33691E" opacity="0.35"/>
  <circle cx="207" cy="141.4" r="6" fill="white"/>
  <circle cx="208" cy="141.4" r="3.5999999999999996" fill="#1E293B"/>
  <circle cx="208.5" cy="140.20000000000002" r="1.32" fill="white"/><path d="M220,146 Q224,148 220,150" fill="none" stroke="#689F38" stroke-width="1.2" opacity="0.4"/>
</svg>