<svg xmlns="http://www.w3.org/2000/svg" viewBox="0 0 400 300" width="400" height="300">
  <defs>
    <linearGradient id="bg_22" x1="0%" y1="0%" x2="0%" y2="100%">
      <stop offset="0%" style="stop-color:#E0F2FE"/>
      <stop offset="100%" style="stop-color:#BAE6FD"/>
    </linearGradient>
    <linearGradient id="fish_22" x1="0%" y1="0%" x2="100%" y2="100%">
      <stop offset="0%" style="stop-color:#84CC16"/>
      <stop offset="100%" style="stop-color:#65A30D"/>
    </linearGradient>
    <radialGradient id="light_22" cx="50%" cy="0%" r="80%">
      <stop offset="0%" style="stop-color:white;stop-opacity:0.15"/>
      <stop offset="100%" style="stop-color:white;stop-opacity:0"/>
    </radialGradient>
  </defs>
  
  <!-- Background water -->
  <rect width="400" height="300" rx="16" fill="url(#bg_22)"/>
  <rect width="400" height="300" rx="16" fill="url(#light_22)"/>
  
  <!-- Sand/substrate -->
  <ellipse cx="200" cy="290" rx="210" ry="25" fill="#F5DEB3" opacity="0.4"/>
  
  <!-- Plants -->
  
  <path d="M81,285 Q73,250 76,230 Q86,240 81,285" fill="#86EFAC" opacity="0.5"/>
  <path d="M86,285 Q96,245 91,225 Q83,235 86,285" fill="#4ADE80" opacity="0.4"/>
  
  <path d="M181,285 Q173,240 176,215 Q186,230 181,285" fill="#86EFAC" opacity="0.5"/>
  <path d="M186,285 Q196,237 191,213 Q183,227 186,285" fill="#4ADE80" opacity="0.4"/>
  
  
  <!-- Bubbles -->
  <circle cx="261" cy="86" r="4" fill="white" opacity="0.15"/>
  <circle cx="286" cy="66" r="5" fill="white" opacity="0.2"/>
  <circle cx="311" cy="46" r="6" fill="white" opacity="0.25"/>
  
  <!-- Fish body -->
  <ellipse cx="240" cy="150" rx="50.5" ry="23" fill="url(#fish_22)"/>
  
  <!-- Tail -->
  <path d="M189.5,150 L163.5,124 L163.5,176 Z" fill="#65A30D"/>
  
  <!-- Dorsal fin -->
  
  
  <!-- Ventral fin -->
  
  
  <!-- Pectoral fin -->
  <ellipse cx="256.8333333333333" cy="161.5" rx="10" ry="6" fill="#65A30D" opacity="0.5" transform="rotate(-20 256.8333333333333 161.5)"/>
  
  <!-- Stripes or dots -->
  <line x1="206.33333333333334" y1="132" x2="206.33333333333334" y2="168" stroke="#BEF264" stroke-width="3" opacity="0.4"/><line x1="240" y1="132" x2="240" y2="168" stroke="#BEF264" stroke-width="3" opacity="0.4"/><line x1="273.6666666666667" y1="132" x2="273.6666666666667" y2="168" stroke="#BEF264" stroke-width="3" opacity="0.4"/>
  
  
  <!-- Eye -->
  <circle cx="204.5" cy="142.33333333333334" r="6" fill="white"/>
  <circle cx="205.5" cy="142.33333333333334" r="3.5" fill="#1E293B"/>
  <circle cx="206.5" cy="141.33333333333334" r="1.2" fill="white"/>
  
  <!-- Mouth -->
  <path d="M287.5,152 Q292.5,154 287.5,156" fill="none" stroke="#65A30D" stroke-width="1.5" opacity="0.6"/>
</svg>