<svg xmlns="http://www.w3.org/2000/svg" viewBox="0 0 400 300" width="400" height="300">
  <defs>
    <linearGradient id="bg40" x1="0%" y1="0%" x2="0%" y2="100%">
      <stop offset="0%" style="stop-color:#F3E5F5"/>
      <stop offset="100%" style="stop-color:#E1BEE7"/>
    </linearGradient>
    <radialGradient id="glow40" cx="60%" cy="20%" r="60%">
      <stop offset="0%" style="stop-color:white;stop-opacity:0.15"/>
      <stop offset="100%" style="stop-color:white;stop-opacity:0"/>
    </radialGradient>
  </defs>
  <rect width="400" height="300" rx="16" fill="url(#bg40)"/>
  <rect width="400" height="300" rx="16" fill="url(#glow40)"/>
  <!-- Sand -->
  <ellipse cx="200" cy="288" rx="200" ry="18" fill="#D4A574" opacity="0.25"/>
  <!-- Plants -->
  <path d="M60,285 Q55,255 62,235 Q58,245 55,260" stroke="#66BB6A" stroke-width="2" fill="none" opacity="0.4"/>
  <path d="M340,285 Q345,250 338,225 Q350,245 348,260" stroke="#43A047" stroke-width="2.5" fill="none" opacity="0.35"/>
  <!-- Bubbles -->
  <circle cx="320" cy="60" r="3" fill="white" opacity="0.15"/>
  <circle cx="335" cy="40" r="2" fill="white" opacity="0.1"/>
  <circle cx="310" cy="80" r="4" fill="white" opacity="0.12"/>
  <path d="M182,145 L174.8,134.2 L179.3,145 L174.8,155.8 Z" fill="#E0E0E0" opacity="0.8"/><path d="M196.4,133 L196.94,130.6 L197.48000000000002,133 L199.1,128.2 L199.64000000000001,133 L201.26,125.8 L201.8,133 L203.42,128.2 L203.96,133 L205.58,130.6 L206.12000000000003,133 " fill="#E0E0E0" opacity="0.6"/><path d="M182,147 Q182,133 200,133 Q218,133 218,147 L214.4,152.2 Q200,154.6 185.6,152.2 Z" fill="#BDBDBD"/>
    <path d="M189.2,139 Q200,135.4 210.8,139" fill="#212121" opacity="0.3"/>
  <circle cx="210.5" cy="142.6" r="3" fill="white"/>
  <circle cx="211.5" cy="142.6" r="1.7999999999999998" fill="#1E293B"/>
  <circle cx="212" cy="142" r="0.66" fill="white"/><path d="M216,147 Q224,153 228,151" fill="none" stroke="#212121" stroke-width="1" opacity="0.5"/>
    <path d="M216,149 Q222,155 226,155" fill="none" stroke="#212121" stroke-width="1" opacity="0.4"/>
</svg>