<svg xmlns="http://www.w3.org/2000/svg" viewBox="0 0 400 300" width="400" height="300">
  <defs>
    <linearGradient id="bg38" x1="0%" y1="0%" x2="0%" y2="100%">
      <stop offset="0%" style="stop-color:#FFF3E0"/>
      <stop offset="100%" style="stop-color:#FFE0B2"/>
    </linearGradient>
    <radialGradient id="glow38" cx="60%" cy="20%" r="60%">
      <stop offset="0%" style="stop-color:white;stop-opacity:0.15"/>
      <stop offset="100%" style="stop-color:white;stop-opacity:0"/>
    </radialGradient>
  </defs>
  <rect width="400" height="300" rx="16" fill="url(#bg38)"/>
  <rect width="400" height="300" rx="16" fill="url(#glow38)"/>
  <!-- Sand -->
  <ellipse cx="200" cy="288" rx="200" ry="18" fill="#D4A574" opacity="0.25"/>
  <!-- Plants -->
  <path d="M60,285 Q55,255 62,235 Q58,245 55,260" stroke="#66BB6A" stroke-width="2" fill="none" opacity="0.4"/>
  <path d="M340,285 Q345,250 338,225 Q350,245 348,260" stroke="#43A047" stroke-width="2.5" fill="none" opacity="0.35"/>
  <!-- Bubbles -->
  <circle cx="320" cy="60" r="3" fill="white" opacity="0.15"/>
  <circle cx="335" cy="40" r="2" fill="white" opacity="0.1"/>
  <circle cx="310" cy="80" r="4" fill="white" opacity="0.12"/>
  <path d="M166,145 L152.4,128.8 L160.9,145 L152.4,161.2 Z" fill="#29B6F6" opacity="0.8"/><path d="M191.5,127 Q194.9,118 198.3,127" fill="#29B6F6" opacity="0.5"/>
    <path d="M201.7,127 Q205.1,118 208.5,127" fill="#29B6F6" opacity="0.5"/><ellipse cx="200" cy="145" rx="34" ry="18" fill="#4FC3F7"/>
    <ellipse cx="203" cy="141.4" rx="23.799999999999997" ry="9" fill="#03A9F4" opacity="0.25"/><ellipse cx="205" cy="141.4" rx="17" ry="7.2" fill="white" opacity="0.12"/><ellipse cx="195" cy="146.8" rx="10.2" ry="4.5" fill="white" opacity="0.08"/>
  <circle cx="224" cy="141.4" r="4" fill="white"/>
  <circle cx="225" cy="141.4" r="2.4" fill="#1E293B"/>
  <circle cx="225.5" cy="140.6" r="0.88" fill="white"/><path d="M232,146 Q236,148 232,150" fill="none" stroke="#03A9F4" stroke-width="1.2" opacity="0.4"/>
</svg>