<svg xmlns="http://www.w3.org/2000/svg" viewBox="0 0 400 300" width="400" height="300">
  <defs>
    <linearGradient id="bg33" x1="0%" y1="0%" x2="0%" y2="100%">
      <stop offset="0%" style="stop-color:#E3F2FD"/>
      <stop offset="100%" style="stop-color:#BBDEFB"/>
    </linearGradient>
    <radialGradient id="glow33" cx="60%" cy="20%" r="60%">
      <stop offset="0%" style="stop-color:white;stop-opacity:0.15"/>
      <stop offset="100%" style="stop-color:white;stop-opacity:0"/>
    </radialGradient>
  </defs>
  <rect width="400" height="300" rx="16" fill="url(#bg33)"/>
  <rect width="400" height="300" rx="16" fill="url(#glow33)"/>
  <!-- Sand -->
  <ellipse cx="200" cy="288" rx="200" ry="18" fill="#D4A574" opacity="0.25"/>
  <!-- Plants -->
  <path d="M60,285 Q55,255 62,235 Q58,245 55,260" stroke="#66BB6A" stroke-width="2" fill="none" opacity="0.4"/>
  <path d="M340,285 Q345,250 338,225 Q350,245 348,260" stroke="#43A047" stroke-width="2.5" fill="none" opacity="0.35"/>
  <!-- Bubbles -->
  <circle cx="320" cy="60" r="3" fill="white" opacity="0.15"/>
  <circle cx="335" cy="40" r="2" fill="white" opacity="0.1"/>
  <circle cx="310" cy="80" r="4" fill="white" opacity="0.12"/>
  <ellipse cx="166.4" cy="145" rx="7" ry="14" fill="#FF5722" opacity="0.7"/><path d="M194.4,125 L195.24,121 L196.08,125 L198.60000000000002,117 L199.44000000000003,125 L201.96,113 L202.8,125 L205.32000000000002,117 L206.16000000000003,125 L208.68,121 L209.52,125 " fill="#FF5722" opacity="0.6"/><ellipse cx="200" cy="145" rx="28" ry="20" fill="#FFEB3B"/>
    <ellipse cx="203" cy="141" rx="19.599999999999998" ry="10" fill="#1565C0" opacity="0.25"/><ellipse cx="205" cy="141" rx="14" ry="8" fill="white" opacity="0.12"/><ellipse cx="195" cy="147" rx="8.4" ry="5" fill="white" opacity="0.08"/>
  <circle cx="215.5" cy="141" r="5" fill="white"/>
  <circle cx="216.5" cy="141" r="3" fill="#D32F2F"/>
  <circle cx="217" cy="140" r="1.1" fill="white"/><path d="M226,146 Q230,148 226,150" fill="none" stroke="#1565C0" stroke-width="1.2" opacity="0.4"/>
</svg>