<svg xmlns="http://www.w3.org/2000/svg" viewBox="0 0 400 300" width="400" height="300">
  <defs>
    <linearGradient id="bg70" x1="0%" y1="0%" x2="0%" y2="100%">
      <stop offset="0%" style="stop-color:#F3E5F5"/>
      <stop offset="100%" style="stop-color:#E1BEE7"/>
    </linearGradient>
    <radialGradient id="glow70" cx="60%" cy="20%" r="60%">
      <stop offset="0%" style="stop-color:white;stop-opacity:0.15"/>
      <stop offset="100%" style="stop-color:white;stop-opacity:0"/>
    </radialGradient>
  </defs>
  <rect width="400" height="300" rx="16" fill="url(#bg70)"/>
  <rect width="400" height="300" rx="16" fill="url(#glow70)"/>
  <!-- Sand -->
  <ellipse cx="200" cy="288" rx="200" ry="18" fill="#D4A574" opacity="0.25"/>
  <!-- Plants -->
  <path d="M60,285 Q55,255 62,235 Q58,245 55,260" stroke="#66BB6A" stroke-width="2" fill="none" opacity="0.4"/>
  <path d="M340,285 Q345,250 338,225 Q350,245 348,260" stroke="#43A047" stroke-width="2.5" fill="none" opacity="0.35"/>
  <!-- Bubbles -->
  <circle cx="320" cy="60" r="3" fill="white" opacity="0.15"/>
  <circle cx="335" cy="40" r="2" fill="white" opacity="0.1"/>
  <circle cx="310" cy="80" r="4" fill="white" opacity="0.12"/>
  <path d="M140,145 L119,139.4 L119,150.6 Z" fill="#795548" opacity="0.7"/><path d="M182,137 L184,134.2 L185.6,137" fill="#795548" opacity="0.5"/><path d="M189.2,137 L191.2,134.2 L192.79999999999998,137" fill="#795548" opacity="0.5"/><path d="M196.4,137 L198.4,134.2 L200,137" fill="#795548" opacity="0.5"/><path d="M203.6,137 L205.6,134.2 L207.2,137" fill="#795548" opacity="0.5"/><path d="M210.8,137 L212.8,134.2 L214.4,137" fill="#795548" opacity="0.5"/><path d="M218,137 L220,134.2 L221.6,137" fill="#795548" opacity="0.5"/><ellipse cx="200" cy="145" rx="60" ry="8" fill="#8D6E63" rx="8"/>
    <ellipse cx="200" cy="143.4" rx="54" ry="4" fill="#6D4C41" opacity="0.3"/>
  <circle cx="252.5" cy="143.4" r="3" fill="white"/>
  <circle cx="253.5" cy="143.4" r="1.7999999999999998" fill="#1E293B"/>
  <circle cx="254" cy="142.8" r="0.66" fill="white"/><path d="M258,146 Q262,148 258,150" fill="none" stroke="#6D4C41" stroke-width="1.2" opacity="0.4"/>
</svg>