<svg xmlns="http://www.w3.org/2000/svg" viewBox="0 0 400 300" width="400" height="300">
  <defs>
    <linearGradient id="bg_66" x1="0%" y1="0%" x2="0%" y2="100%">
      <stop offset="0%" style="stop-color:#E0F2FE"/>
      <stop offset="100%" style="stop-color:#BAE6FD"/>
    </linearGradient>
    <linearGradient id="fish_66" x1="0%" y1="0%" x2="100%" y2="100%">
      <stop offset="0%" style="stop-color:#10B981"/>
      <stop offset="100%" style="stop-color:#059669"/>
    </linearGradient>
    <radialGradient id="light_66" cx="50%" cy="0%" r="80%">
      <stop offset="0%" style="stop-color:white;stop-opacity:0.15"/>
      <stop offset="100%" style="stop-color:white;stop-opacity:0"/>
    </radialGradient>
  </defs>
  
  <!-- Background water -->
  <rect width="400" height="300" rx="16" fill="url(#bg_66)"/>
  <rect width="400" height="300" rx="16" fill="url(#light_66)"/>
  
  <!-- Sand/substrate -->
  <ellipse cx="200" cy="290" rx="210" ry="25" fill="#F5DEB3" opacity="0.4"/>
  
  <!-- Plants -->
  
  <path d="M98,285 Q90,250 93,230 Q103,240 98,285" fill="#86EFAC" opacity="0.5"/>
  <path d="M103,285 Q113,245 108,225 Q100,235 103,285" fill="#4ADE80" opacity="0.4"/>
  
  <path d="M198,285 Q190,240 193,215 Q203,230 198,285" fill="#86EFAC" opacity="0.5"/>
  <path d="M203,285 Q213,237 208,213 Q200,227 203,285" fill="#4ADE80" opacity="0.4"/>
  
  
  <!-- Bubbles -->
  <circle cx="268" cy="83" r="5" fill="white" opacity="0.15"/>
  <circle cx="293" cy="63" r="6" fill="white" opacity="0.2"/>
  <circle cx="318" cy="43" r="7" fill="white" opacity="0.25"/>
  
  <!-- Fish body -->
  <ellipse cx="240" cy="150" rx="59" ry="31.5" fill="url(#fish_66)"/>
  
  <!-- Tail -->
  <path d="M181,150 L158,127 L158,173 Z" fill="#059669"/>
  
  <!-- Dorsal fin -->
  
  
  <!-- Ventral fin -->
  <path d="M240,181.5 Q245,193.5 225,189.5" fill="#059669" opacity="0.6"/>
  
  <!-- Pectoral fin -->
  <ellipse cx="259.6666666666667" cy="165.75" rx="10" ry="6" fill="#059669" opacity="0.5" transform="rotate(-20 259.6666666666667 165.75)"/>
  
  <!-- Stripes or dots -->
  <line x1="200.66666666666666" y1="123.5" x2="200.66666666666666" y2="176.5" stroke="#6EE7B7" stroke-width="3" opacity="0.4"/><line x1="240" y1="123.5" x2="240" y2="176.5" stroke="#6EE7B7" stroke-width="3" opacity="0.4"/><line x1="279.3333333333333" y1="123.5" x2="279.3333333333333" y2="176.5" stroke="#6EE7B7" stroke-width="3" opacity="0.4"/>
  
  
  <!-- Eye -->
  <circle cx="196" cy="139.5" r="6" fill="white"/>
  <circle cx="197" cy="139.5" r="3.5" fill="#1E293B"/>
  <circle cx="198" cy="138.5" r="1.2" fill="white"/>
  
  <!-- Mouth -->
  <path d="M296,152 Q301,154 296,156" fill="none" stroke="#059669" stroke-width="1.5" opacity="0.6"/>
</svg>