<svg xmlns="http://www.w3.org/2000/svg" viewBox="0 0 400 300" width="400" height="300">
  <defs>
    <linearGradient id="bg183" x1="0%" y1="0%" x2="0%" y2="100%">
      <stop offset="0%" style="stop-color:#E3F2FD"/>
      <stop offset="100%" style="stop-color:#BBDEFB"/>
    </linearGradient>
    <radialGradient id="glow183" cx="60%" cy="20%" r="60%">
      <stop offset="0%" style="stop-color:white;stop-opacity:0.15"/>
      <stop offset="100%" style="stop-color:white;stop-opacity:0"/>
    </radialGradient>
  </defs>
  <rect width="400" height="300" rx="16" fill="url(#bg183)"/>
  <rect width="400" height="300" rx="16" fill="url(#glow183)"/>
  <!-- Sand -->
  <ellipse cx="200" cy="288" rx="200" ry="18" fill="#D4A574" opacity="0.25"/>
  <!-- Plants -->
  <path d="M60,285 Q55,255 62,235 Q58,245 55,260" stroke="#66BB6A" stroke-width="2" fill="none" opacity="0.4"/>
  <path d="M340,285 Q345,250 338,225 Q350,245 348,260" stroke="#43A047" stroke-width="2.5" fill="none" opacity="0.35"/>
  <!-- Bubbles -->
  <circle cx="320" cy="60" r="3" fill="white" opacity="0.15"/>
  <circle cx="335" cy="40" r="2" fill="white" opacity="0.1"/>
  <circle cx="310" cy="80" r="4" fill="white" opacity="0.12"/>
  <path d="M166,145 L154.1,131 L154.1,159 Z" fill="#757575" opacity="0.7"/><path d="M189.8,125 Q196.6,103 205.1,109 Q210.2,117 211.9,125" fill="#757575" opacity="0.5"/><ellipse cx="200" cy="145" rx="34" ry="20" fill="#616161"/>
    <ellipse cx="200" cy="151" rx="30.6" ry="8" fill="#424242" opacity="0.3"/><circle cx="183" cy="139" r="2.5" fill="#BDBDBD" opacity="0.35"/><circle cx="194.9" cy="139" r="2.5" fill="#BDBDBD" opacity="0.35"/><circle cx="206.8" cy="139" r="2.5" fill="#BDBDBD" opacity="0.35"/><circle cx="218.7" cy="139" r="2.5" fill="#BDBDBD" opacity="0.35"/><circle cx="183" cy="149" r="2.5" fill="#BDBDBD" opacity="0.35"/><circle cx="194.9" cy="149" r="2.5" fill="#BDBDBD" opacity="0.35"/><circle cx="206.8" cy="149" r="2.5" fill="#BDBDBD" opacity="0.35"/><circle cx="218.7" cy="149" r="2.5" fill="#BDBDBD" opacity="0.35"/>
  <circle cx="224" cy="141" r="4" fill="white"/>
  <circle cx="225" cy="141" r="2.4" fill="#1E293B"/>
  <circle cx="225.5" cy="140.2" r="0.88" fill="white"/><ellipse cx="234" cy="147" rx="4" ry="3" fill="#424242" opacity="0.4"/>
</svg>