<svg xmlns="http://www.w3.org/2000/svg" viewBox="0 0 400 300" width="400" height="300">
  <defs>
    <linearGradient id="bg_26" x1="0%" y1="0%" x2="0%" y2="100%">
      <stop offset="0%" style="stop-color:#E0F2FE"/>
      <stop offset="100%" style="stop-color:#BAE6FD"/>
    </linearGradient>
    <linearGradient id="fish_26" x1="0%" y1="0%" x2="100%" y2="100%">
      <stop offset="0%" style="stop-color:#F59E0B"/>
      <stop offset="100%" style="stop-color:#D97706"/>
    </linearGradient>
    <radialGradient id="light_26" cx="50%" cy="0%" r="80%">
      <stop offset="0%" style="stop-color:white;stop-opacity:0.15"/>
      <stop offset="100%" style="stop-color:white;stop-opacity:0"/>
    </radialGradient>
  </defs>
  
  <!-- Background water -->
  <rect width="400" height="300" rx="16" fill="url(#bg_26)"/>
  <rect width="400" height="300" rx="16" fill="url(#light_26)"/>
  
  <!-- Sand/substrate -->
  <ellipse cx="200" cy="290" rx="210" ry="25" fill="#F5DEB3" opacity="0.4"/>
  
  <!-- Plants -->
  
  <path d="M61,285 Q53,250 56,230 Q66,240 61,285" fill="#86EFAC" opacity="0.5"/>
  <path d="M66,285 Q76,245 71,225 Q63,235 66,285" fill="#4ADE80" opacity="0.4"/>
  
  <path d="M161,285 Q153,240 156,215 Q166,230 161,285" fill="#86EFAC" opacity="0.5"/>
  <path d="M166,285 Q176,237 171,213 Q163,227 166,285" fill="#4ADE80" opacity="0.4"/>
  
  
  <!-- Bubbles -->
  <circle cx="261" cy="86" r="4" fill="white" opacity="0.15"/>
  <circle cx="286" cy="66" r="5" fill="white" opacity="0.2"/>
  <circle cx="311" cy="46" r="6" fill="white" opacity="0.25"/>
  
  <!-- Fish body -->
  <ellipse cx="240" cy="150" rx="40.5" ry="23" fill="url(#fish_26)"/>
  
  <!-- Tail -->
  <path d="M199.5,150 L173.5,124 L173.5,176 Z" fill="#D97706"/>
  
  <!-- Dorsal fin -->
  
  
  <!-- Ventral fin -->
  
  
  <!-- Pectoral fin -->
  <ellipse cx="253.5" cy="161.5" rx="10" ry="6" fill="#D97706" opacity="0.5" transform="rotate(-20 253.5 161.5)"/>
  
  <!-- Stripes or dots -->
  <line x1="213" y1="132" x2="213" y2="168" stroke="#FCD34D" stroke-width="3" opacity="0.4"/><line x1="240" y1="132" x2="240" y2="168" stroke="#FCD34D" stroke-width="3" opacity="0.4"/><line x1="267" y1="132" x2="267" y2="168" stroke="#FCD34D" stroke-width="3" opacity="0.4"/>
  
  
  <!-- Eye -->
  <circle cx="214.5" cy="142.33333333333334" r="6" fill="white"/>
  <circle cx="215.5" cy="142.33333333333334" r="3.5" fill="#1E293B"/>
  <circle cx="216.5" cy="141.33333333333334" r="1.2" fill="white"/>
  
  <!-- Mouth -->
  <path d="M277.5,152 Q282.5,154 277.5,156" fill="none" stroke="#D97706" stroke-width="1.5" opacity="0.6"/>
</svg>