<svg xmlns="http://www.w3.org/2000/svg" viewBox="0 0 400 300" width="400" height="300">
  <defs>
    <linearGradient id="bg37" x1="0%" y1="0%" x2="0%" y2="100%">
      <stop offset="0%" style="stop-color:#E8F5E9"/>
      <stop offset="100%" style="stop-color:#C8E6C9"/>
    </linearGradient>
    <radialGradient id="glow37" cx="60%" cy="20%" r="60%">
      <stop offset="0%" style="stop-color:white;stop-opacity:0.15"/>
      <stop offset="100%" style="stop-color:white;stop-opacity:0"/>
    </radialGradient>
  </defs>
  <rect width="400" height="300" rx="16" fill="url(#bg37)"/>
  <rect width="400" height="300" rx="16" fill="url(#glow37)"/>
  <!-- Sand -->
  <ellipse cx="200" cy="288" rx="200" ry="18" fill="#D4A574" opacity="0.25"/>
  <!-- Plants -->
  <path d="M60,285 Q55,255 62,235 Q58,245 55,260" stroke="#66BB6A" stroke-width="2" fill="none" opacity="0.4"/>
  <path d="M340,285 Q345,250 338,225 Q350,245 348,260" stroke="#43A047" stroke-width="2.5" fill="none" opacity="0.35"/>
  <!-- Bubbles -->
  <circle cx="320" cy="60" r="3" fill="white" opacity="0.15"/>
  <circle cx="335" cy="40" r="2" fill="white" opacity="0.1"/>
  <circle cx="310" cy="80" r="4" fill="white" opacity="0.12"/>
  <path d="M162,145 L146.8,114.4 L156.3,145 L146.8,175.6 Z" fill="#757575" opacity="0.8"/><path d="M196.2,111 Q201.9,94 207.6,111" fill="#757575" opacity="0.6"/><circle cx="200" cy="145" r="38" fill="#BDBDBD"/>
    <circle cx="203" cy="139.3" r="26.599999999999998" fill="#9E9E9E" opacity="0.2"/><ellipse cx="205" cy="138.2" rx="19" ry="13.600000000000001" fill="white" opacity="0.12"/><ellipse cx="195" cy="148.4" rx="11.4" ry="8.5" fill="white" opacity="0.08"/>
  <circle cx="225.5" cy="138.2" r="5" fill="white"/>
  <circle cx="226.5" cy="138.2" r="3" fill="#1E293B"/>
  <circle cx="227" cy="137.2" r="1.1" fill="white"/><path d="M236,146 Q240,148 236,150" fill="none" stroke="#9E9E9E" stroke-width="1.2" opacity="0.4"/>
</svg>