<svg xmlns="http://www.w3.org/2000/svg" viewBox="0 0 400 300" width="400" height="300">
  <defs>
    <linearGradient id="bg_37" x1="0%" y1="0%" x2="0%" y2="100%">
      <stop offset="0%" style="stop-color:#E0F2FE"/>
      <stop offset="100%" style="stop-color:#BAE6FD"/>
    </linearGradient>
    <linearGradient id="fish_37" x1="0%" y1="0%" x2="100%" y2="100%">
      <stop offset="0%" style="stop-color:#EF4444"/>
      <stop offset="100%" style="stop-color:#DC2626"/>
    </linearGradient>
    <radialGradient id="light_37" cx="50%" cy="0%" r="80%">
      <stop offset="0%" style="stop-color:white;stop-opacity:0.15"/>
      <stop offset="100%" style="stop-color:white;stop-opacity:0"/>
    </radialGradient>
  </defs>
  
  <!-- Background water -->
  <rect width="400" height="300" rx="16" fill="url(#bg_37)"/>
  <rect width="400" height="300" rx="16" fill="url(#light_37)"/>
  
  <!-- Sand/substrate -->
  <ellipse cx="200" cy="290" rx="210" ry="25" fill="#F5DEB3" opacity="0.4"/>
  
  <!-- Plants -->
  
  <path d="M80,285 Q72,250 75,230 Q85,240 80,285" fill="#86EFAC" opacity="0.5"/>
  <path d="M85,285 Q95,245 90,225 Q82,235 85,285" fill="#4ADE80" opacity="0.4"/>
  
  <path d="M180,285 Q172,240 175,215 Q185,230 180,285" fill="#86EFAC" opacity="0.5"/>
  <path d="M185,285 Q195,237 190,213 Q182,227 185,285" fill="#4ADE80" opacity="0.4"/>
  
  <path d="M280,285 Q272,230 275,200 Q285,220 280,285" fill="#86EFAC" opacity="0.5"/>
  <path d="M285,285 Q295,229 290,201 Q282,219 285,285" fill="#4ADE80" opacity="0.4"/>
  
  <path d="M380,285 Q372,220 375,185 Q385,210 380,285" fill="#86EFAC" opacity="0.5"/>
  <path d="M385,285 Q395,221 390,189 Q382,211 385,285" fill="#4ADE80" opacity="0.4"/>
  
  
  <!-- Bubbles -->
  <circle cx="260" cy="85" r="3" fill="white" opacity="0.15"/>
  <circle cx="285" cy="65" r="4" fill="white" opacity="0.2"/>
  <circle cx="310" cy="45" r="5" fill="white" opacity="0.25"/>
  <circle cx="335" cy="25" r="6" fill="white" opacity="0.30000000000000004"/>
  <circle cx="360" cy="5" r="7" fill="white" opacity="0.35"/>
  
  <!-- Fish body -->
  <ellipse cx="240" cy="150" rx="50" ry="20" fill="url(#fish_37)"/>
  
  <!-- Tail -->
  <path d="M190,150 L165,125 L165,175 Z" fill="#DC2626"/>
  
  <!-- Dorsal fin -->
  <path d="M230,130 Q240,115 260,130" fill="#DC2626" opacity="0.7"/>
  
  <!-- Ventral fin -->
  <path d="M240,170 Q245,182 225,178" fill="#DC2626" opacity="0.6"/>
  
  <!-- Pectoral fin -->
  <ellipse cx="256.6666666666667" cy="160" rx="10" ry="6" fill="#DC2626" opacity="0.5" transform="rotate(-20 256.6666666666667 160)"/>
  
  <!-- Stripes or dots -->
  
  <circle cx="206.66666666666666" cy="140" r="3" fill="#F87171" opacity="0.35"/><circle cx="231.66666666666666" cy="153.33333333333334" r="3" fill="#F87171" opacity="0.35"/><circle cx="256.66666666666663" cy="140" r="3" fill="#F87171" opacity="0.35"/><circle cx="281.66666666666663" cy="153.33333333333334" r="3" fill="#F87171" opacity="0.35"/><circle cx="306.66666666666663" cy="140" r="3" fill="#F87171" opacity="0.35"/>
  
  <!-- Eye -->
  <circle cx="205" cy="143.33333333333334" r="6" fill="white"/>
  <circle cx="206" cy="143.33333333333334" r="3.5" fill="#1E293B"/>
  <circle cx="207" cy="142.33333333333334" r="1.2" fill="white"/>
  
  <!-- Mouth -->
  <path d="M287,152 Q292,154 287,156" fill="none" stroke="#DC2626" stroke-width="1.5" opacity="0.6"/>
</svg>