<svg xmlns="http://www.w3.org/2000/svg" viewBox="0 0 400 300" width="400" height="300">
  <defs>
    <linearGradient id="bg_60" x1="0%" y1="0%" x2="0%" y2="100%">
      <stop offset="0%" style="stop-color:#E0F2FE"/>
      <stop offset="100%" style="stop-color:#BAE6FD"/>
    </linearGradient>
    <linearGradient id="fish_60" x1="0%" y1="0%" x2="100%" y2="100%">
      <stop offset="0%" style="stop-color:#3B82F6"/>
      <stop offset="100%" style="stop-color:#1D4ED8"/>
    </linearGradient>
    <radialGradient id="light_60" cx="50%" cy="0%" r="80%">
      <stop offset="0%" style="stop-color:white;stop-opacity:0.15"/>
      <stop offset="100%" style="stop-color:white;stop-opacity:0"/>
    </radialGradient>
  </defs>
  
  <!-- Background water -->
  <rect width="400" height="300" rx="16" fill="url(#bg_60)"/>
  <rect width="400" height="300" rx="16" fill="url(#light_60)"/>
  
  <!-- Sand/substrate -->
  <ellipse cx="200" cy="290" rx="210" ry="25" fill="#F5DEB3" opacity="0.4"/>
  
  <!-- Plants -->
  
  <path d="M82,285 Q74,250 77,230 Q87,240 82,285" fill="#86EFAC" opacity="0.5"/>
  <path d="M87,285 Q97,245 92,225 Q84,235 87,285" fill="#4ADE80" opacity="0.4"/>
  
  <path d="M182,285 Q174,240 177,215 Q187,230 182,285" fill="#86EFAC" opacity="0.5"/>
  <path d="M187,285 Q197,237 192,213 Q184,227 187,285" fill="#4ADE80" opacity="0.4"/>
  
  <path d="M282,285 Q274,230 277,200 Q287,220 282,285" fill="#86EFAC" opacity="0.5"/>
  <path d="M287,285 Q297,229 292,201 Q284,219 287,285" fill="#4ADE80" opacity="0.4"/>
  
  
  <!-- Bubbles -->
  <circle cx="262" cy="87" r="5" fill="white" opacity="0.15"/>
  <circle cx="287" cy="67" r="6" fill="white" opacity="0.2"/>
  <circle cx="312" cy="47" r="7" fill="white" opacity="0.25"/>
  <circle cx="337" cy="27" r="8" fill="white" opacity="0.30000000000000004"/>
  
  <!-- Fish body -->
  <ellipse cx="240" cy="150" rx="51" ry="23.5" fill="url(#fish_60)"/>
  
  <!-- Tail -->
  <path d="M189,150 L162,123 L162,177 Z" fill="#1D4ED8"/>
  
  <!-- Dorsal fin -->
  <path d="M230,126.5 Q240,109.5 260,126.5" fill="#1D4ED8" opacity="0.7"/>
  
  <!-- Ventral fin -->
  <path d="M240,173.5 Q245,185.5 225,181.5" fill="#1D4ED8" opacity="0.6"/>
  
  <!-- Pectoral fin -->
  <ellipse cx="257" cy="161.75" rx="10" ry="6" fill="#1D4ED8" opacity="0.5" transform="rotate(-20 257 161.75)"/>
  
  <!-- Stripes or dots -->
  
  
  
  <!-- Eye -->
  <circle cx="204" cy="142.16666666666666" r="6" fill="white"/>
  <circle cx="205" cy="142.16666666666666" r="3.5" fill="#1E293B"/>
  <circle cx="206" cy="141.16666666666666" r="1.2" fill="white"/>
  
  <!-- Mouth -->
  <path d="M288,152 Q293,154 288,156" fill="none" stroke="#1D4ED8" stroke-width="1.5" opacity="0.6"/>
</svg>