<svg xmlns="http://www.w3.org/2000/svg" viewBox="0 0 400 300" width="400" height="300">
  <defs>
    <linearGradient id="bg206" x1="0%" y1="0%" x2="0%" y2="100%">
      <stop offset="0%" style="stop-color:#FFF3E0"/>
      <stop offset="100%" style="stop-color:#FFE0B2"/>
    </linearGradient>
    <radialGradient id="glow206" cx="60%" cy="20%" r="60%">
      <stop offset="0%" style="stop-color:white;stop-opacity:0.15"/>
      <stop offset="100%" style="stop-color:white;stop-opacity:0"/>
    </radialGradient>
  </defs>
  <rect width="400" height="300" rx="16" fill="url(#bg206)"/>
  <rect width="400" height="300" rx="16" fill="url(#glow206)"/>
  <!-- Sand -->
  <ellipse cx="200" cy="288" rx="200" ry="18" fill="#D4A574" opacity="0.25"/>
  <!-- Plants -->
  <path d="M60,285 Q55,255 62,235 Q58,245 55,260" stroke="#66BB6A" stroke-width="2" fill="none" opacity="0.4"/>
  <path d="M340,285 Q345,250 338,225 Q350,245 348,260" stroke="#43A047" stroke-width="2.5" fill="none" opacity="0.35"/>
  <!-- Bubbles -->
  <circle cx="320" cy="60" r="3" fill="white" opacity="0.15"/>
  <circle cx="335" cy="40" r="2" fill="white" opacity="0.1"/>
  <circle cx="310" cy="80" r="4" fill="white" opacity="0.12"/>
  <ellipse cx="171.2" cy="145" rx="6" ry="11.2" fill="#795548" opacity="0.7"/><path d="M197.6,129 L201.2,117.8 L204.8,129" fill="#795548" opacity="0.6"/><ellipse cx="200" cy="145" rx="24" ry="16" fill="#5D4037"/>
    <ellipse cx="203" cy="141.8" rx="16.799999999999997" ry="8" fill="#3E2723" opacity="0.25"/>
  <circle cx="214" cy="141.8" r="4" fill="white"/>
  <circle cx="215" cy="141.8" r="2.4" fill="#1E293B"/>
  <circle cx="215.5" cy="141" r="0.88" fill="white"/><path d="M222,146 Q226,148 222,150" fill="none" stroke="#3E2723" stroke-width="1.2" opacity="0.4"/>
</svg>