<svg xmlns="http://www.w3.org/2000/svg" viewBox="0 0 400 300" width="400" height="300">
  <defs>
    <linearGradient id="bg210" x1="0%" y1="0%" x2="0%" y2="100%">
      <stop offset="0%" style="stop-color:#E0F2FE"/>
      <stop offset="100%" style="stop-color:#BAE6FD"/>
    </linearGradient>
    <radialGradient id="glow210" cx="60%" cy="20%" r="60%">
      <stop offset="0%" style="stop-color:white;stop-opacity:0.15"/>
      <stop offset="100%" style="stop-color:white;stop-opacity:0"/>
    </radialGradient>
  </defs>
  <rect width="400" height="300" rx="16" fill="url(#bg210)"/>
  <rect width="400" height="300" rx="16" fill="url(#glow210)"/>
  <!-- Sand -->
  <ellipse cx="200" cy="288" rx="200" ry="18" fill="#D4A574" opacity="0.25"/>
  <!-- Plants -->
  <path d="M60,285 Q55,255 62,235 Q58,245 55,260" stroke="#66BB6A" stroke-width="2" fill="none" opacity="0.4"/>
  <path d="M340,285 Q345,250 338,225 Q350,245 348,260" stroke="#43A047" stroke-width="2.5" fill="none" opacity="0.35"/>
  <!-- Bubbles -->
  <circle cx="320" cy="60" r="3" fill="white" opacity="0.15"/>
  <circle cx="335" cy="40" r="2" fill="white" opacity="0.1"/>
  <circle cx="310" cy="80" r="4" fill="white" opacity="0.12"/>
  <path d="M174,145 L163.6,129.7 L170.1,145 L163.6,160.3 Z" fill="#FF6F00" opacity="0.8"/><path d="M194.8,128 L195.58,124.6 L196.36,128 L198.70000000000002,121.2 L199.48000000000002,128 L201.82000000000002,117.8 L202.60000000000002,128 L204.94000000000003,121.2 L205.72000000000003,128 L208.06,124.6 L208.84,128 " fill="#FF6F00" opacity="0.6"/><path d="M174,147 Q174,128 200,128 Q226,128 226,147 L220.8,155.2 Q200,158.6 179.2,155.2 Z" fill="#5D4037"/>
    <path d="M184.4,136.5 Q200,131.4 215.6,136.5" fill="#FFECB3" opacity="0.3"/><circle cx="187" cy="139.9" r="2.5" fill="#FFECB3" opacity="0.35"/><circle cx="196.1" cy="139.9" r="2.5" fill="#FFECB3" opacity="0.35"/><circle cx="205.2" cy="139.9" r="2.5" fill="#FFECB3" opacity="0.35"/><circle cx="214.3" cy="139.9" r="2.5" fill="#FFECB3" opacity="0.35"/><circle cx="187" cy="148.4" r="2.5" fill="#FFECB3" opacity="0.35"/><circle cx="196.1" cy="148.4" r="2.5" fill="#FFECB3" opacity="0.35"/><circle cx="205.2" cy="148.4" r="2.5" fill="#FFECB3" opacity="0.35"/><circle cx="214.3" cy="148.4" r="2.5" fill="#FFECB3" opacity="0.35"/>
  <circle cx="213.5" cy="141.6" r="5" fill="white"/>
  <circle cx="214.5" cy="141.6" r="3" fill="#1E293B"/>
  <circle cx="215" cy="140.6" r="1.1" fill="white"/><path d="M224,147 Q232,153 236,151" fill="none" stroke="#FFECB3" stroke-width="1" opacity="0.5"/>
    <path d="M224,149 Q230,155 234,155" fill="none" stroke="#FFECB3" stroke-width="1" opacity="0.4"/>
</svg>