<svg xmlns="http://www.w3.org/2000/svg" viewBox="0 0 400 300" width="400" height="300">
  <defs>
    <linearGradient id="bg_74" x1="0%" y1="0%" x2="0%" y2="100%">
      <stop offset="0%" style="stop-color:#E0F2FE"/>
      <stop offset="100%" style="stop-color:#BAE6FD"/>
    </linearGradient>
    <linearGradient id="fish_74" x1="0%" y1="0%" x2="100%" y2="100%">
      <stop offset="0%" style="stop-color:#F59E0B"/>
      <stop offset="100%" style="stop-color:#D97706"/>
    </linearGradient>
    <radialGradient id="light_74" cx="50%" cy="0%" r="80%">
      <stop offset="0%" style="stop-color:white;stop-opacity:0.15"/>
      <stop offset="100%" style="stop-color:white;stop-opacity:0"/>
    </radialGradient>
  </defs>
  
  <!-- Background water -->
  <rect width="400" height="300" rx="16" fill="url(#bg_74)"/>
  <rect width="400" height="300" rx="16" fill="url(#light_74)"/>
  
  <!-- Sand/substrate -->
  <ellipse cx="200" cy="290" rx="210" ry="25" fill="#F5DEB3" opacity="0.4"/>
  
  <!-- Plants -->
  
  <path d="M97,285 Q89,250 92,230 Q102,240 97,285" fill="#86EFAC" opacity="0.5"/>
  <path d="M102,285 Q112,245 107,225 Q99,235 102,285" fill="#4ADE80" opacity="0.4"/>
  
  <path d="M197,285 Q189,240 192,215 Q202,230 197,285" fill="#86EFAC" opacity="0.5"/>
  <path d="M202,285 Q212,237 207,213 Q199,227 202,285" fill="#4ADE80" opacity="0.4"/>
  
  
  <!-- Bubbles -->
  <circle cx="267" cy="92" r="4" fill="white" opacity="0.15"/>
  <circle cx="292" cy="72" r="5" fill="white" opacity="0.2"/>
  <circle cx="317" cy="52" r="6" fill="white" opacity="0.25"/>
  
  <!-- Fish body -->
  <ellipse cx="240" cy="150" rx="58.5" ry="26" fill="url(#fish_74)"/>
  
  <!-- Tail -->
  <path d="M181.5,150 L149.5,118 L149.5,182 Z" fill="#D97706"/>
  
  <!-- Dorsal fin -->
  
  
  <!-- Ventral fin -->
  
  
  <!-- Pectoral fin -->
  <ellipse cx="259.5" cy="163" rx="10" ry="6" fill="#D97706" opacity="0.5" transform="rotate(-20 259.5 163)"/>
  
  <!-- Stripes or dots -->
  <line x1="201" y1="129" x2="201" y2="171" stroke="#FCD34D" stroke-width="3" opacity="0.4"/><line x1="240" y1="129" x2="240" y2="171" stroke="#FCD34D" stroke-width="3" opacity="0.4"/><line x1="279" y1="129" x2="279" y2="171" stroke="#FCD34D" stroke-width="3" opacity="0.4"/>
  
  
  <!-- Eye -->
  <circle cx="196.5" cy="141.33333333333334" r="6" fill="white"/>
  <circle cx="197.5" cy="141.33333333333334" r="3.5" fill="#1E293B"/>
  <circle cx="198.5" cy="140.33333333333334" r="1.2" fill="white"/>
  
  <!-- Mouth -->
  <path d="M295.5,152 Q300.5,154 295.5,156" fill="none" stroke="#D97706" stroke-width="1.5" opacity="0.6"/>
</svg>