<svg xmlns="http://www.w3.org/2000/svg" viewBox="0 0 400 300" width="400" height="300">
  <defs>
    <linearGradient id="bg31" x1="0%" y1="0%" x2="0%" y2="100%">
      <stop offset="0%" style="stop-color:#E8F5E9"/>
      <stop offset="100%" style="stop-color:#C8E6C9"/>
    </linearGradient>
    <radialGradient id="glow31" cx="60%" cy="20%" r="60%">
      <stop offset="0%" style="stop-color:white;stop-opacity:0.15"/>
      <stop offset="100%" style="stop-color:white;stop-opacity:0"/>
    </radialGradient>
  </defs>
  <rect width="400" height="300" rx="16" fill="url(#bg31)"/>
  <rect width="400" height="300" rx="16" fill="url(#glow31)"/>
  <!-- Sand -->
  <ellipse cx="200" cy="288" rx="200" ry="18" fill="#D4A574" opacity="0.25"/>
  <!-- Plants -->
  <path d="M60,285 Q55,255 62,235 Q58,245 55,260" stroke="#66BB6A" stroke-width="2" fill="none" opacity="0.4"/>
  <path d="M340,285 Q345,250 338,225 Q350,245 348,260" stroke="#43A047" stroke-width="2.5" fill="none" opacity="0.35"/>
  <!-- Bubbles -->
  <circle cx="320" cy="60" r="3" fill="white" opacity="0.15"/>
  <circle cx="335" cy="40" r="2" fill="white" opacity="0.1"/>
  <circle cx="310" cy="80" r="4" fill="white" opacity="0.12"/>
  <path d="M166,138 L155.8,140.8 L155.8,149.2 L166,152" fill="#B71C1C" opacity="0.7"/>
    <path d="M155.8,146.4 L138.8,153.4" stroke="#E53935" stroke-width="2.5" fill="none" stroke-linecap="round"/><path d="M196.6,131 Q201.7,124 206.8,131" fill="#B71C1C" opacity="0.6"/><ellipse cx="200" cy="145" rx="34" ry="14" fill="#E53935"/>
    <ellipse cx="202" cy="142.9" rx="28.9" ry="8.4" fill="#C62828" opacity="0.3"/>
  <circle cx="224" cy="142.2" r="4" fill="white"/>
  <circle cx="225" cy="142.2" r="2.4" fill="#1E293B"/>
  <circle cx="225.5" cy="141.39999999999998" r="0.88" fill="white"/><path d="M232,146 Q236,148 232,150" fill="none" stroke="#C62828" stroke-width="1.2" opacity="0.4"/>
</svg>