<svg xmlns="http://www.w3.org/2000/svg" viewBox="0 0 400 300" width="400" height="300">
  <defs>
    <linearGradient id="bg_31" x1="0%" y1="0%" x2="0%" y2="100%">
      <stop offset="0%" style="stop-color:#E0F2FE"/>
      <stop offset="100%" style="stop-color:#BAE6FD"/>
    </linearGradient>
    <linearGradient id="fish_31" x1="0%" y1="0%" x2="100%" y2="100%">
      <stop offset="0%" style="stop-color:#F97316"/>
      <stop offset="100%" style="stop-color:#EA580C"/>
    </linearGradient>
    <radialGradient id="light_31" cx="50%" cy="0%" r="80%">
      <stop offset="0%" style="stop-color:white;stop-opacity:0.15"/>
      <stop offset="100%" style="stop-color:white;stop-opacity:0"/>
    </radialGradient>
  </defs>
  
  <!-- Background water -->
  <rect width="400" height="300" rx="16" fill="url(#bg_31)"/>
  <rect width="400" height="300" rx="16" fill="url(#light_31)"/>
  
  <!-- Sand/substrate -->
  <ellipse cx="200" cy="290" rx="210" ry="25" fill="#F5DEB3" opacity="0.4"/>
  
  <!-- Plants -->
  
  <path d="M63,285 Q55,250 58,230 Q68,240 63,285" fill="#86EFAC" opacity="0.5"/>
  <path d="M68,285 Q78,245 73,225 Q65,235 68,285" fill="#4ADE80" opacity="0.4"/>
  
  <path d="M163,285 Q155,240 158,215 Q168,230 163,285" fill="#86EFAC" opacity="0.5"/>
  <path d="M168,285 Q178,237 173,213 Q165,227 168,285" fill="#4ADE80" opacity="0.4"/>
  
  
  <!-- Bubbles -->
  <circle cx="263" cy="83" r="6" fill="white" opacity="0.15"/>
  <circle cx="288" cy="63" r="7" fill="white" opacity="0.2"/>
  <circle cx="313" cy="43" r="8" fill="white" opacity="0.25"/>
  
  <!-- Fish body -->
  <ellipse cx="240" cy="150" rx="41.5" ry="29" fill="url(#fish_31)"/>
  
  <!-- Tail -->
  <path d="M198.5,150 L175.5,127 L175.5,173 Z" fill="#EA580C"/>
  
  <!-- Dorsal fin -->
  
  
  <!-- Ventral fin -->
  
  
  <!-- Pectoral fin -->
  <ellipse cx="253.83333333333334" cy="164.5" rx="10" ry="6" fill="#EA580C" opacity="0.5" transform="rotate(-20 253.83333333333334 164.5)"/>
  
  <!-- Stripes or dots -->
  <line x1="212.33333333333334" y1="126" x2="212.33333333333334" y2="174" stroke="#FDBA74" stroke-width="3" opacity="0.4"/><line x1="240" y1="126" x2="240" y2="174" stroke="#FDBA74" stroke-width="3" opacity="0.4"/><line x1="267.6666666666667" y1="126" x2="267.6666666666667" y2="174" stroke="#FDBA74" stroke-width="3" opacity="0.4"/>
  
  
  <!-- Eye -->
  <circle cx="213.5" cy="140.33333333333334" r="6" fill="white"/>
  <circle cx="214.5" cy="140.33333333333334" r="3.5" fill="#1E293B"/>
  <circle cx="215.5" cy="139.33333333333334" r="1.2" fill="white"/>
  
  <!-- Mouth -->
  <path d="M278.5,152 Q283.5,154 278.5,156" fill="none" stroke="#EA580C" stroke-width="1.5" opacity="0.6"/>
</svg>