<svg xmlns="http://www.w3.org/2000/svg" viewBox="0 0 400 300" width="400" height="300">
  <defs>
    <linearGradient id="bg_61" x1="0%" y1="0%" x2="0%" y2="100%">
      <stop offset="0%" style="stop-color:#E0F2FE"/>
      <stop offset="100%" style="stop-color:#BAE6FD"/>
    </linearGradient>
    <linearGradient id="fish_61" x1="0%" y1="0%" x2="100%" y2="100%">
      <stop offset="0%" style="stop-color:#EF4444"/>
      <stop offset="100%" style="stop-color:#DC2626"/>
    </linearGradient>
    <radialGradient id="light_61" cx="50%" cy="0%" r="80%">
      <stop offset="0%" style="stop-color:white;stop-opacity:0.15"/>
      <stop offset="100%" style="stop-color:white;stop-opacity:0"/>
    </radialGradient>
  </defs>
  
  <!-- Background water -->
  <rect width="400" height="300" rx="16" fill="url(#bg_61)"/>
  <rect width="400" height="300" rx="16" fill="url(#light_61)"/>
  
  <!-- Sand/substrate -->
  <ellipse cx="200" cy="290" rx="210" ry="25" fill="#F5DEB3" opacity="0.4"/>
  
  <!-- Plants -->
  
  <path d="M80,285 Q72,250 75,230 Q85,240 80,285" fill="#86EFAC" opacity="0.5"/>
  <path d="M85,285 Q95,245 90,225 Q82,235 85,285" fill="#4ADE80" opacity="0.4"/>
  
  <path d="M180,285 Q172,240 175,215 Q185,230 180,285" fill="#86EFAC" opacity="0.5"/>
  <path d="M185,285 Q195,237 190,213 Q182,227 185,285" fill="#4ADE80" opacity="0.4"/>
  
  
  <!-- Bubbles -->
  <circle cx="260" cy="80" r="3" fill="white" opacity="0.15"/>
  <circle cx="285" cy="60" r="4" fill="white" opacity="0.2"/>
  <circle cx="310" cy="40" r="5" fill="white" opacity="0.25"/>
  
  <!-- Fish body -->
  <ellipse cx="240" cy="150" rx="50" ry="30" fill="url(#fish_61)"/>
  
  <!-- Tail -->
  <path d="M190,150 L170,130 L170,170 Z" fill="#DC2626"/>
  
  <!-- Dorsal fin -->
  
  
  <!-- Ventral fin -->
  <path d="M240,180 Q245,192 225,188" fill="#DC2626" opacity="0.6"/>
  
  <!-- Pectoral fin -->
  <ellipse cx="256.6666666666667" cy="165" rx="10" ry="6" fill="#DC2626" opacity="0.5" transform="rotate(-20 256.6666666666667 165)"/>
  
  <!-- Stripes or dots -->
  <line x1="206.66666666666666" y1="125" x2="206.66666666666666" y2="175" stroke="#F87171" stroke-width="3" opacity="0.4"/><line x1="240" y1="125" x2="240" y2="175" stroke="#F87171" stroke-width="3" opacity="0.4"/><line x1="273.3333333333333" y1="125" x2="273.3333333333333" y2="175" stroke="#F87171" stroke-width="3" opacity="0.4"/>
  <circle cx="206.66666666666666" cy="135" r="3" fill="#F87171" opacity="0.35"/><circle cx="231.66666666666666" cy="155" r="3" fill="#F87171" opacity="0.35"/><circle cx="256.66666666666663" cy="135" r="3" fill="#F87171" opacity="0.35"/><circle cx="281.66666666666663" cy="155" r="3" fill="#F87171" opacity="0.35"/><circle cx="306.66666666666663" cy="135" r="3" fill="#F87171" opacity="0.35"/>
  
  <!-- Eye -->
  <circle cx="205" cy="140" r="6" fill="white"/>
  <circle cx="206" cy="140" r="3.5" fill="#1E293B"/>
  <circle cx="207" cy="139" r="1.2" fill="white"/>
  
  <!-- Mouth -->
  <path d="M287,152 Q292,154 287,156" fill="none" stroke="#DC2626" stroke-width="1.5" opacity="0.6"/>
</svg>