<svg xmlns="http://www.w3.org/2000/svg" viewBox="0 0 400 300" width="400" height="300">
  <defs>
    <linearGradient id="bg61" x1="0%" y1="0%" x2="0%" y2="100%">
      <stop offset="0%" style="stop-color:#E8F5E9"/>
      <stop offset="100%" style="stop-color:#C8E6C9"/>
    </linearGradient>
    <radialGradient id="glow61" cx="60%" cy="20%" r="60%">
      <stop offset="0%" style="stop-color:white;stop-opacity:0.15"/>
      <stop offset="100%" style="stop-color:white;stop-opacity:0"/>
    </radialGradient>
  </defs>
  <rect width="400" height="300" rx="16" fill="url(#bg61)"/>
  <rect width="400" height="300" rx="16" fill="url(#glow61)"/>
  <!-- Sand -->
  <ellipse cx="200" cy="288" rx="200" ry="18" fill="#D4A574" opacity="0.25"/>
  <!-- Plants -->
  <path d="M60,285 Q55,255 62,235 Q58,245 55,260" stroke="#66BB6A" stroke-width="2" fill="none" opacity="0.4"/>
  <path d="M340,285 Q345,250 338,225 Q350,245 348,260" stroke="#43A047" stroke-width="2.5" fill="none" opacity="0.35"/>
  <!-- Bubbles -->
  <circle cx="320" cy="60" r="3" fill="white" opacity="0.15"/>
  <circle cx="335" cy="40" r="2" fill="white" opacity="0.1"/>
  <circle cx="310" cy="80" r="4" fill="white" opacity="0.12"/>
  <ellipse cx="149.6" cy="145" rx="10.5" ry="21" fill="#546E7A" opacity="0.7"/><path d="M195.8,115 L202.1,94 L208.4,115" fill="#546E7A" opacity="0.6"/><ellipse cx="200" cy="145" rx="42" ry="30" fill="#78909C"/>
    <ellipse cx="203" cy="139" rx="29.4" ry="15" fill="#455A64" opacity="0.25"/>
  <circle cx="229.5" cy="139" r="5" fill="white"/>
  <circle cx="230.5" cy="139" r="3" fill="#1E293B"/>
  <circle cx="231" cy="138" r="1.1" fill="white"/><path d="M240,146 Q244,148 240,150" fill="none" stroke="#455A64" stroke-width="1.2" opacity="0.4"/>
</svg>