<svg xmlns="http://www.w3.org/2000/svg" viewBox="0 0 400 300" width="400" height="300">
  <defs>
    <linearGradient id="bg219" x1="0%" y1="0%" x2="0%" y2="100%">
      <stop offset="0%" style="stop-color:#E3F2FD"/>
      <stop offset="100%" style="stop-color:#BBDEFB"/>
    </linearGradient>
    <radialGradient id="glow219" cx="60%" cy="20%" r="60%">
      <stop offset="0%" style="stop-color:white;stop-opacity:0.15"/>
      <stop offset="100%" style="stop-color:white;stop-opacity:0"/>
    </radialGradient>
  </defs>
  <rect width="400" height="300" rx="16" fill="url(#bg219)"/>
  <rect width="400" height="300" rx="16" fill="url(#glow219)"/>
  <!-- Sand -->
  <ellipse cx="200" cy="288" rx="200" ry="18" fill="#D4A574" opacity="0.25"/>
  <!-- Plants -->
  <path d="M60,285 Q55,255 62,235 Q58,245 55,260" stroke="#66BB6A" stroke-width="2" fill="none" opacity="0.4"/>
  <path d="M340,285 Q345,250 338,225 Q350,245 348,260" stroke="#43A047" stroke-width="2.5" fill="none" opacity="0.35"/>
  <!-- Bubbles -->
  <circle cx="320" cy="60" r="3" fill="white" opacity="0.15"/>
  <circle cx="335" cy="40" r="2" fill="white" opacity="0.1"/>
  <circle cx="310" cy="80" r="4" fill="white" opacity="0.12"/>
  <path d="M172,145 L160.8,128.8 L167.8,145 L160.8,161.2 Z" fill="#FF6F00" opacity="0.8"/><path d="M197.2,127 Q201.4,118 205.6,127" fill="#FF6F00" opacity="0.6"/><ellipse cx="200" cy="145" rx="28" ry="18" fill="#FF8F00"/>
    <ellipse cx="203" cy="141.4" rx="19.599999999999998" ry="9" fill="#F57F17" opacity="0.25"/><line x1="188.8" y1="132.4" x2="188.8" y2="157.6" stroke="#212121" stroke-width="2.5" opacity="0.4"/><line x1="197.20000000000002" y1="132.4" x2="197.20000000000002" y2="157.6" stroke="#212121" stroke-width="2.5" opacity="0.4"/><line x1="205.60000000000002" y1="132.4" x2="205.60000000000002" y2="157.6" stroke="#212121" stroke-width="2.5" opacity="0.4"/><line x1="214" y1="132.4" x2="214" y2="157.6" stroke="#212121" stroke-width="2.5" opacity="0.4"/><rect x="190.2" y="131.5" width="3.36" height="27" rx="2" fill="#212121" opacity="0.5"/><rect x="200" y="131.5" width="3.36" height="27" rx="2" fill="#212121" opacity="0.5"/><rect x="209.79999999999998" y="131.5" width="3.36" height="27" rx="2" fill="#212121" opacity="0.5"/>
  <circle cx="215.5" cy="141.4" r="5" fill="white"/>
  <circle cx="216.5" cy="141.4" r="3" fill="#1E293B"/>
  <circle cx="217" cy="140.4" r="1.1" fill="white"/><path d="M226,146 Q230,148 226,150" fill="none" stroke="#F57F17" stroke-width="1.2" opacity="0.4"/>
</svg>