<svg xmlns="http://www.w3.org/2000/svg" viewBox="0 0 400 300" width="400" height="300">
  <defs>
    <linearGradient id="bg_30" x1="0%" y1="0%" x2="0%" y2="100%">
      <stop offset="0%" style="stop-color:#E0F2FE"/>
      <stop offset="100%" style="stop-color:#BAE6FD"/>
    </linearGradient>
    <linearGradient id="fish_30" x1="0%" y1="0%" x2="100%" y2="100%">
      <stop offset="0%" style="stop-color:#10B981"/>
      <stop offset="100%" style="stop-color:#059669"/>
    </linearGradient>
    <radialGradient id="light_30" cx="50%" cy="0%" r="80%">
      <stop offset="0%" style="stop-color:white;stop-opacity:0.15"/>
      <stop offset="100%" style="stop-color:white;stop-opacity:0"/>
    </radialGradient>
  </defs>
  
  <!-- Background water -->
  <rect width="400" height="300" rx="16" fill="url(#bg_30)"/>
  <rect width="400" height="300" rx="16" fill="url(#light_30)"/>
  
  <!-- Sand/substrate -->
  <ellipse cx="200" cy="290" rx="210" ry="25" fill="#F5DEB3" opacity="0.4"/>
  
  <!-- Plants -->
  
  <path d="M87,285 Q79,250 82,230 Q92,240 87,285" fill="#86EFAC" opacity="0.5"/>
  <path d="M92,285 Q102,245 97,225 Q89,235 92,285" fill="#4ADE80" opacity="0.4"/>
  
  <path d="M187,285 Q179,240 182,215 Q192,230 187,285" fill="#86EFAC" opacity="0.5"/>
  <path d="M192,285 Q202,237 197,213 Q189,227 192,285" fill="#4ADE80" opacity="0.4"/>
  
  <path d="M287,285 Q279,230 282,200 Q292,220 287,285" fill="#86EFAC" opacity="0.5"/>
  <path d="M292,285 Q302,229 297,201 Q289,219 292,285" fill="#4ADE80" opacity="0.4"/>
  
  
  <!-- Bubbles -->
  <circle cx="267" cy="87" r="6" fill="white" opacity="0.15"/>
  <circle cx="292" cy="67" r="7" fill="white" opacity="0.2"/>
  <circle cx="317" cy="47" r="8" fill="white" opacity="0.25"/>
  <circle cx="342" cy="27" r="9" fill="white" opacity="0.30000000000000004"/>
  
  <!-- Fish body -->
  <ellipse cx="240" cy="150" rx="53.5" ry="21" fill="url(#fish_30)"/>
  
  <!-- Tail -->
  <path d="M186.5,150 L159.5,123 L159.5,177 Z" fill="#059669"/>
  
  <!-- Dorsal fin -->
  <path d="M230,129 Q240,107 260,129" fill="#059669" opacity="0.7"/>
  
  <!-- Ventral fin -->
  
  
  <!-- Pectoral fin -->
  <ellipse cx="257.8333333333333" cy="160.5" rx="10" ry="6" fill="#059669" opacity="0.5" transform="rotate(-20 257.8333333333333 160.5)"/>
  
  <!-- Stripes or dots -->
  
  
  
  <!-- Eye -->
  <circle cx="201.5" cy="143" r="6" fill="white"/>
  <circle cx="202.5" cy="143" r="3.5" fill="#1E293B"/>
  <circle cx="203.5" cy="142" r="1.2" fill="white"/>
  
  <!-- Mouth -->
  <path d="M290.5,152 Q295.5,154 290.5,156" fill="none" stroke="#059669" stroke-width="1.5" opacity="0.6"/>
</svg>