<svg xmlns="http://www.w3.org/2000/svg" viewBox="0 0 400 300" width="400" height="300">
  <defs>
    <linearGradient id="bg49" x1="0%" y1="0%" x2="0%" y2="100%">
      <stop offset="0%" style="stop-color:#E8F5E9"/>
      <stop offset="100%" style="stop-color:#C8E6C9"/>
    </linearGradient>
    <radialGradient id="glow49" cx="60%" cy="20%" r="60%">
      <stop offset="0%" style="stop-color:white;stop-opacity:0.15"/>
      <stop offset="100%" style="stop-color:white;stop-opacity:0"/>
    </radialGradient>
  </defs>
  <rect width="400" height="300" rx="16" fill="url(#bg49)"/>
  <rect width="400" height="300" rx="16" fill="url(#glow49)"/>
  <!-- Sand -->
  <ellipse cx="200" cy="288" rx="200" ry="18" fill="#D4A574" opacity="0.25"/>
  <!-- Plants -->
  <path d="M60,285 Q55,255 62,235 Q58,245 55,260" stroke="#66BB6A" stroke-width="2" fill="none" opacity="0.4"/>
  <path d="M340,285 Q345,250 338,225 Q350,245 348,260" stroke="#43A047" stroke-width="2.5" fill="none" opacity="0.35"/>
  <!-- Bubbles -->
  <circle cx="320" cy="60" r="3" fill="white" opacity="0.15"/>
  <circle cx="335" cy="40" r="2" fill="white" opacity="0.1"/>
  <circle cx="310" cy="80" r="4" fill="white" opacity="0.12"/>
  <path d="M176,145 L166.4,136 L172.4,145 L166.4,154 Z" fill="#D32F2F" opacity="0.8"/><path d="M197.6,135 Q201.2,130 204.8,135" fill="#D32F2F" opacity="0.6"/><ellipse cx="200" cy="145" rx="24" ry="10" fill="#8D6E63"/>
    <ellipse cx="202" cy="143.5" rx="20.4" ry="6" fill="#6D4C41" opacity="0.3"/>
  <circle cx="216.5" cy="143" r="3" fill="white"/>
  <circle cx="217.5" cy="143" r="1.7999999999999998" fill="#1E293B"/>
  <circle cx="218" cy="142.4" r="0.66" fill="white"/><path d="M222,146 Q226,148 222,150" fill="none" stroke="#6D4C41" stroke-width="1.2" opacity="0.4"/>
</svg>