<svg xmlns="http://www.w3.org/2000/svg" viewBox="0 0 400 300" width="400" height="300">
  <defs>
    <linearGradient id="bg_46" x1="0%" y1="0%" x2="0%" y2="100%">
      <stop offset="0%" style="stop-color:#E0F2FE"/>
      <stop offset="100%" style="stop-color:#BAE6FD"/>
    </linearGradient>
    <linearGradient id="fish_46" x1="0%" y1="0%" x2="100%" y2="100%">
      <stop offset="0%" style="stop-color:#84CC16"/>
      <stop offset="100%" style="stop-color:#65A30D"/>
    </linearGradient>
    <radialGradient id="light_46" cx="50%" cy="0%" r="80%">
      <stop offset="0%" style="stop-color:white;stop-opacity:0.15"/>
      <stop offset="100%" style="stop-color:white;stop-opacity:0"/>
    </radialGradient>
  </defs>
  
  <!-- Background water -->
  <rect width="400" height="300" rx="16" fill="url(#bg_46)"/>
  <rect width="400" height="300" rx="16" fill="url(#light_46)"/>
  
  <!-- Sand/substrate -->
  <ellipse cx="200" cy="290" rx="210" ry="25" fill="#F5DEB3" opacity="0.4"/>
  
  <!-- Plants -->
  
  <path d="M69,285 Q61,250 64,230 Q74,240 69,285" fill="#86EFAC" opacity="0.5"/>
  <path d="M74,285 Q84,245 79,225 Q71,235 74,285" fill="#4ADE80" opacity="0.4"/>
  
  <path d="M169,285 Q161,240 164,215 Q174,230 169,285" fill="#86EFAC" opacity="0.5"/>
  <path d="M174,285 Q184,237 179,213 Q171,227 174,285" fill="#4ADE80" opacity="0.4"/>
  
  
  <!-- Bubbles -->
  <circle cx="269" cy="89" r="4" fill="white" opacity="0.15"/>
  <circle cx="294" cy="69" r="5" fill="white" opacity="0.2"/>
  <circle cx="319" cy="49" r="6" fill="white" opacity="0.25"/>
  
  <!-- Fish body -->
  <ellipse cx="240" cy="150" rx="44.5" ry="24.5" fill="url(#fish_46)"/>
  
  <!-- Tail -->
  <path d="M195.5,150 L166.5,121 L166.5,179 Z" fill="#65A30D"/>
  
  <!-- Dorsal fin -->
  
  
  <!-- Ventral fin -->
  
  
  <!-- Pectoral fin -->
  <ellipse cx="254.83333333333334" cy="162.25" rx="10" ry="6" fill="#65A30D" opacity="0.5" transform="rotate(-20 254.83333333333334 162.25)"/>
  
  <!-- Stripes or dots -->
  <line x1="210.33333333333334" y1="130.5" x2="210.33333333333334" y2="169.5" stroke="#BEF264" stroke-width="3" opacity="0.4"/><line x1="240" y1="130.5" x2="240" y2="169.5" stroke="#BEF264" stroke-width="3" opacity="0.4"/><line x1="269.6666666666667" y1="130.5" x2="269.6666666666667" y2="169.5" stroke="#BEF264" stroke-width="3" opacity="0.4"/>
  
  
  <!-- Eye -->
  <circle cx="210.5" cy="141.83333333333334" r="6" fill="white"/>
  <circle cx="211.5" cy="141.83333333333334" r="3.5" fill="#1E293B"/>
  <circle cx="212.5" cy="140.83333333333334" r="1.2" fill="white"/>
  
  <!-- Mouth -->
  <path d="M281.5,152 Q286.5,154 281.5,156" fill="none" stroke="#65A30D" stroke-width="1.5" opacity="0.6"/>
</svg>