<svg xmlns="http://www.w3.org/2000/svg" viewBox="0 0 400 300" width="400" height="300">
  <defs>
    <linearGradient id="bg_52" x1="0%" y1="0%" x2="0%" y2="100%">
      <stop offset="0%" style="stop-color:#E0F2FE"/>
      <stop offset="100%" style="stop-color:#BAE6FD"/>
    </linearGradient>
    <linearGradient id="fish_52" x1="0%" y1="0%" x2="100%" y2="100%">
      <stop offset="0%" style="stop-color:#EC4899"/>
      <stop offset="100%" style="stop-color:#DB2777"/>
    </linearGradient>
    <radialGradient id="light_52" cx="50%" cy="0%" r="80%">
      <stop offset="0%" style="stop-color:white;stop-opacity:0.15"/>
      <stop offset="100%" style="stop-color:white;stop-opacity:0"/>
    </radialGradient>
  </defs>
  
  <!-- Background water -->
  <rect width="400" height="300" rx="16" fill="url(#bg_52)"/>
  <rect width="400" height="300" rx="16" fill="url(#light_52)"/>
  
  <!-- Sand/substrate -->
  <ellipse cx="200" cy="290" rx="210" ry="25" fill="#F5DEB3" opacity="0.4"/>
  
  <!-- Plants -->
  
  <path d="M92,285 Q84,250 87,230 Q97,240 92,285" fill="#86EFAC" opacity="0.5"/>
  <path d="M97,285 Q107,245 102,225 Q94,235 97,285" fill="#4ADE80" opacity="0.4"/>
  
  <path d="M192,285 Q184,240 187,215 Q197,230 192,285" fill="#86EFAC" opacity="0.5"/>
  <path d="M197,285 Q207,237 202,213 Q194,227 197,285" fill="#4ADE80" opacity="0.4"/>
  
  <path d="M292,285 Q284,230 287,200 Q297,220 292,285" fill="#86EFAC" opacity="0.5"/>
  <path d="M297,285 Q307,229 302,201 Q294,219 297,285" fill="#4ADE80" opacity="0.4"/>
  
  
  <!-- Bubbles -->
  <circle cx="262" cy="87" r="3" fill="white" opacity="0.15"/>
  <circle cx="287" cy="67" r="4" fill="white" opacity="0.2"/>
  <circle cx="312" cy="47" r="5" fill="white" opacity="0.25"/>
  <circle cx="337" cy="27" r="6" fill="white" opacity="0.30000000000000004"/>
  
  <!-- Fish body -->
  <ellipse cx="240" cy="150" rx="56" ry="21" fill="url(#fish_52)"/>
  
  <!-- Tail -->
  <path d="M184,150 L157,123 L157,177 Z" fill="#DB2777"/>
  
  <!-- Dorsal fin -->
  <path d="M230,129 Q240,102 260,129" fill="#DB2777" opacity="0.7"/>
  
  <!-- Ventral fin -->
  <path d="M240,171 Q245,183 225,179" fill="#DB2777" opacity="0.6"/>
  
  <!-- Pectoral fin -->
  <ellipse cx="258.6666666666667" cy="160.5" rx="10" ry="6" fill="#DB2777" opacity="0.5" transform="rotate(-20 258.6666666666667 160.5)"/>
  
  <!-- Stripes or dots -->
  
  
  
  <!-- Eye -->
  <circle cx="199" cy="143" r="6" fill="white"/>
  <circle cx="200" cy="143" r="3.5" fill="#1E293B"/>
  <circle cx="201" cy="142" r="1.2" fill="white"/>
  
  <!-- Mouth -->
  <path d="M293,152 Q298,154 293,156" fill="none" stroke="#DB2777" stroke-width="1.5" opacity="0.6"/>
</svg>