<svg xmlns="http://www.w3.org/2000/svg" viewBox="0 0 400 300" width="400" height="300">
  <defs>
    <linearGradient id="bg52" x1="0%" y1="0%" x2="0%" y2="100%">
      <stop offset="0%" style="stop-color:#F3E5F5"/>
      <stop offset="100%" style="stop-color:#E1BEE7"/>
    </linearGradient>
    <radialGradient id="glow52" cx="60%" cy="20%" r="60%">
      <stop offset="0%" style="stop-color:white;stop-opacity:0.15"/>
      <stop offset="100%" style="stop-color:white;stop-opacity:0"/>
    </radialGradient>
  </defs>
  <rect width="400" height="300" rx="16" fill="url(#bg52)"/>
  <rect width="400" height="300" rx="16" fill="url(#glow52)"/>
  <!-- Sand -->
  <ellipse cx="200" cy="288" rx="200" ry="18" fill="#D4A574" opacity="0.25"/>
  <!-- Plants -->
  <path d="M60,285 Q55,255 62,235 Q58,245 55,260" stroke="#66BB6A" stroke-width="2" fill="none" opacity="0.4"/>
  <path d="M340,285 Q345,250 338,225 Q350,245 348,260" stroke="#43A047" stroke-width="2.5" fill="none" opacity="0.35"/>
  <!-- Bubbles -->
  <circle cx="320" cy="60" r="3" fill="white" opacity="0.15"/>
  <circle cx="335" cy="40" r="2" fill="white" opacity="0.1"/>
  <circle cx="310" cy="80" r="4" fill="white" opacity="0.12"/>
  <path d="M174,145 L163.6,136 L170.1,145 L163.6,154 Z" fill="#90CAF9" opacity="0.8"/><path d="M197.4,135 Q201.3,130 205.2,135" fill="#90CAF9" opacity="0.6"/><ellipse cx="200" cy="145" rx="26" ry="10" fill="#1565C0"/>
    <ellipse cx="202" cy="143.5" rx="22.099999999999998" ry="6" fill="#0D47A1" opacity="0.3"/><line x1="181.8" y1="140" x2="218.2" y2="140" stroke="#FFD600" stroke-width="2" opacity="0.4"/><line x1="181.8" y1="143.5" x2="218.2" y2="143.5" stroke="#FFD600" stroke-width="2" opacity="0.4"/><line x1="181.8" y1="147" x2="218.2" y2="147" stroke="#FFD600" stroke-width="2" opacity="0.4"/><line x1="181.8" y1="150.5" x2="218.2" y2="150.5" stroke="#FFD600" stroke-width="2" opacity="0.4"/>
  <circle cx="218.5" cy="143" r="3" fill="white"/>
  <circle cx="219.5" cy="143" r="1.7999999999999998" fill="#1E293B"/>
  <circle cx="220" cy="142.4" r="0.66" fill="white"/><path d="M224,146 Q228,148 224,150" fill="none" stroke="#0D47A1" stroke-width="1.2" opacity="0.4"/>
</svg>