<svg xmlns="http://www.w3.org/2000/svg" viewBox="0 0 400 300" width="400" height="300"><defs><linearGradient id="tbg10" x1="0%" y1="0%" x2="0%" y2="100%"><stop offset="0%" style="stop-color:#F0F9FF"/><stop offset="100%" style="stop-color:#E0F2FE"/></linearGradient></defs><rect width="400" height="300" rx="16" fill="url(#tbg10)"/><rect x="70" y="80" width="260" height="180" rx="4" fill="none" stroke="#94A3B8" stroke-width="3" opacity="0.6"/><rect x="73" y="88" width="254" height="169" rx="2" fill="#BFDBFE" opacity="0.4"/><rect x="73" y="248" width="254" height="9" fill="#F5DEB3" opacity="0.5"/><path d="M85,255 Q80,230 83,222" stroke="#86EFAC" stroke-width="2" fill="none" opacity="0.6"/><path d="M142.5,255 Q137.5,229 140.5,221" stroke="#86EFAC" stroke-width="2" fill="none" opacity="0.6"/><path d="M200,255 Q195,228 198,220" stroke="#86EFAC" stroke-width="2" fill="none" opacity="0.6"/><path d="M257.5,255 Q252.5,227 255.5,219" stroke="#86EFAC" stroke-width="2" fill="none" opacity="0.6"/><ellipse cx="90" cy="100" rx="8" ry="5" fill="#3B82F6" opacity="0.7"/><path d="M82,100 L76,95 L76,105 Z" fill="#3B82F6" opacity="0.5"/><ellipse cx="126.66666666666666" cy="143" rx="8" ry="5" fill="#EF4444" opacity="0.7"/><path d="M118.66666666666666,143 L112.66666666666666,138 L112.66666666666666,148 Z" fill="#EF4444" opacity="0.5"/><ellipse cx="163.33333333333331" cy="186" rx="8" ry="5" fill="#F59E0B" opacity="0.7"/><path d="M155.33333333333331,186 L149.33333333333331,181 L149.33333333333331,191 Z" fill="#F59E0B" opacity="0.5"/><ellipse cx="200" cy="100" rx="8" ry="5" fill="#EC4899" opacity="0.7"/><path d="M192,100 L186,95 L186,105 Z" fill="#EC4899" opacity="0.5"/><ellipse cx="236.66666666666666" cy="143" rx="8" ry="5" fill="#10B981" opacity="0.7"/><path d="M228.66666666666666,143 L222.66666666666666,138 L222.66666666666666,148 Z" fill="#10B981" opacity="0.5"/><ellipse cx="273.33333333333337" cy="186" rx="8" ry="5" fill="#8B5CF6" opacity="0.7"/><path d="M265.33333333333337,186 L259.33333333333337,181 L259.33333333333337,191 Z" fill="#8B5CF6" opacity="0.5"/><circle cx="315" cy="110" r="3" fill="white" opacity="0.3"/><circle cx="310" cy="100" r="2" fill="white" opacity="0.2"/><text x="200" y="290" text-anchor="middle" fill="#475569" font-size="16" font-family="system-ui" font-weight="600">125 Gallon</text></svg>