<svg xmlns="http://www.w3.org/2000/svg" viewBox="0 0 400 300" width="400" height="300"><defs><linearGradient id="tbg3" x1="0%" y1="0%" x2="0%" y2="100%"><stop offset="0%" style="stop-color:#F0F9FF"/><stop offset="100%" style="stop-color:#E0F2FE"/></linearGradient></defs><rect width="400" height="300" rx="16" fill="url(#tbg3)"/><rect x="113" y="111" width="174" height="118" rx="4" fill="none" stroke="#94A3B8" stroke-width="3" opacity="0.6"/><rect x="116" y="119" width="168" height="107" rx="2" fill="#BFDBFE" opacity="0.4"/><rect x="116" y="217" width="168" height="9" fill="#F5DEB3" opacity="0.5"/><path d="M128,224 Q123,206 126,198" stroke="#86EFAC" stroke-width="2" fill="none" opacity="0.6"/><path d="M200,224 Q195,205 198,197" stroke="#86EFAC" stroke-width="2" fill="none" opacity="0.6"/><ellipse cx="133" cy="131" rx="8" ry="5" fill="#3B82F6" opacity="0.7"/><path d="M125,131 L119,126 L119,136 Z" fill="#3B82F6" opacity="0.5"/><ellipse cx="200" cy="158.5" rx="8" ry="5" fill="#EF4444" opacity="0.7"/><path d="M192,158.5 L186,153.5 L186,163.5 Z" fill="#EF4444" opacity="0.5"/><circle cx="272" cy="141" r="3" fill="white" opacity="0.3"/><circle cx="267" cy="131" r="2" fill="white" opacity="0.2"/><text x="200" y="259" text-anchor="middle" fill="#475569" font-size="16" font-family="system-ui" font-weight="600">15 Gallon</text></svg>