<svg xmlns="http://www.w3.org/2000/svg" viewBox="0 0 400 300" width="400" height="300"><defs><linearGradient id="tbg4" x1="0%" y1="0%" x2="0%" y2="100%"><stop offset="0%" style="stop-color:#F0F9FF"/><stop offset="100%" style="stop-color:#E0F2FE"/></linearGradient></defs><rect width="400" height="300" rx="16" fill="url(#tbg4)"/><rect x="111" y="109.5" width="178" height="121" rx="4" fill="none" stroke="#94A3B8" stroke-width="3" opacity="0.6"/><rect x="114" y="117.5" width="172" height="110" rx="2" fill="#BFDBFE" opacity="0.4"/><rect x="114" y="218.5" width="172" height="9" fill="#F5DEB3" opacity="0.5"/><path d="M126,225.5 Q121,206.5 124,198.5" stroke="#86EFAC" stroke-width="2" fill="none" opacity="0.6"/><path d="M200,225.5 Q195,205.5 198,197.5" stroke="#86EFAC" stroke-width="2" fill="none" opacity="0.6"/><ellipse cx="131" cy="129.5" rx="8" ry="5" fill="#3B82F6" opacity="0.7"/><path d="M123,129.5 L117,124.5 L117,134.5 Z" fill="#3B82F6" opacity="0.5"/><ellipse cx="200" cy="157.75" rx="8" ry="5" fill="#EF4444" opacity="0.7"/><path d="M192,157.75 L186,152.75 L186,162.75 Z" fill="#EF4444" opacity="0.5"/><circle cx="274" cy="139.5" r="3" fill="white" opacity="0.3"/><circle cx="269" cy="129.5" r="2" fill="white" opacity="0.2"/><text x="200" y="260.5" text-anchor="middle" fill="#475569" font-size="16" font-family="system-ui" font-weight="600">20 Gallon</text></svg>