<svg xmlns="http://www.w3.org/2000/svg" viewBox="0 0 400 300" width="400" height="300"><defs><linearGradient id="tbg5" x1="0%" y1="0%" x2="0%" y2="100%"><stop offset="0%" style="stop-color:#F0F9FF"/><stop offset="100%" style="stop-color:#E0F2FE"/></linearGradient></defs><rect width="400" height="300" rx="16" fill="url(#tbg5)"/><rect x="107.5" y="107" width="185" height="126" rx="4" fill="none" stroke="#94A3B8" stroke-width="3" opacity="0.6"/><rect x="110.5" y="115" width="179" height="115" rx="2" fill="#BFDBFE" opacity="0.4"/><rect x="110.5" y="221" width="179" height="9" fill="#F5DEB3" opacity="0.5"/><path d="M122.5,228 Q117.5,208 120.5,200" stroke="#86EFAC" stroke-width="2" fill="none" opacity="0.6"/><path d="M200,228 Q195,207 198,199" stroke="#86EFAC" stroke-width="2" fill="none" opacity="0.6"/><ellipse cx="127.5" cy="127" rx="8" ry="5" fill="#3B82F6" opacity="0.7"/><path d="M119.5,127 L113.5,122 L113.5,132 Z" fill="#3B82F6" opacity="0.5"/><ellipse cx="200" cy="156.5" rx="8" ry="5" fill="#EF4444" opacity="0.7"/><path d="M192,156.5 L186,151.5 L186,161.5 Z" fill="#EF4444" opacity="0.5"/><circle cx="277.5" cy="137" r="3" fill="white" opacity="0.3"/><circle cx="272.5" cy="127" r="2" fill="white" opacity="0.2"/><text x="200" y="263" text-anchor="middle" fill="#475569" font-size="16" font-family="system-ui" font-weight="600">29 Gallon</text></svg>