<svg xmlns="http://www.w3.org/2000/svg" viewBox="0 0 400 300" width="400" height="300"><defs><linearGradient id="tbg6" x1="0%" y1="0%" x2="0%" y2="100%"><stop offset="0%" style="stop-color:#F0F9FF"/><stop offset="100%" style="stop-color:#E0F2FE"/></linearGradient></defs><rect width="400" height="300" rx="16" fill="url(#tbg6)"/><rect x="107" y="106.5" width="186" height="127" rx="4" fill="none" stroke="#94A3B8" stroke-width="3" opacity="0.6"/><rect x="110" y="114.5" width="180" height="116" rx="2" fill="#BFDBFE" opacity="0.4"/><rect x="110" y="221.5" width="180" height="9" fill="#F5DEB3" opacity="0.5"/><path d="M122,228.5 Q117,207.5 120,199.5" stroke="#86EFAC" stroke-width="2" fill="none" opacity="0.6"/><path d="M200,228.5 Q195,206.5 198,198.5" stroke="#86EFAC" stroke-width="2" fill="none" opacity="0.6"/><ellipse cx="127" cy="126.5" rx="8" ry="5" fill="#3B82F6" opacity="0.7"/><path d="M119,126.5 L113,121.5 L113,131.5 Z" fill="#3B82F6" opacity="0.5"/><ellipse cx="175.66666666666666" cy="156.25" rx="8" ry="5" fill="#EF4444" opacity="0.7"/><path d="M167.66666666666666,156.25 L161.66666666666666,151.25 L161.66666666666666,161.25 Z" fill="#EF4444" opacity="0.5"/><ellipse cx="224.33333333333331" cy="186" rx="8" ry="5" fill="#F59E0B" opacity="0.7"/><path d="M216.33333333333331,186 L210.33333333333331,181 L210.33333333333331,191 Z" fill="#F59E0B" opacity="0.5"/><circle cx="278" cy="136.5" r="3" fill="white" opacity="0.3"/><circle cx="273" cy="126.5" r="2" fill="white" opacity="0.2"/><text x="200" y="263.5" text-anchor="middle" fill="#475569" font-size="16" font-family="system-ui" font-weight="600">30 Gallon</text></svg>