<svg xmlns="http://www.w3.org/2000/svg" viewBox="0 0 400 300" width="400" height="300"><defs><linearGradient id="tbg7" x1="0%" y1="0%" x2="0%" y2="100%"><stop offset="0%" style="stop-color:#F0F9FF"/><stop offset="100%" style="stop-color:#E0F2FE"/></linearGradient></defs><rect width="400" height="300" rx="16" fill="url(#tbg7)"/><rect x="103.5" y="104" width="193" height="132" rx="4" fill="none" stroke="#94A3B8" stroke-width="3" opacity="0.6"/><rect x="106.5" y="112" width="187" height="121" rx="2" fill="#BFDBFE" opacity="0.4"/><rect x="106.5" y="224" width="187" height="9" fill="#F5DEB3" opacity="0.5"/><path d="M118.5,231 Q113.5,209 116.5,201" stroke="#86EFAC" stroke-width="2" fill="none" opacity="0.6"/><path d="M200,231 Q195,208 198,200" stroke="#86EFAC" stroke-width="2" fill="none" opacity="0.6"/><ellipse cx="123.5" cy="124" rx="8" ry="5" fill="#3B82F6" opacity="0.7"/><path d="M115.5,124 L109.5,119 L109.5,129 Z" fill="#3B82F6" opacity="0.5"/><ellipse cx="174.5" cy="155" rx="8" ry="5" fill="#EF4444" opacity="0.7"/><path d="M166.5,155 L160.5,150 L160.5,160 Z" fill="#EF4444" opacity="0.5"/><ellipse cx="225.5" cy="186" rx="8" ry="5" fill="#F59E0B" opacity="0.7"/><path d="M217.5,186 L211.5,181 L211.5,191 Z" fill="#F59E0B" opacity="0.5"/><circle cx="281.5" cy="134" r="3" fill="white" opacity="0.3"/><circle cx="276.5" cy="124" r="2" fill="white" opacity="0.2"/><text x="200" y="266" text-anchor="middle" fill="#475569" font-size="16" font-family="system-ui" font-weight="600">40 Gallon</text></svg>