<svg xmlns="http://www.w3.org/2000/svg" viewBox="0 0 400 300" width="400" height="300"><defs><linearGradient id="tbg8" x1="0%" y1="0%" x2="0%" y2="100%"><stop offset="0%" style="stop-color:#F0F9FF"/><stop offset="100%" style="stop-color:#E0F2FE"/></linearGradient></defs><rect width="400" height="300" rx="16" fill="url(#tbg8)"/><rect x="97.5" y="99.5" width="205" height="141" rx="4" fill="none" stroke="#94A3B8" stroke-width="3" opacity="0.6"/><rect x="100.5" y="107.5" width="199" height="130" rx="2" fill="#BFDBFE" opacity="0.4"/><rect x="100.5" y="228.5" width="199" height="9" fill="#F5DEB3" opacity="0.5"/><path d="M112.5,235.5 Q107.5,212.5 110.5,204.5" stroke="#86EFAC" stroke-width="2" fill="none" opacity="0.6"/><path d="M200,235.5 Q195,211.5 198,203.5" stroke="#86EFAC" stroke-width="2" fill="none" opacity="0.6"/><ellipse cx="117.5" cy="119.5" rx="8" ry="5" fill="#3B82F6" opacity="0.7"/><path d="M109.5,119.5 L103.5,114.5 L103.5,124.5 Z" fill="#3B82F6" opacity="0.5"/><ellipse cx="158.75" cy="152.75" rx="8" ry="5" fill="#EF4444" opacity="0.7"/><path d="M150.75,152.75 L144.75,147.75 L144.75,157.75 Z" fill="#EF4444" opacity="0.5"/><ellipse cx="200" cy="186" rx="8" ry="5" fill="#F59E0B" opacity="0.7"/><path d="M192,186 L186,181 L186,191 Z" fill="#F59E0B" opacity="0.5"/><ellipse cx="241.25" cy="119.5" rx="8" ry="5" fill="#EC4899" opacity="0.7"/><path d="M233.25,119.5 L227.25,114.5 L227.25,124.5 Z" fill="#EC4899" opacity="0.5"/><circle cx="287.5" cy="129.5" r="3" fill="white" opacity="0.3"/><circle cx="282.5" cy="119.5" r="2" fill="white" opacity="0.2"/><text x="200" y="270.5" text-anchor="middle" fill="#475569" font-size="16" font-family="system-ui" font-weight="600">55 Gallon</text></svg>