<svg xmlns="http://www.w3.org/2000/svg" viewBox="0 0 400 300" width="400" height="300"><defs><linearGradient id="tbg9" x1="0%" y1="0%" x2="0%" y2="100%"><stop offset="0%" style="stop-color:#F0F9FF"/><stop offset="100%" style="stop-color:#E0F2FE"/></linearGradient></defs><rect width="400" height="300" rx="16" fill="url(#tbg9)"/><rect x="89.5" y="94" width="221" height="152" rx="4" fill="none" stroke="#94A3B8" stroke-width="3" opacity="0.6"/><rect x="92.5" y="102" width="215" height="141" rx="2" fill="#BFDBFE" opacity="0.4"/><rect x="92.5" y="234" width="215" height="9" fill="#F5DEB3" opacity="0.5"/><path d="M104.5,241 Q99.5,217 102.5,209" stroke="#86EFAC" stroke-width="2" fill="none" opacity="0.6"/><path d="M200,241 Q195,216 198,208" stroke="#86EFAC" stroke-width="2" fill="none" opacity="0.6"/><ellipse cx="109.5" cy="114" rx="8" ry="5" fill="#3B82F6" opacity="0.7"/><path d="M101.5,114 L95.5,109 L95.5,119 Z" fill="#3B82F6" opacity="0.5"/><ellipse cx="139.66666666666666" cy="150" rx="8" ry="5" fill="#EF4444" opacity="0.7"/><path d="M131.66666666666666,150 L125.66666666666666,145 L125.66666666666666,155 Z" fill="#EF4444" opacity="0.5"/><ellipse cx="169.83333333333334" cy="186" rx="8" ry="5" fill="#F59E0B" opacity="0.7"/><path d="M161.83333333333334,186 L155.83333333333334,181 L155.83333333333334,191 Z" fill="#F59E0B" opacity="0.5"/><ellipse cx="200" cy="114" rx="8" ry="5" fill="#EC4899" opacity="0.7"/><path d="M192,114 L186,109 L186,119 Z" fill="#EC4899" opacity="0.5"/><ellipse cx="230.16666666666669" cy="150" rx="8" ry="5" fill="#10B981" opacity="0.7"/><path d="M222.16666666666669,150 L216.16666666666669,145 L216.16666666666669,155 Z" fill="#10B981" opacity="0.5"/><ellipse cx="260.33333333333337" cy="186" rx="8" ry="5" fill="#8B5CF6" opacity="0.7"/><path d="M252.33333333333337,186 L246.33333333333337,181 L246.33333333333337,191 Z" fill="#8B5CF6" opacity="0.5"/><circle cx="295.5" cy="124" r="3" fill="white" opacity="0.3"/><circle cx="290.5" cy="114" r="2" fill="white" opacity="0.2"/><text x="200" y="276" text-anchor="middle" fill="#475569" font-size="16" font-family="system-ui" font-weight="600">75 Gallon</text></svg>