<svg xmlns="http://www.w3.org/2000/svg" viewBox="0 0 400 300" width="400" height="300">
  <defs>
    <linearGradient id="pbg_23" x1="0%" y1="0%" x2="0%" y2="100%">
      <stop offset="0%" style="stop-color:#ECFDF5"/>
      <stop offset="100%" style="stop-color:#D1FAE5"/>
    </linearGradient>
  </defs>
  <rect width="400" height="300" rx="16" fill="url(#pbg_23)"/>
  
  <!-- Substrate -->
  <ellipse cx="200" cy="285" rx="210" ry="20" fill="#D2B48C" opacity="0.3"/>
  
  <line x1="143" y1="270" x2="141" y2="63" stroke="#10B981" stroke-width="3" opacity="0.6"/><ellipse cx="125" cy="63" rx="15" ry="6" fill="#34D399" opacity="0.7" transform="rotate(-20 125 63)"/><ellipse cx="161" cy="92.57142857142857" rx="15" ry="6" fill="#10B981" opacity="0.7" transform="rotate(20 161 92.57142857142857)"/><ellipse cx="125" cy="122.14285714285714" rx="15" ry="6" fill="#34D399" opacity="0.7" transform="rotate(-20 125 122.14285714285714)"/><ellipse cx="161" cy="151.71428571428572" rx="15" ry="6" fill="#10B981" opacity="0.7" transform="rotate(20 161 151.71428571428572)"/><ellipse cx="125" cy="181.28571428571428" rx="15" ry="6" fill="#34D399" opacity="0.7" transform="rotate(-20 125 181.28571428571428)"/><ellipse cx="161" cy="210.85714285714286" rx="15" ry="6" fill="#10B981" opacity="0.7" transform="rotate(20 161 210.85714285714286)"/><ellipse cx="125" cy="240.42857142857144" rx="15" ry="6" fill="#34D399" opacity="0.7" transform="rotate(-20 125 240.42857142857144)"/><line x1="193" y1="270" x2="191" y2="63" stroke="#10B981" stroke-width="3" opacity="0.6"/><ellipse cx="175" cy="63" rx="15" ry="6" fill="#34D399" opacity="0.7" transform="rotate(-20 175 63)"/><ellipse cx="211" cy="92.57142857142857" rx="15" ry="6" fill="#10B981" opacity="0.7" transform="rotate(20 211 92.57142857142857)"/><ellipse cx="175" cy="122.14285714285714" rx="15" ry="6" fill="#34D399" opacity="0.7" transform="rotate(-20 175 122.14285714285714)"/><ellipse cx="211" cy="151.71428571428572" rx="15" ry="6" fill="#10B981" opacity="0.7" transform="rotate(20 211 151.71428571428572)"/><ellipse cx="175" cy="181.28571428571428" rx="15" ry="6" fill="#34D399" opacity="0.7" transform="rotate(-20 175 181.28571428571428)"/><ellipse cx="211" cy="210.85714285714286" rx="15" ry="6" fill="#10B981" opacity="0.7" transform="rotate(20 211 210.85714285714286)"/><ellipse cx="175" cy="240.42857142857144" rx="15" ry="6" fill="#34D399" opacity="0.7" transform="rotate(-20 175 240.42857142857144)"/><line x1="243" y1="270" x2="241" y2="63" stroke="#10B981" stroke-width="3" opacity="0.6"/><ellipse cx="225" cy="63" rx="15" ry="6" fill="#34D399" opacity="0.7" transform="rotate(-20 225 63)"/><ellipse cx="261" cy="92.57142857142857" rx="15" ry="6" fill="#10B981" opacity="0.7" transform="rotate(20 261 92.57142857142857)"/><ellipse cx="225" cy="122.14285714285714" rx="15" ry="6" fill="#34D399" opacity="0.7" transform="rotate(-20 225 122.14285714285714)"/><ellipse cx="261" cy="151.71428571428572" rx="15" ry="6" fill="#10B981" opacity="0.7" transform="rotate(20 261 151.71428571428572)"/><ellipse cx="225" cy="181.28571428571428" rx="15" ry="6" fill="#34D399" opacity="0.7" transform="rotate(-20 225 181.28571428571428)"/><ellipse cx="261" cy="210.85714285714286" rx="15" ry="6" fill="#10B981" opacity="0.7" transform="rotate(20 261 210.85714285714286)"/><ellipse cx="225" cy="240.42857142857144" rx="15" ry="6" fill="#34D399" opacity="0.7" transform="rotate(-20 225 240.42857142857144)"/><line x1="293" y1="270" x2="291" y2="63" stroke="#10B981" stroke-width="3" opacity="0.6"/><ellipse cx="275" cy="63" rx="15" ry="6" fill="#34D399" opacity="0.7" transform="rotate(-20 275 63)"/><ellipse cx="311" cy="92.57142857142857" rx="15" ry="6" fill="#10B981" opacity="0.7" transform="rotate(20 311 92.57142857142857)"/><ellipse cx="275" cy="122.14285714285714" rx="15" ry="6" fill="#34D399" opacity="0.7" transform="rotate(-20 275 122.14285714285714)"/><ellipse cx="311" cy="151.71428571428572" rx="15" ry="6" fill="#10B981" opacity="0.7" transform="rotate(20 311 151.71428571428572)"/><ellipse cx="275" cy="181.28571428571428" rx="15" ry="6" fill="#34D399" opacity="0.7" transform="rotate(-20 275 181.28571428571428)"/><ellipse cx="311" cy="210.85714285714286" rx="15" ry="6" fill="#10B981" opacity="0.7" transform="rotate(20 311 210.85714285714286)"/><ellipse cx="275" cy="240.42857142857144" rx="15" ry="6" fill="#34D399" opacity="0.7" transform="rotate(-20 275 240.42857142857144)"/>
</svg>