<svg xmlns="http://www.w3.org/2000/svg" viewBox="0 0 400 300" width="400" height="300">
  <defs>
    <linearGradient id="pbg_1" x1="0%" y1="0%" x2="0%" y2="100%">
      <stop offset="0%" style="stop-color:#ECFDF5"/>
      <stop offset="100%" style="stop-color:#D1FAE5"/>
    </linearGradient>
  </defs>
  <rect width="400" height="300" rx="16" fill="url(#pbg_1)"/>
  
  <!-- Substrate -->
  <ellipse cx="200" cy="285" rx="210" ry="20" fill="#D2B48C" opacity="0.3"/>
  
  
      <path d="M200,250 Q161.123370995813,235.1221237653334 118.24674199162598,220.2442475306668 Q187.123370995813,235.1221237653334 200,250" 
            fill="#10B981" opacity="0.6" stroke="#059669" stroke-width="0.5"/><path d="M200,250 Q174.123370995813,235.1221237653334 118.24674199162598,220.2442475306668" fill="none" stroke="#6EE7B7" stroke-width="0.8" opacity="0.3"/>
      <path d="M200,250 Q140.35924659157237,220.14848875271008 136.71849318314474,190.29697750542016 Q166.35924659157237,220.14848875271008 200,250" 
            fill="#059669" opacity="0.63" stroke="#059669" stroke-width="0.5"/><path d="M200,250 Q153.35924659157237,220.14848875271008 136.71849318314474,190.29697750542016" fill="none" stroke="#6EE7B7" stroke-width="0.8" opacity="0.3"/>
      <path d="M200,250 Q184.77053017729668,210.05759935070807 165.54106035459338,170.11519870141615 Q210.77053017729668,210.05759935070807 200,250" 
            fill="#10B981" opacity="0.6599999999999999" stroke="#059669" stroke-width="0.5"/><path d="M200,250 Q197.77053017729668,210.05759935070807 165.54106035459338,170.11519870141615" fill="none" stroke="#6EE7B7" stroke-width="0.8" opacity="0.3"/>
      <path d="M200,250 Q172,206.5 200,163 Q198,206.5 200,250" 
            fill="#059669" opacity="0.69" stroke="#059669" stroke-width="0.5"/><path d="M200,250 Q185,206.5 200,163" fill="none" stroke="#6EE7B7" stroke-width="0.8" opacity="0.3"/>
      <path d="M200,250 Q219.22946982270332,210.05759935070807 234.45893964540664,170.11519870141615 Q245.22946982270332,210.05759935070807 200,250" 
            fill="#10B981" opacity="0.72" stroke="#059669" stroke-width="0.5"/><path d="M200,250 Q232.22946982270332,210.05759935070807 234.45893964540664,170.11519870141615" fill="none" stroke="#6EE7B7" stroke-width="0.8" opacity="0.3"/>
      <path d="M200,250 Q203.64075340842763,220.14848875271008 263.28150681685526,190.2969775054202 Q229.64075340842763,220.14848875271008 200,250" 
            fill="#059669" opacity="0.75" stroke="#059669" stroke-width="0.5"/><path d="M200,250 Q216.64075340842763,220.14848875271008 263.28150681685526,190.2969775054202" fill="none" stroke="#6EE7B7" stroke-width="0.8" opacity="0.3"/>
</svg>