<svg xmlns="http://www.w3.org/2000/svg" viewBox="0 0 400 300" width="400" height="300">
  <defs>
    <linearGradient id="pbg_13" x1="0%" y1="0%" x2="0%" y2="100%">
      <stop offset="0%" style="stop-color:#ECFDF5"/>
      <stop offset="100%" style="stop-color:#D1FAE5"/>
    </linearGradient>
  </defs>
  <rect width="400" height="300" rx="16" fill="url(#pbg_13)"/>
  
  <!-- Substrate -->
  <ellipse cx="200" cy="285" rx="210" ry="20" fill="#D2B48C" opacity="0.3"/>
  
  
      <path d="M200,250 Q149.43752061520323,230.50485183043688 92.87504123040645,211.00970366087375 Q173.43752061520323,230.50485183043688 200,250" 
            fill="#10B981" opacity="0.6" stroke="#059669" stroke-width="0.5"/><path d="M200,250 Q161.43752061520323,230.50485183043688 92.87504123040645,211.00970366087375" fill="none" stroke="#6EE7B7" stroke-width="0.8" opacity="0.3"/>
      <path d="M200,250 Q127.77885960339958,215.30059854650293 109.55771920679918,180.60119709300585 Q151.77885960339958,215.30059854650293 200,250" 
            fill="#059669" opacity="0.63" stroke="#059669" stroke-width="0.5"/><path d="M200,250 Q139.77885960339958,215.30059854650293 109.55771920679918,180.60119709300585" fill="none" stroke="#6EE7B7" stroke-width="0.8" opacity="0.3"/>
      <path d="M200,250 Q170.3061431279904,203.30833347552746 134.6122862559808,156.61666695105492 Q194.3061431279904,203.30833347552746 200,250" 
            fill="#10B981" opacity="0.6599999999999999" stroke="#059669" stroke-width="0.5"/><path d="M200,250 Q182.3061431279904,203.30833347552746 134.6122862559808,156.61666695105492" fill="none" stroke="#6EE7B7" stroke-width="0.8" opacity="0.3"/>
      <path d="M200,250 Q155.85976942825644,195.63813380735107 165.71953885651288,141.27626761470214 Q179.85976942825644,195.63813380735107 200,250" 
            fill="#059669" opacity="0.69" stroke="#059669" stroke-width="0.5"/><path d="M200,250 Q167.85976942825644,195.63813380735107 165.71953885651288,141.27626761470214" fill="none" stroke="#6EE7B7" stroke-width="0.8" opacity="0.3"/>
      <path d="M200,250 Q203,193 200,136 Q227,193 200,250" 
            fill="#10B981" opacity="0.72" stroke="#059669" stroke-width="0.5"/><path d="M200,250 Q215,193 200,136" fill="none" stroke="#6EE7B7" stroke-width="0.8" opacity="0.3"/>
      <path d="M200,250 Q190.1402305717436,195.63813380735107 234.28046114348714,141.27626761470214 Q214.1402305717436,195.63813380735107 200,250" 
            fill="#059669" opacity="0.75" stroke="#059669" stroke-width="0.5"/><path d="M200,250 Q202.1402305717436,195.63813380735107 234.28046114348714,141.27626761470214" fill="none" stroke="#6EE7B7" stroke-width="0.8" opacity="0.3"/>
      <path d="M200,250 Q235.69385687200963,203.30833347552746 265.38771374401927,156.61666695105492 Q259.69385687200963,203.30833347552746 200,250" 
            fill="#10B981" opacity="0.78" stroke="#059669" stroke-width="0.5"/><path d="M200,250 Q247.69385687200963,203.30833347552746 265.38771374401927,156.61666695105492" fill="none" stroke="#6EE7B7" stroke-width="0.8" opacity="0.3"/>
      <path d="M200,250 Q218.2211403966004,215.30059854650293 290.4422807932008,180.60119709300585 Q242.2211403966004,215.30059854650293 200,250" 
            fill="#059669" opacity="0.8099999999999999" stroke="#059669" stroke-width="0.5"/><path d="M200,250 Q230.2211403966004,215.30059854650293 290.4422807932008,180.60119709300585" fill="none" stroke="#6EE7B7" stroke-width="0.8" opacity="0.3"/>
</svg>