<svg xmlns="http://www.w3.org/2000/svg" viewBox="0 0 400 300" width="400" height="300">
  <defs>
    <linearGradient id="pbg_21" x1="0%" y1="0%" x2="0%" y2="100%">
      <stop offset="0%" style="stop-color:#ECFDF5"/>
      <stop offset="100%" style="stop-color:#D1FAE5"/>
    </linearGradient>
  </defs>
  <rect width="400" height="300" rx="16" fill="url(#pbg_21)"/>
  
  <!-- Substrate -->
  <ellipse cx="200" cy="285" rx="210" ry="20" fill="#D2B48C" opacity="0.3"/>
  
  <circle cx="250" cy="160" r="9" fill="#0D9488" opacity="0.5020914726150837"/><circle cx="255.2470346576958" cy="172.56559480312316" r="9" fill="#0D9488" opacity="0.726725372816756"/><circle cx="248.14505856168552" cy="184.4856027908612" r="9" fill="#0D9488" opacity="0.6898397581618841"/><circle cx="231.20561893463707" cy="190.06559480312316" r="9" fill="#0D9488" opacity="0.7609070089841964"/><circle cx="213.63449339873398" cy="189.37385910970573" r="9" fill="#0D9488" opacity="0.6628672704518886"/><circle cx="200" cy="188" r="9" fill="#0D9488" opacity="0.7941175823996085"/><circle cx="186.36550660126605" cy="189.37385910970573" r="9" fill="#0D9488" opacity="0.5956523703817285"/><circle cx="168.79438106536296" cy="190.06559480312316" r="9" fill="#0D9488" opacity="0.5426300487045999"/><circle cx="151.85494143831448" cy="184.4856027908612" r="9" fill="#0D9488" opacity="0.7096928397741624"/><circle cx="144.7529653423042" cy="172.56559480312316" r="9" fill="#0D9488" opacity="0.7054992756527998"/><circle cx="150" cy="160" r="9" fill="#0D9488" opacity="0.5758019934891203"/><circle cx="160.14138302818046" cy="150.93440519687684" r="9" fill="#0D9488" opacity="0.5844319578255843"/><circle cx="167.24335912419076" cy="143.34063513038808" r="9" fill="#0D9488" opacity="0.7703676317938226"/><circle cx="172.42709370538975" cy="133.43440519687684" r="9" fill="#0D9488" opacity="0.7766654703778444"/><circle cx="182.73279396123922" cy="122.79990296904501" r="9" fill="#0D9488" opacity="0.563169428605412"/><circle cx="200" cy="118" r="9" fill="#0D9488" opacity="0.7009994666727853"/><circle cx="217.26720603876078" cy="122.79990296904498" r="9" fill="#0D9488" opacity="0.5736244426145435"/><circle cx="227.57290629461025" cy="133.4344051968768" r="9" fill="#0D9488" opacity="0.57463449243019"/><circle cx="232.75664087580924" cy="143.34063513038808" r="9" fill="#0D9488" opacity="0.5673746664238681"/><circle cx="239.85861697181954" cy="150.93440519687684" r="9" fill="#0D9488" opacity="0.6364214938117498"/><ellipse cx="200" cy="160" rx="50" ry="38" fill="#14B8A6" opacity="0.6"/>
</svg>