<svg xmlns="http://www.w3.org/2000/svg" viewBox="0 0 400 300" width="400" height="300">
  <defs>
    <linearGradient id="pbg_7" x1="0%" y1="0%" x2="0%" y2="100%">
      <stop offset="0%" style="stop-color:#ECFDF5"/>
      <stop offset="100%" style="stop-color:#D1FAE5"/>
    </linearGradient>
  </defs>
  <rect width="400" height="300" rx="16" fill="url(#pbg_7)"/>
  
  <!-- Substrate -->
  <ellipse cx="200" cy="285" rx="210" ry="20" fill="#D2B48C" opacity="0.3"/>
  
  
      <ellipse cx="114" cy="94" rx="18" ry="10.799999999999999" fill="#10B981" opacity="0.7"/>
      <line x1="114" y1="104.8" x2="113" y2="148.8" stroke="#059669" stroke-width="1.5" opacity="0.4"/>
      <ellipse cx="164" cy="94" rx="18" ry="10.799999999999999" fill="#10B981" opacity="0.7999999999999999"/>
      <line x1="164" y1="104.8" x2="163" y2="148.8" stroke="#059669" stroke-width="1.5" opacity="0.4"/>
      <ellipse cx="214" cy="94" rx="18" ry="10.799999999999999" fill="#10B981" opacity="0.8999999999999999"/>
      <line x1="214" y1="104.8" x2="213" y2="148.8" stroke="#059669" stroke-width="1.5" opacity="0.4"/>
      <ellipse cx="264" cy="94" rx="18" ry="10.799999999999999" fill="#10B981" opacity="0.7"/>
      <line x1="264" y1="104.8" x2="263" y2="148.8" stroke="#059669" stroke-width="1.5" opacity="0.4"/>
      <ellipse cx="314" cy="94" rx="18" ry="10.799999999999999" fill="#10B981" opacity="0.7999999999999999"/>
      <line x1="314" y1="104.8" x2="313" y2="148.8" stroke="#059669" stroke-width="1.5" opacity="0.4"/>
      <ellipse cx="364" cy="94" rx="18" ry="10.799999999999999" fill="#10B981" opacity="0.8999999999999999"/>
      <line x1="364" y1="104.8" x2="363" y2="148.8" stroke="#059669" stroke-width="1.5" opacity="0.4"/>
      <ellipse cx="414" cy="94" rx="18" ry="10.799999999999999" fill="#10B981" opacity="0.7"/>
      <line x1="414" y1="104.8" x2="413" y2="148.8" stroke="#059669" stroke-width="1.5" opacity="0.4"/><line x1="0" y1="70" x2="400" y2="70" stroke="#6EE7B7" stroke-width="1" opacity="0.2"/>
</svg>