<svg xmlns="http://www.w3.org/2000/svg" viewBox="0 0 400 300" width="400" height="300">
  <defs>
    <linearGradient id="pbg_10" x1="0%" y1="0%" x2="0%" y2="100%">
      <stop offset="0%" style="stop-color:#ECFDF5"/>
      <stop offset="100%" style="stop-color:#D1FAE5"/>
    </linearGradient>
  </defs>
  <rect width="400" height="300" rx="16" fill="url(#pbg_10)"/>
  
  <!-- Substrate -->
  <ellipse cx="200" cy="285" rx="210" ry="20" fill="#D2B48C" opacity="0.3"/>
  
  
        <path d="M50,200 Q46,176 48,171" stroke="#4ADE80" stroke-width="2" fill="none" opacity="0.7"/>
        <path d="M53,200 Q57,179 55,173" stroke="#22C55E" stroke-width="2" fill="none" opacity="0.6"/>
        <path d="M92,200 Q88,176 90,171" stroke="#4ADE80" stroke-width="2" fill="none" opacity="0.7"/>
        <path d="M95,200 Q99,179 97,173" stroke="#22C55E" stroke-width="2" fill="none" opacity="0.6"/>
        <path d="M134,200 Q130,176 132,171" stroke="#4ADE80" stroke-width="2" fill="none" opacity="0.7"/>
        <path d="M137,200 Q141,179 139,173" stroke="#22C55E" stroke-width="2" fill="none" opacity="0.6"/>
        <path d="M176,200 Q172,176 174,171" stroke="#4ADE80" stroke-width="2" fill="none" opacity="0.7"/>
        <path d="M179,200 Q183,179 181,173" stroke="#22C55E" stroke-width="2" fill="none" opacity="0.6"/>
        <path d="M218,200 Q214,176 216,171" stroke="#4ADE80" stroke-width="2" fill="none" opacity="0.7"/>
        <path d="M221,200 Q225,179 223,173" stroke="#22C55E" stroke-width="2" fill="none" opacity="0.6"/>
        <path d="M260,200 Q256,176 258,171" stroke="#4ADE80" stroke-width="2" fill="none" opacity="0.7"/>
        <path d="M263,200 Q267,179 265,173" stroke="#22C55E" stroke-width="2" fill="none" opacity="0.6"/>
        <path d="M302,200 Q298,176 300,171" stroke="#4ADE80" stroke-width="2" fill="none" opacity="0.7"/>
        <path d="M305,200 Q309,179 307,173" stroke="#22C55E" stroke-width="2" fill="none" opacity="0.6"/>
        <path d="M344,200 Q340,176 342,171" stroke="#4ADE80" stroke-width="2" fill="none" opacity="0.7"/>
        <path d="M347,200 Q351,179 349,173" stroke="#22C55E" stroke-width="2" fill="none" opacity="0.6"/>
        <path d="M70,222 Q66,198 68,193" stroke="#22C55E" stroke-width="2" fill="none" opacity="0.7"/>
        <path d="M73,222 Q77,201 75,195" stroke="#4ADE80" stroke-width="2" fill="none" opacity="0.6"/>
        <path d="M112,222 Q108,198 110,193" stroke="#22C55E" stroke-width="2" fill="none" opacity="0.7"/>
        <path d="M115,222 Q119,201 117,195" stroke="#4ADE80" stroke-width="2" fill="none" opacity="0.6"/>
        <path d="M154,222 Q150,198 152,193" stroke="#22C55E" stroke-width="2" fill="none" opacity="0.7"/>
        <path d="M157,222 Q161,201 159,195" stroke="#4ADE80" stroke-width="2" fill="none" opacity="0.6"/>
        <path d="M196,222 Q192,198 194,193" stroke="#22C55E" stroke-width="2" fill="none" opacity="0.7"/>
        <path d="M199,222 Q203,201 201,195" stroke="#4ADE80" stroke-width="2" fill="none" opacity="0.6"/>
        <path d="M238,222 Q234,198 236,193" stroke="#22C55E" stroke-width="2" fill="none" opacity="0.7"/>
        <path d="M241,222 Q245,201 243,195" stroke="#4ADE80" stroke-width="2" fill="none" opacity="0.6"/>
        <path d="M280,222 Q276,198 278,193" stroke="#22C55E" stroke-width="2" fill="none" opacity="0.7"/>
        <path d="M283,222 Q287,201 285,195" stroke="#4ADE80" stroke-width="2" fill="none" opacity="0.6"/>
        <path d="M322,222 Q318,198 320,193" stroke="#22C55E" stroke-width="2" fill="none" opacity="0.7"/>
        <path d="M325,222 Q329,201 327,195" stroke="#4ADE80" stroke-width="2" fill="none" opacity="0.6"/>
        <path d="M364,222 Q360,198 362,193" stroke="#22C55E" stroke-width="2" fill="none" opacity="0.7"/>
        <path d="M367,222 Q371,201 369,195" stroke="#4ADE80" stroke-width="2" fill="none" opacity="0.6"/>
        <path d="M50,244 Q46,220 48,215" stroke="#4ADE80" stroke-width="2" fill="none" opacity="0.7"/>
        <path d="M53,244 Q57,223 55,217" stroke="#22C55E" stroke-width="2" fill="none" opacity="0.6"/>
        <path d="M92,244 Q88,220 90,215" stroke="#4ADE80" stroke-width="2" fill="none" opacity="0.7"/>
        <path d="M95,244 Q99,223 97,217" stroke="#22C55E" stroke-width="2" fill="none" opacity="0.6"/>
        <path d="M134,244 Q130,220 132,215" stroke="#4ADE80" stroke-width="2" fill="none" opacity="0.7"/>
        <path d="M137,244 Q141,223 139,217" stroke="#22C55E" stroke-width="2" fill="none" opacity="0.6"/>
        <path d="M176,244 Q172,220 174,215" stroke="#4ADE80" stroke-width="2" fill="none" opacity="0.7"/>
        <path d="M179,244 Q183,223 181,217" stroke="#22C55E" stroke-width="2" fill="none" opacity="0.6"/>
        <path d="M218,244 Q214,220 216,215" stroke="#4ADE80" stroke-width="2" fill="none" opacity="0.7"/>
        <path d="M221,244 Q225,223 223,217" stroke="#22C55E" stroke-width="2" fill="none" opacity="0.6"/>
        <path d="M260,244 Q256,220 258,215" stroke="#4ADE80" stroke-width="2" fill="none" opacity="0.7"/>
        <path d="M263,244 Q267,223 265,217" stroke="#22C55E" stroke-width="2" fill="none" opacity="0.6"/>
        <path d="M302,244 Q298,220 300,215" stroke="#4ADE80" stroke-width="2" fill="none" opacity="0.7"/>
        <path d="M305,244 Q309,223 307,217" stroke="#22C55E" stroke-width="2" fill="none" opacity="0.6"/>
        <path d="M344,244 Q340,220 342,215" stroke="#4ADE80" stroke-width="2" fill="none" opacity="0.7"/>
        <path d="M347,244 Q351,223 349,217" stroke="#22C55E" stroke-width="2" fill="none" opacity="0.6"/>
        <path d="M70,266 Q66,242 68,237" stroke="#22C55E" stroke-width="2" fill="none" opacity="0.7"/>
        <path d="M73,266 Q77,245 75,239" stroke="#4ADE80" stroke-width="2" fill="none" opacity="0.6"/>
        <path d="M112,266 Q108,242 110,237" stroke="#22C55E" stroke-width="2" fill="none" opacity="0.7"/>
        <path d="M115,266 Q119,245 117,239" stroke="#4ADE80" stroke-width="2" fill="none" opacity="0.6"/>
        <path d="M154,266 Q150,242 152,237" stroke="#22C55E" stroke-width="2" fill="none" opacity="0.7"/>
        <path d="M157,266 Q161,245 159,239" stroke="#4ADE80" stroke-width="2" fill="none" opacity="0.6"/>
        <path d="M196,266 Q192,242 194,237" stroke="#22C55E" stroke-width="2" fill="none" opacity="0.7"/>
        <path d="M199,266 Q203,245 201,239" stroke="#4ADE80" stroke-width="2" fill="none" opacity="0.6"/>
        <path d="M238,266 Q234,242 236,237" stroke="#22C55E" stroke-width="2" fill="none" opacity="0.7"/>
        <path d="M241,266 Q245,245 243,239" stroke="#4ADE80" stroke-width="2" fill="none" opacity="0.6"/>
        <path d="M280,266 Q276,242 278,237" stroke="#22C55E" stroke-width="2" fill="none" opacity="0.7"/>
        <path d="M283,266 Q287,245 285,239" stroke="#4ADE80" stroke-width="2" fill="none" opacity="0.6"/>
        <path d="M322,266 Q318,242 320,237" stroke="#22C55E" stroke-width="2" fill="none" opacity="0.7"/>
        <path d="M325,266 Q329,245 327,239" stroke="#4ADE80" stroke-width="2" fill="none" opacity="0.6"/>
        <path d="M364,266 Q360,242 362,237" stroke="#22C55E" stroke-width="2" fill="none" opacity="0.7"/>
        <path d="M367,266 Q371,245 369,239" stroke="#4ADE80" stroke-width="2" fill="none" opacity="0.6"/>
</svg>