<svg xmlns="http://www.w3.org/2000/svg" viewBox="0 0 400 300" width="400" height="300">
  <defs>
    <linearGradient id="pbg_4" x1="0%" y1="0%" x2="0%" y2="100%">
      <stop offset="0%" style="stop-color:#ECFDF5"/>
      <stop offset="100%" style="stop-color:#D1FAE5"/>
    </linearGradient>
  </defs>
  <rect width="400" height="300" rx="16" fill="url(#pbg_4)"/>
  
  <!-- Substrate -->
  <ellipse cx="200" cy="285" rx="210" ry="20" fill="#D2B48C" opacity="0.3"/>
  
  
      <path d="M200,250 Q163.24398575424118,234.43808347868207 114.48797150848235,218.87616695736412 Q181.24398575424118,234.43808347868207 200,250" 
            fill="#4ADE80" opacity="0.6" stroke="#22C55E" stroke-width="0.5"/><path d="M200,250 Q172.24398575424118,234.43808347868207 114.48797150848235,218.87616695736412" fill="none" stroke="#BBF7D0" stroke-width="0.8" opacity="0.3"/>
      <path d="M200,250 Q145.55455741067195,216.18691044077855 139.1091148213439,182.37382088155712 Q163.55455741067195,216.18691044077855 200,250" 
            fill="#22C55E" opacity="0.63" stroke="#22C55E" stroke-width="0.5"/><path d="M200,250 Q154.55455741067195,216.18691044077855 139.1091148213439,182.37382088155712" fill="none" stroke="#BBF7D0" stroke-width="0.8" opacity="0.3"/>
      <path d="M200,250 Q194.9925537502151,205.85154445444215 177.98510750043022,161.70308890888433 Q212.9925537502151,205.85154445444215 200,250" 
            fill="#4ADE80" opacity="0.6599999999999999" stroke="#22C55E" stroke-width="0.5"/><path d="M200,250 Q203.9925537502151,205.85154445444215 177.98510750043022,161.70308890888433" fill="none" stroke="#BBF7D0" stroke-width="0.8" opacity="0.3"/>
      <path d="M200,250 Q187.0074462497849,205.85154445444215 222.01489249956978,161.70308890888433 Q205.0074462497849,205.85154445444215 200,250" 
            fill="#22C55E" opacity="0.69" stroke="#22C55E" stroke-width="0.5"/><path d="M200,250 Q196.0074462497849,205.85154445444215 222.01489249956978,161.70308890888433" fill="none" stroke="#BBF7D0" stroke-width="0.8" opacity="0.3"/>
      <path d="M200,250 Q236.44544258932805,216.18691044077855 260.8908851786561,182.37382088155712 Q254.44544258932805,216.18691044077855 200,250" 
            fill="#4ADE80" opacity="0.72" stroke="#22C55E" stroke-width="0.5"/><path d="M200,250 Q245.44544258932805,216.18691044077855 260.8908851786561,182.37382088155712" fill="none" stroke="#BBF7D0" stroke-width="0.8" opacity="0.3"/>
</svg>