<svg xmlns="http://www.w3.org/2000/svg" viewBox="0 0 400 300" width="400" height="300">
  <defs>
    <linearGradient id="pbg_0" x1="0%" y1="0%" x2="0%" y2="100%">
      <stop offset="0%" style="stop-color:#ECFDF5"/>
      <stop offset="100%" style="stop-color:#D1FAE5"/>
    </linearGradient>
  </defs>
  <rect width="400" height="300" rx="16" fill="url(#pbg_0)"/>
  
  <!-- Substrate -->
  <ellipse cx="200" cy="285" rx="210" ry="20" fill="#D2B48C" opacity="0.3"/>
  
  
      <path d="M200,250 Q153.19629109834688,231.87293240373955 100.39258219669372,213.7458648074791 Q177.19629109834688,231.87293240373955 200,250" 
            fill="#22C55E" opacity="0.6" stroke="#16A34A" stroke-width="0.5"/><path d="M200,250 Q165.19629109834688,231.87293240373955 100.39258219669372,213.7458648074791" fill="none" stroke="#86EFAC" stroke-width="0.8" opacity="0.3"/>
      <path d="M200,250 Q137.5360778629805,210.6133242496981 129.072155725961,171.22664849939622 Q161.5360778629805,210.6133242496981 200,250" 
            fill="#16A34A" opacity="0.63" stroke="#16A34A" stroke-width="0.5"/><path d="M200,250 Q149.5360778629805,210.6133242496981 129.072155725961,171.22664849939622" fill="none" stroke="#86EFAC" stroke-width="0.8" opacity="0.3"/>
      <path d="M200,250 Q190.1781395332176,198.57432650737218 174.3562790664352,147.14865301474435 Q214.1781395332176,198.57432650737218 200,250" 
            fill="#22C55E" opacity="0.6599999999999999" stroke="#16A34A" stroke-width="0.5"/><path d="M200,250 Q202.1781395332176,198.57432650737218 174.3562790664352,147.14865301474435" fill="none" stroke="#86EFAC" stroke-width="0.8" opacity="0.3"/>
      <path d="M200,250 Q185.8218604667824,198.57432650737218 225.6437209335648,147.14865301474435 Q209.8218604667824,198.57432650737218 200,250" 
            fill="#16A34A" opacity="0.69" stroke="#16A34A" stroke-width="0.5"/><path d="M200,250 Q197.8218604667824,198.57432650737218 225.6437209335648,147.14865301474435" fill="none" stroke="#86EFAC" stroke-width="0.8" opacity="0.3"/>
      <path d="M200,250 Q238.4639221370195,210.6133242496981 270.927844274039,171.22664849939622 Q262.4639221370195,210.6133242496981 200,250" 
            fill="#22C55E" opacity="0.72" stroke="#16A34A" stroke-width="0.5"/><path d="M200,250 Q250.4639221370195,210.6133242496981 270.927844274039,171.22664849939622" fill="none" stroke="#86EFAC" stroke-width="0.8" opacity="0.3"/>
</svg>