<svg xmlns="http://www.w3.org/2000/svg" viewBox="0 0 400 300" width="400" height="300">
  <defs>
    <linearGradient id="pbg_2" x1="0%" y1="0%" x2="0%" y2="100%">
      <stop offset="0%" style="stop-color:#ECFDF5"/>
      <stop offset="100%" style="stop-color:#D1FAE5"/>
    </linearGradient>
  </defs>
  <rect width="400" height="300" rx="16" fill="url(#pbg_2)"/>
  
  <!-- Substrate -->
  <ellipse cx="200" cy="285" rx="210" ry="20" fill="#D2B48C" opacity="0.3"/>
  
  <circle cx="248" cy="160" r="9" fill="#65A30D" opacity="0.6354072406758025"/><circle cx="253.34492162510548" cy="172.13297101099823" r="9" fill="#65A30D" opacity="0.7052808847086357"/><circle cx="246.5270245729356" cy="183.66270343765171" r="9" fill="#65A30D" opacity="0.77858997077286"/><circle cx="230.03004843005212" cy="188.93297101099824" r="9" fill="#65A30D" opacity="0.7229551906943806"/><circle cx="213.01645940998407" cy="188.04237998689254" r="9" fill="#65A30D" opacity="0.5653954884333767"/><circle cx="200" cy="186.6" r="9" fill="#65A30D" opacity="0.5995913457275597"/><circle cx="186.98354059001593" cy="188.0423799868925" r="9" fill="#65A30D" opacity="0.6310970443676287"/><circle cx="169.9699515699479" cy="188.93297101099824" r="9" fill="#65A30D" opacity="0.5518048676319054"/><circle cx="153.4729754270644" cy="183.66270343765174" r="9" fill="#65A30D" opacity="0.7422859269891521"/><circle cx="146.65507837489452" cy="172.13297101099823" r="9" fill="#65A30D" opacity="0.7109783174915325"/><circle cx="152" cy="160" r="9" fill="#65A30D" opacity="0.6365701099290935"/><circle cx="162.04349606077076" cy="151.36702898900177" r="9" fill="#65A30D" opacity="0.5547109459774813"/><circle cx="168.86139311294065" cy="144.16353448359754" r="9" fill="#65A30D" opacity="0.6328150929098353"/><circle cx="173.6026642099747" cy="134.56702898900178" r="9" fill="#65A30D" opacity="0.7033633690025841"/><circle cx="183.3508279499891" cy="124.13138209185821" r="9" fill="#65A30D" opacity="0.56944235222601"/><circle cx="200" cy="119.4" r="9" fill="#65A30D" opacity="0.6088346286805336"/><circle cx="216.64917205001086" cy="124.1313820918582" r="9" fill="#65A30D" opacity="0.5430529688213092"/><circle cx="226.39733579002532" cy="134.56702898900176" r="9" fill="#65A30D" opacity="0.579337354910551"/><circle cx="231.13860688705932" cy="144.16353448359752" r="9" fill="#65A30D" opacity="0.5236877840783851"/><circle cx="237.95650393922924" cy="151.36702898900177" r="9" fill="#65A30D" opacity="0.6777298838143909"/><ellipse cx="200" cy="160" rx="48" ry="38" fill="#84CC16" opacity="0.6"/>
</svg>