<svg xmlns="http://www.w3.org/2000/svg" viewBox="0 0 400 300" width="400" height="300">
  <defs>
    <linearGradient id="pbg_2" x1="0%" y1="0%" x2="0%" y2="100%">
      <stop offset="0%" style="stop-color:#ECFDF5"/>
      <stop offset="100%" style="stop-color:#D1FAE5"/>
    </linearGradient>
  </defs>
  <rect width="400" height="300" rx="16" fill="url(#pbg_2)"/>
  
  <!-- Substrate -->
  <ellipse cx="200" cy="285" rx="210" ry="20" fill="#D2B48C" opacity="0.3"/>
  
  <circle cx="248" cy="160" r="9" fill="#65A30D" opacity="0.5694100416538871"/><circle cx="253.34492162510548" cy="172.13297101099823" r="9" fill="#65A30D" opacity="0.6837999901665313"/><circle cx="246.5270245729356" cy="183.66270343765171" r="9" fill="#65A30D" opacity="0.7013723152081753"/><circle cx="230.03004843005212" cy="188.93297101099824" r="9" fill="#65A30D" opacity="0.5270112082435322"/><circle cx="213.01645940998407" cy="188.04237998689254" r="9" fill="#65A30D" opacity="0.7422468702904854"/><circle cx="200" cy="186.6" r="9" fill="#65A30D" opacity="0.5398793691402127"/><circle cx="186.98354059001593" cy="188.0423799868925" r="9" fill="#65A30D" opacity="0.7671233079290204"/><circle cx="169.9699515699479" cy="188.93297101099824" r="9" fill="#65A30D" opacity="0.7250135901322092"/><circle cx="153.4729754270644" cy="183.66270343765174" r="9" fill="#65A30D" opacity="0.7811822937813211"/><circle cx="146.65507837489452" cy="172.13297101099823" r="9" fill="#65A30D" opacity="0.7526222099153266"/><circle cx="152" cy="160" r="9" fill="#65A30D" opacity="0.7902601413184838"/><circle cx="162.04349606077076" cy="151.36702898900177" r="9" fill="#65A30D" opacity="0.7661132489166258"/><circle cx="168.86139311294065" cy="144.16353448359754" r="9" fill="#65A30D" opacity="0.6488066464246158"/><circle cx="173.6026642099747" cy="134.56702898900178" r="9" fill="#65A30D" opacity="0.5987804217697306"/><circle cx="183.3508279499891" cy="124.13138209185821" r="9" fill="#65A30D" opacity="0.7136385064104925"/><circle cx="200" cy="119.4" r="9" fill="#65A30D" opacity="0.7106602783008678"/><circle cx="216.64917205001086" cy="124.1313820918582" r="9" fill="#65A30D" opacity="0.718703773503097"/><circle cx="226.39733579002532" cy="134.56702898900176" r="9" fill="#65A30D" opacity="0.6433403414485588"/><circle cx="231.13860688705932" cy="144.16353448359752" r="9" fill="#65A30D" opacity="0.7770621481276883"/><circle cx="237.95650393922924" cy="151.36702898900177" r="9" fill="#65A30D" opacity="0.6355492912593611"/><ellipse cx="200" cy="160" rx="48" ry="38" fill="#84CC16" opacity="0.6"/>
</svg>