<svg xmlns="http://www.w3.org/2000/svg" viewBox="0 0 400 300" width="400" height="300">
  <defs>
    <linearGradient id="pbg_17" x1="0%" y1="0%" x2="0%" y2="100%">
      <stop offset="0%" style="stop-color:#ECFDF5"/>
      <stop offset="100%" style="stop-color:#D1FAE5"/>
    </linearGradient>
  </defs>
  <rect width="400" height="300" rx="16" fill="url(#pbg_17)"/>
  
  <!-- Substrate -->
  <ellipse cx="200" cy="285" rx="210" ry="20" fill="#D2B48C" opacity="0.3"/>
  
  <line x1="144" y1="270" x2="143" y2="74" stroke="#10B981" stroke-width="3" opacity="0.6"/><ellipse cx="125" cy="74" rx="16" ry="8" fill="#34D399" opacity="0.7" transform="rotate(-20 125 74)"/><ellipse cx="163" cy="98.5" rx="16" ry="8" fill="#10B981" opacity="0.7" transform="rotate(20 163 98.5)"/><ellipse cx="125" cy="123" rx="16" ry="8" fill="#34D399" opacity="0.7" transform="rotate(-20 125 123)"/><ellipse cx="163" cy="147.5" rx="16" ry="8" fill="#10B981" opacity="0.7" transform="rotate(20 163 147.5)"/><ellipse cx="125" cy="172" rx="16" ry="8" fill="#34D399" opacity="0.7" transform="rotate(-20 125 172)"/><ellipse cx="163" cy="196.5" rx="16" ry="8" fill="#10B981" opacity="0.7" transform="rotate(20 163 196.5)"/><ellipse cx="125" cy="221" rx="16" ry="8" fill="#34D399" opacity="0.7" transform="rotate(-20 125 221)"/><ellipse cx="163" cy="245.5" rx="16" ry="8" fill="#10B981" opacity="0.7" transform="rotate(20 163 245.5)"/><line x1="194" y1="270" x2="193" y2="74" stroke="#10B981" stroke-width="3" opacity="0.6"/><ellipse cx="175" cy="74" rx="16" ry="8" fill="#34D399" opacity="0.7" transform="rotate(-20 175 74)"/><ellipse cx="213" cy="98.5" rx="16" ry="8" fill="#10B981" opacity="0.7" transform="rotate(20 213 98.5)"/><ellipse cx="175" cy="123" rx="16" ry="8" fill="#34D399" opacity="0.7" transform="rotate(-20 175 123)"/><ellipse cx="213" cy="147.5" rx="16" ry="8" fill="#10B981" opacity="0.7" transform="rotate(20 213 147.5)"/><ellipse cx="175" cy="172" rx="16" ry="8" fill="#34D399" opacity="0.7" transform="rotate(-20 175 172)"/><ellipse cx="213" cy="196.5" rx="16" ry="8" fill="#10B981" opacity="0.7" transform="rotate(20 213 196.5)"/><ellipse cx="175" cy="221" rx="16" ry="8" fill="#34D399" opacity="0.7" transform="rotate(-20 175 221)"/><ellipse cx="213" cy="245.5" rx="16" ry="8" fill="#10B981" opacity="0.7" transform="rotate(20 213 245.5)"/><line x1="244" y1="270" x2="243" y2="74" stroke="#10B981" stroke-width="3" opacity="0.6"/><ellipse cx="225" cy="74" rx="16" ry="8" fill="#34D399" opacity="0.7" transform="rotate(-20 225 74)"/><ellipse cx="263" cy="98.5" rx="16" ry="8" fill="#10B981" opacity="0.7" transform="rotate(20 263 98.5)"/><ellipse cx="225" cy="123" rx="16" ry="8" fill="#34D399" opacity="0.7" transform="rotate(-20 225 123)"/><ellipse cx="263" cy="147.5" rx="16" ry="8" fill="#10B981" opacity="0.7" transform="rotate(20 263 147.5)"/><ellipse cx="225" cy="172" rx="16" ry="8" fill="#34D399" opacity="0.7" transform="rotate(-20 225 172)"/><ellipse cx="263" cy="196.5" rx="16" ry="8" fill="#10B981" opacity="0.7" transform="rotate(20 263 196.5)"/><ellipse cx="225" cy="221" rx="16" ry="8" fill="#34D399" opacity="0.7" transform="rotate(-20 225 221)"/><ellipse cx="263" cy="245.5" rx="16" ry="8" fill="#10B981" opacity="0.7" transform="rotate(20 263 245.5)"/>
</svg>