<svg xmlns="http://www.w3.org/2000/svg" viewBox="0 0 400 300" width="400" height="300">
  <defs>
    <linearGradient id="pbg_8" x1="0%" y1="0%" x2="0%" y2="100%">
      <stop offset="0%" style="stop-color:#ECFDF5"/>
      <stop offset="100%" style="stop-color:#D1FAE5"/>
    </linearGradient>
  </defs>
  <rect width="400" height="300" rx="16" fill="url(#pbg_8)"/>
  
  <!-- Substrate -->
  <ellipse cx="200" cy="285" rx="210" ry="20" fill="#D2B48C" opacity="0.3"/>
  
  <circle cx="248" cy="160" r="8" fill="#84CC16" opacity="0.7867977888543721"/><circle cx="253.34492162510548" cy="172.13297101099823" r="8" fill="#84CC16" opacity="0.6097902841810902"/><circle cx="246.5270245729356" cy="183.66270343765171" r="8" fill="#84CC16" opacity="0.6406281048026918"/><circle cx="230.03004843005212" cy="188.93297101099824" r="8" fill="#84CC16" opacity="0.520707376129849"/><circle cx="213.01645940998407" cy="188.04237998689254" r="8" fill="#84CC16" opacity="0.629628444725733"/><circle cx="200" cy="186.6" r="8" fill="#84CC16" opacity="0.728892376514804"/><circle cx="186.98354059001593" cy="188.0423799868925" r="8" fill="#84CC16" opacity="0.6084709266084465"/><circle cx="169.9699515699479" cy="188.93297101099824" r="8" fill="#84CC16" opacity="0.6297557214356541"/><circle cx="153.4729754270644" cy="183.66270343765174" r="8" fill="#84CC16" opacity="0.7488512718709418"/><circle cx="146.65507837489452" cy="172.13297101099823" r="8" fill="#84CC16" opacity="0.5935348853279802"/><circle cx="152" cy="160" r="8" fill="#84CC16" opacity="0.5758944221701119"/><circle cx="162.04349606077076" cy="151.36702898900177" r="8" fill="#84CC16" opacity="0.5129002457574638"/><circle cx="168.86139311294065" cy="144.16353448359754" r="8" fill="#84CC16" opacity="0.6819037610156499"/><circle cx="173.6026642099747" cy="134.56702898900178" r="8" fill="#84CC16" opacity="0.6996272049448149"/><circle cx="183.3508279499891" cy="124.13138209185821" r="8" fill="#84CC16" opacity="0.7408711309897186"/><circle cx="200" cy="119.4" r="8" fill="#84CC16" opacity="0.6745416742475648"/><circle cx="216.64917205001086" cy="124.1313820918582" r="8" fill="#84CC16" opacity="0.5596357853524573"/><circle cx="226.39733579002532" cy="134.56702898900176" r="8" fill="#84CC16" opacity="0.7860541339096441"/><circle cx="231.13860688705932" cy="144.16353448359752" r="8" fill="#84CC16" opacity="0.7940319860457733"/><circle cx="237.95650393922924" cy="151.36702898900177" r="8" fill="#84CC16" opacity="0.5504081898297609"/><ellipse cx="200" cy="160" rx="53" ry="41" fill="#84CC16" opacity="0.6"/>
</svg>