<svg xmlns="http://www.w3.org/2000/svg" viewBox="0 0 400 300" width="400" height="300">
  <defs>
    <linearGradient id="pbg_26" x1="0%" y1="0%" x2="0%" y2="100%">
      <stop offset="0%" style="stop-color:#ECFDF5"/>
      <stop offset="100%" style="stop-color:#D1FAE5"/>
    </linearGradient>
  </defs>
  <rect width="400" height="300" rx="16" fill="url(#pbg_26)"/>
  
  <!-- Substrate -->
  <ellipse cx="200" cy="285" rx="210" ry="20" fill="#D2B48C" opacity="0.3"/>
  
  <line x1="153" y1="270" x2="151" y2="83" stroke="#65A30D" stroke-width="3" opacity="0.6"/><ellipse cx="135" cy="83" rx="15" ry="8" fill="#84CC16" opacity="0.7" transform="rotate(-20 135 83)"/><ellipse cx="171" cy="109.71428571428572" rx="15" ry="8" fill="#65A30D" opacity="0.7" transform="rotate(20 171 109.71428571428572)"/><ellipse cx="135" cy="136.42857142857144" rx="15" ry="8" fill="#84CC16" opacity="0.7" transform="rotate(-20 135 136.42857142857144)"/><ellipse cx="171" cy="163.14285714285714" rx="15" ry="8" fill="#65A30D" opacity="0.7" transform="rotate(20 171 163.14285714285714)"/><ellipse cx="135" cy="189.85714285714286" rx="15" ry="8" fill="#84CC16" opacity="0.7" transform="rotate(-20 135 189.85714285714286)"/><ellipse cx="171" cy="216.57142857142858" rx="15" ry="8" fill="#65A30D" opacity="0.7" transform="rotate(20 171 216.57142857142858)"/><ellipse cx="135" cy="243.28571428571428" rx="15" ry="8" fill="#84CC16" opacity="0.7" transform="rotate(-20 135 243.28571428571428)"/><line x1="203" y1="270" x2="201" y2="83" stroke="#65A30D" stroke-width="3" opacity="0.6"/><ellipse cx="185" cy="83" rx="15" ry="8" fill="#84CC16" opacity="0.7" transform="rotate(-20 185 83)"/><ellipse cx="221" cy="109.71428571428572" rx="15" ry="8" fill="#65A30D" opacity="0.7" transform="rotate(20 221 109.71428571428572)"/><ellipse cx="185" cy="136.42857142857144" rx="15" ry="8" fill="#84CC16" opacity="0.7" transform="rotate(-20 185 136.42857142857144)"/><ellipse cx="221" cy="163.14285714285714" rx="15" ry="8" fill="#65A30D" opacity="0.7" transform="rotate(20 221 163.14285714285714)"/><ellipse cx="185" cy="189.85714285714286" rx="15" ry="8" fill="#84CC16" opacity="0.7" transform="rotate(-20 185 189.85714285714286)"/><ellipse cx="221" cy="216.57142857142858" rx="15" ry="8" fill="#65A30D" opacity="0.7" transform="rotate(20 221 216.57142857142858)"/><ellipse cx="185" cy="243.28571428571428" rx="15" ry="8" fill="#84CC16" opacity="0.7" transform="rotate(-20 185 243.28571428571428)"/><line x1="253" y1="270" x2="251" y2="83" stroke="#65A30D" stroke-width="3" opacity="0.6"/><ellipse cx="235" cy="83" rx="15" ry="8" fill="#84CC16" opacity="0.7" transform="rotate(-20 235 83)"/><ellipse cx="271" cy="109.71428571428572" rx="15" ry="8" fill="#65A30D" opacity="0.7" transform="rotate(20 271 109.71428571428572)"/><ellipse cx="235" cy="136.42857142857144" rx="15" ry="8" fill="#84CC16" opacity="0.7" transform="rotate(-20 235 136.42857142857144)"/><ellipse cx="271" cy="163.14285714285714" rx="15" ry="8" fill="#65A30D" opacity="0.7" transform="rotate(20 271 163.14285714285714)"/><ellipse cx="235" cy="189.85714285714286" rx="15" ry="8" fill="#84CC16" opacity="0.7" transform="rotate(-20 235 189.85714285714286)"/><ellipse cx="271" cy="216.57142857142858" rx="15" ry="8" fill="#65A30D" opacity="0.7" transform="rotate(20 271 216.57142857142858)"/><ellipse cx="235" cy="243.28571428571428" rx="15" ry="8" fill="#84CC16" opacity="0.7" transform="rotate(-20 235 243.28571428571428)"/><line x1="303" y1="270" x2="301" y2="83" stroke="#65A30D" stroke-width="3" opacity="0.6"/><ellipse cx="285" cy="83" rx="15" ry="8" fill="#84CC16" opacity="0.7" transform="rotate(-20 285 83)"/><ellipse cx="321" cy="109.71428571428572" rx="15" ry="8" fill="#65A30D" opacity="0.7" transform="rotate(20 321 109.71428571428572)"/><ellipse cx="285" cy="136.42857142857144" rx="15" ry="8" fill="#84CC16" opacity="0.7" transform="rotate(-20 285 136.42857142857144)"/><ellipse cx="321" cy="163.14285714285714" rx="15" ry="8" fill="#65A30D" opacity="0.7" transform="rotate(20 321 163.14285714285714)"/><ellipse cx="285" cy="189.85714285714286" rx="15" ry="8" fill="#84CC16" opacity="0.7" transform="rotate(-20 285 189.85714285714286)"/><ellipse cx="321" cy="216.57142857142858" rx="15" ry="8" fill="#65A30D" opacity="0.7" transform="rotate(20 321 216.57142857142858)"/><ellipse cx="285" cy="243.28571428571428" rx="15" ry="8" fill="#84CC16" opacity="0.7" transform="rotate(-20 285 243.28571428571428)"/>
</svg>