<svg xmlns="http://www.w3.org/2000/svg" viewBox="0 0 400 300" width="400" height="300">
  <defs>
    <linearGradient id="pbg_27" x1="0%" y1="0%" x2="0%" y2="100%">
      <stop offset="0%" style="stop-color:#ECFDF5"/>
      <stop offset="100%" style="stop-color:#D1FAE5"/>
    </linearGradient>
  </defs>
  <rect width="400" height="300" rx="16" fill="url(#pbg_27)"/>
  
  <!-- Substrate -->
  <ellipse cx="200" cy="285" rx="210" ry="20" fill="#D2B48C" opacity="0.3"/>
  
  
      <path d="M200,250 Q151.7264447879539,231.70192233207672 99.4528895759078,213.40384466415344 Q177.7264447879539,231.70192233207672 200,250" 
            fill="#14B8A6" opacity="0.6" stroke="#0D9488" stroke-width="0.5"/><path d="M200,250 Q164.7264447879539,231.70192233207672 99.4528895759078,213.40384466415344" fill="none" stroke="#5EEAD4" stroke-width="0.8" opacity="0.3"/>
      <path d="M200,250 Q133.08551017584188,213.28607237402275 122.17102035168378,176.5721447480455 Q159.08551017584188,213.28607237402275 200,250" 
            fill="#0D9488" opacity="0.63" stroke="#0D9488" stroke-width="0.5"/><path d="M200,250 Q146.08551017584188,213.28607237402275 122.17102035168378,176.5721447480455" fill="none" stroke="#5EEAD4" stroke-width="0.8" opacity="0.3"/>
      <path d="M200,250 Q180.80973251690511,200.87543828190533 157.61946503381023,151.75087656381066 Q206.80973251690511,200.87543828190533 200,250" 
            fill="#14B8A6" opacity="0.6599999999999999" stroke="#0D9488" stroke-width="0.5"/><path d="M200,250 Q193.80973251690511,200.87543828190533 157.61946503381023,151.75087656381066" fill="none" stroke="#5EEAD4" stroke-width="0.8" opacity="0.3"/>
      <path d="M200,250 Q172,196.5 200,143 Q198,196.5 200,250" 
            fill="#0D9488" opacity="0.69" stroke="#0D9488" stroke-width="0.5"/><path d="M200,250 Q185,196.5 200,143" fill="none" stroke="#5EEAD4" stroke-width="0.8" opacity="0.3"/>
      <path d="M200,250 Q223.19026748309489,200.87543828190533 242.38053496618977,151.75087656381066 Q249.19026748309489,200.87543828190533 200,250" 
            fill="#14B8A6" opacity="0.72" stroke="#0D9488" stroke-width="0.5"/><path d="M200,250 Q236.19026748309489,200.87543828190533 242.38053496618977,151.75087656381066" fill="none" stroke="#5EEAD4" stroke-width="0.8" opacity="0.3"/>
      <path d="M200,250 Q210.91448982415812,213.28607237402275 277.82897964831625,176.5721447480455 Q236.91448982415812,213.28607237402275 200,250" 
            fill="#0D9488" opacity="0.75" stroke="#0D9488" stroke-width="0.5"/><path d="M200,250 Q223.91448982415812,213.28607237402275 277.82897964831625,176.5721447480455" fill="none" stroke="#5EEAD4" stroke-width="0.8" opacity="0.3"/>
</svg>