<svg xmlns="http://www.w3.org/2000/svg" viewBox="0 0 400 300" width="400" height="300">
  <defs>
    <linearGradient id="pbg_22" x1="0%" y1="0%" x2="0%" y2="100%">
      <stop offset="0%" style="stop-color:#ECFDF5"/>
      <stop offset="100%" style="stop-color:#D1FAE5"/>
    </linearGradient>
  </defs>
  <rect width="400" height="300" rx="16" fill="url(#pbg_22)"/>
  
  <!-- Substrate -->
  <ellipse cx="200" cy="285" rx="210" ry="20" fill="#D2B48C" opacity="0.3"/>
  
  
      <path d="M200,250 Q150.08828906323845,229.6498014721227 88.17657812647691,209.2996029442454 Q168.08828906323845,229.6498014721227 200,250" 
            fill="#4ADE80" opacity="0.6" stroke="#22C55E" stroke-width="0.5"/><path d="M200,250 Q159.08828906323845,229.6498014721227 88.17657812647691,209.2996029442454" fill="none" stroke="#BBF7D0" stroke-width="0.8" opacity="0.3"/>
      <path d="M200,250 Q128.7954762526715,213.77869497398115 105.590952505343,177.55738994796226 Q146.7954762526715,213.77869497398115 200,250" 
            fill="#22C55E" opacity="0.63" stroke="#22C55E" stroke-width="0.5"/><path d="M200,250 Q137.7954762526715,213.77869497398115 105.590952505343,177.55738994796226" fill="none" stroke="#BBF7D0" stroke-width="0.8" opacity="0.3"/>
      <path d="M200,250 Q171.87220203711277,201.26045336480496 131.74440407422554,152.52090672960995 Q189.87220203711277,201.26045336480496 200,250" 
            fill="#4ADE80" opacity="0.6599999999999999" stroke="#22C55E" stroke-width="0.5"/><path d="M200,250 Q180.87220203711277,201.26045336480496 131.74440407422554,152.52090672960995" fill="none" stroke="#BBF7D0" stroke-width="0.8" opacity="0.3"/>
      <path d="M200,250 Q158.10800492949576,193.2538414304805 164.21600985899153,136.50768286096098 Q176.10800492949576,193.2538414304805 200,250" 
            fill="#22C55E" opacity="0.69" stroke="#22C55E" stroke-width="0.5"/><path d="M200,250 Q167.10800492949576,193.2538414304805 164.21600985899153,136.50768286096098" fill="none" stroke="#BBF7D0" stroke-width="0.8" opacity="0.3"/>
      <path d="M200,250 Q206,190.5 200,131 Q224,190.5 200,250" 
            fill="#4ADE80" opacity="0.72" stroke="#22C55E" stroke-width="0.5"/><path d="M200,250 Q215,190.5 200,131" fill="none" stroke="#BBF7D0" stroke-width="0.8" opacity="0.3"/>
      <path d="M200,250 Q193.89199507050427,193.25384143048052 235.78399014100853,136.507682860961 Q211.89199507050427,193.25384143048052 200,250" 
            fill="#22C55E" opacity="0.75" stroke="#22C55E" stroke-width="0.5"/><path d="M200,250 Q202.89199507050427,193.25384143048052 235.78399014100853,136.507682860961" fill="none" stroke="#BBF7D0" stroke-width="0.8" opacity="0.3"/>
      <path d="M200,250 Q240.12779796288726,201.260453364805 268.2555959257745,152.52090672960998 Q258.12779796288726,201.260453364805 200,250" 
            fill="#4ADE80" opacity="0.78" stroke="#22C55E" stroke-width="0.5"/><path d="M200,250 Q249.12779796288726,201.260453364805 268.2555959257745,152.52090672960998" fill="none" stroke="#BBF7D0" stroke-width="0.8" opacity="0.3"/>
      <path d="M200,250 Q223.2045237473285,213.77869497398112 294.409047494657,177.55738994796224 Q241.2045237473285,213.77869497398112 200,250" 
            fill="#22C55E" opacity="0.8099999999999999" stroke="#22C55E" stroke-width="0.5"/><path d="M200,250 Q232.2045237473285,213.77869497398112 294.409047494657,177.55738994796224" fill="none" stroke="#BBF7D0" stroke-width="0.8" opacity="0.3"/>
</svg>