<svg xmlns="http://www.w3.org/2000/svg" viewBox="0 0 400 300" width="400" height="300">
  <defs>
    <linearGradient id="pbg_5" x1="0%" y1="0%" x2="0%" y2="100%">
      <stop offset="0%" style="stop-color:#ECFDF5"/>
      <stop offset="100%" style="stop-color:#D1FAE5"/>
    </linearGradient>
  </defs>
  <rect width="400" height="300" rx="16" fill="url(#pbg_5)"/>
  
  <!-- Substrate -->
  <ellipse cx="200" cy="285" rx="210" ry="20" fill="#D2B48C" opacity="0.3"/>
  
  
      <path d="M200,250 Q162.8344468230623,233.92505326369357 111.66889364612462,217.85010652738714 Q178.8344468230623,233.92505326369357 200,250" 
            fill="#34D399" opacity="0.6" stroke="#10B981" stroke-width="0.5"/><path d="M200,250 Q170.8344468230623,233.92505326369357 111.66889364612462,217.85010652738714" fill="none" stroke="#A7F3D0" stroke-width="0.8" opacity="0.3"/>
      <path d="M200,250 Q139.71239300631194,221.38821283659013 125.42478601262388,192.77642567318028 Q155.71239300631194,221.38821283659013 200,250" 
            fill="#10B981" opacity="0.63" stroke="#10B981" stroke-width="0.5"/><path d="M200,250 Q147.71239300631194,221.38821283659013 125.42478601262388,192.77642567318028" fill="none" stroke="#A7F3D0" stroke-width="0.8" opacity="0.3"/>
      <path d="M200,250 Q180.04190749150084,211.4998539184174 146.0838149830017,172.99970783683474 Q196.04190749150084,211.4998539184174 200,250" 
            fill="#34D399" opacity="0.6599999999999999" stroke="#10B981" stroke-width="0.5"/><path d="M200,250 Q188.04190749150084,211.4998539184174 146.0838149830017,172.99970783683474" fill="none" stroke="#A7F3D0" stroke-width="0.8" opacity="0.3"/>
      <path d="M200,250 Q162.86682742329918,205.17530331483334 171.73365484659834,160.3506066296667 Q178.86682742329918,205.17530331483334 200,250" 
            fill="#10B981" opacity="0.69" stroke="#10B981" stroke-width="0.5"/><path d="M200,250 Q170.86682742329918,205.17530331483334 171.73365484659834,160.3506066296667" fill="none" stroke="#A7F3D0" stroke-width="0.8" opacity="0.3"/>
      <path d="M200,250 Q207,203 200,156 Q223,203 200,250" 
            fill="#34D399" opacity="0.72" stroke="#10B981" stroke-width="0.5"/><path d="M200,250 Q215,203 200,156" fill="none" stroke="#A7F3D0" stroke-width="0.8" opacity="0.3"/>
      <path d="M200,250 Q191.13317257670084,205.17530331483334 228.2663451534017,160.3506066296667 Q207.13317257670084,205.17530331483334 200,250" 
            fill="#10B981" opacity="0.75" stroke="#10B981" stroke-width="0.5"/><path d="M200,250 Q199.13317257670084,205.17530331483334 228.2663451534017,160.3506066296667" fill="none" stroke="#A7F3D0" stroke-width="0.8" opacity="0.3"/>
      <path d="M200,250 Q233.95809250849916,211.4998539184174 253.91618501699833,172.99970783683477 Q249.95809250849916,211.4998539184174 200,250" 
            fill="#34D399" opacity="0.78" stroke="#10B981" stroke-width="0.5"/><path d="M200,250 Q241.95809250849916,211.4998539184174 253.91618501699833,172.99970783683477" fill="none" stroke="#A7F3D0" stroke-width="0.8" opacity="0.3"/>
      <path d="M200,250 Q214.28760699368806,221.38821283659013 274.5752139873761,192.77642567318026 Q230.28760699368806,221.38821283659013 200,250" 
            fill="#10B981" opacity="0.8099999999999999" stroke="#10B981" stroke-width="0.5"/><path d="M200,250 Q222.28760699368806,221.38821283659013 274.5752139873761,192.77642567318026" fill="none" stroke="#A7F3D0" stroke-width="0.8" opacity="0.3"/>
</svg>