<svg xmlns="http://www.w3.org/2000/svg" viewBox="0 0 400 300" width="400" height="300">
  <defs>
    <linearGradient id="pbg_11" x1="0%" y1="0%" x2="0%" y2="100%">
      <stop offset="0%" style="stop-color:#ECFDF5"/>
      <stop offset="100%" style="stop-color:#D1FAE5"/>
    </linearGradient>
  </defs>
  <rect width="400" height="300" rx="16" fill="url(#pbg_11)"/>
  
  <!-- Substrate -->
  <ellipse cx="200" cy="285" rx="210" ry="20" fill="#D2B48C" opacity="0.3"/>
  
  
      <path d="M200,250 Q157.0756763399187,232.5569726903909 104.15135267983734,215.1139453807818 Q177.0756763399187,232.5569726903909 200,250" 
            fill="#34D399" opacity="0.6" stroke="#10B981" stroke-width="0.5"/><path d="M200,250 Q167.0756763399187,232.5569726903909 104.15135267983734,215.1139453807818" fill="none" stroke="#A7F3D0" stroke-width="0.8" opacity="0.3"/>
      <path d="M200,250 Q137.90394427977452,215.0016764686946 125.80788855954903,180.00335293738917 Q157.90394427977452,215.0016764686946 200,250" 
            fill="#10B981" opacity="0.63" stroke="#10B981" stroke-width="0.5"/><path d="M200,250 Q147.90394427977452,215.0016764686946 125.80788855954903,180.00335293738917" fill="none" stroke="#A7F3D0" stroke-width="0.8" opacity="0.3"/>
      <path d="M200,250 Q184.799931932003,203.17097854910602 159.599863864006,156.34195709821205 Q204.799931932003,203.17097854910602 200,250" 
            fill="#34D399" opacity="0.6599999999999999" stroke="#10B981" stroke-width="0.5"/><path d="M200,250 Q194.799931932003,203.17097854910602 159.599863864006,156.34195709821205" fill="none" stroke="#A7F3D0" stroke-width="0.8" opacity="0.3"/>
      <path d="M200,250 Q175,199 200,148 Q195,199 200,250" 
            fill="#10B981" opacity="0.69" stroke="#10B981" stroke-width="0.5"/><path d="M200,250 Q185,199 200,148" fill="none" stroke="#A7F3D0" stroke-width="0.8" opacity="0.3"/>
      <path d="M200,250 Q225.200068067997,203.17097854910602 240.400136135994,156.34195709821205 Q245.200068067997,203.17097854910602 200,250" 
            fill="#34D399" opacity="0.72" stroke="#10B981" stroke-width="0.5"/><path d="M200,250 Q235.200068067997,203.17097854910602 240.400136135994,156.34195709821205" fill="none" stroke="#A7F3D0" stroke-width="0.8" opacity="0.3"/>
      <path d="M200,250 Q212.09605572022548,215.0016764686946 274.19211144045096,180.0033529373892 Q232.09605572022548,215.0016764686946 200,250" 
            fill="#10B981" opacity="0.75" stroke="#10B981" stroke-width="0.5"/><path d="M200,250 Q222.09605572022548,215.0016764686946 274.19211144045096,180.0033529373892" fill="none" stroke="#A7F3D0" stroke-width="0.8" opacity="0.3"/>
</svg>