<svg xmlns="http://www.w3.org/2000/svg" viewBox="0 0 400 300" width="400" height="300">
  <defs>
    <linearGradient id="pbg_19" x1="0%" y1="0%" x2="0%" y2="100%">
      <stop offset="0%" style="stop-color:#ECFDF5"/>
      <stop offset="100%" style="stop-color:#D1FAE5"/>
    </linearGradient>
  </defs>
  <rect width="400" height="300" rx="16" fill="url(#pbg_19)"/>
  
  <!-- Substrate -->
  <ellipse cx="200" cy="285" rx="210" ry="20" fill="#D2B48C" opacity="0.3"/>
  
  
      <ellipse cx="108" cy="88" rx="12" ry="7.199999999999999" fill="#10B981" opacity="0.7"/>
      <line x1="108" y1="95.2" x2="111" y2="133.2" stroke="#059669" stroke-width="1.5" opacity="0.4"/>
      <ellipse cx="158" cy="88" rx="12" ry="7.199999999999999" fill="#10B981" opacity="0.7999999999999999"/>
      <line x1="158" y1="95.2" x2="161" y2="133.2" stroke="#059669" stroke-width="1.5" opacity="0.4"/>
      <ellipse cx="208" cy="88" rx="12" ry="7.199999999999999" fill="#10B981" opacity="0.8999999999999999"/>
      <line x1="208" y1="95.2" x2="211" y2="133.2" stroke="#059669" stroke-width="1.5" opacity="0.4"/>
      <ellipse cx="258" cy="88" rx="12" ry="7.199999999999999" fill="#10B981" opacity="0.7"/>
      <line x1="258" y1="95.2" x2="261" y2="133.2" stroke="#059669" stroke-width="1.5" opacity="0.4"/>
      <ellipse cx="308" cy="88" rx="12" ry="7.199999999999999" fill="#10B981" opacity="0.7999999999999999"/>
      <line x1="308" y1="95.2" x2="311" y2="133.2" stroke="#059669" stroke-width="1.5" opacity="0.4"/>
      <ellipse cx="358" cy="88" rx="12" ry="7.199999999999999" fill="#10B981" opacity="0.8999999999999999"/>
      <line x1="358" y1="95.2" x2="361" y2="133.2" stroke="#059669" stroke-width="1.5" opacity="0.4"/><line x1="0" y1="70" x2="400" y2="70" stroke="#6EE7B7" stroke-width="1" opacity="0.2"/>
</svg>