<svg xmlns="http://www.w3.org/2000/svg" viewBox="0 0 400 300" width="400" height="300">
  <defs>
    <linearGradient id="pbg_18" x1="0%" y1="0%" x2="0%" y2="100%">
      <stop offset="0%" style="stop-color:#ECFDF5"/>
      <stop offset="100%" style="stop-color:#D1FAE5"/>
    </linearGradient>
  </defs>
  <rect width="400" height="300" rx="16" fill="url(#pbg_18)"/>
  
  <!-- Substrate -->
  <ellipse cx="200" cy="285" rx="210" ry="20" fill="#D2B48C" opacity="0.3"/>
  
  
      <path d="M200,250 Q154.786752167168,231.35990218875105 97.573504334336,212.7198043775021 Q172.786752167168,231.35990218875105 200,250" 
            fill="#22C55E" opacity="0.6" stroke="#16A34A" stroke-width="0.5"/><path d="M200,250 Q163.786752167168,231.35990218875105 97.573504334336,212.7198043775021" fill="none" stroke="#86EFAC" stroke-width="0.8" opacity="0.3"/>
      <path d="M200,250 Q132.7622429541277,216.82250211902473 113.52448590825536,183.64500423804947 Q150.7622429541277,216.82250211902473 200,250" 
            fill="#16A34A" opacity="0.63" stroke="#16A34A" stroke-width="0.5"/><path d="M200,250 Q141.7622429541277,216.82250211902473 113.52448590825536,183.64500423804947" fill="none" stroke="#86EFAC" stroke-width="0.8" opacity="0.3"/>
      <path d="M200,250 Q174.740084218868,205.35621358624994 137.480168437736,160.71242717249987 Q192.740084218868,205.35621358624994 200,250" 
            fill="#22C55E" opacity="0.6599999999999999" stroke="#16A34A" stroke-width="0.5"/><path d="M200,250 Q183.740084218868,205.35621358624994 137.480168437736,160.71242717249987" fill="none" stroke="#86EFAC" stroke-width="0.8" opacity="0.3"/>
      <path d="M200,250 Q159.61153392701712,198.02242618422162 167.22306785403424,146.04485236844326 Q177.61153392701712,198.02242618422162 200,250" 
            fill="#16A34A" opacity="0.69" stroke="#16A34A" stroke-width="0.5"/><path d="M200,250 Q168.61153392701712,198.02242618422162 167.22306785403424,146.04485236844326" fill="none" stroke="#86EFAC" stroke-width="0.8" opacity="0.3"/>
      <path d="M200,250 Q206,195.5 200,141 Q224,195.5 200,250" 
            fill="#22C55E" opacity="0.72" stroke="#16A34A" stroke-width="0.5"/><path d="M200,250 Q215,195.5 200,141" fill="none" stroke="#86EFAC" stroke-width="0.8" opacity="0.3"/>
      <path d="M200,250 Q192.3884660729829,198.02242618422164 232.7769321459658,146.0448523684433 Q210.3884660729829,198.02242618422164 200,250" 
            fill="#16A34A" opacity="0.75" stroke="#16A34A" stroke-width="0.5"/><path d="M200,250 Q201.3884660729829,198.02242618422164 232.7769321459658,146.0448523684433" fill="none" stroke="#86EFAC" stroke-width="0.8" opacity="0.3"/>
      <path d="M200,250 Q237.259915781132,205.35621358624996 262.519831562264,160.7124271724999 Q255.259915781132,205.35621358624996 200,250" 
            fill="#22C55E" opacity="0.78" stroke="#16A34A" stroke-width="0.5"/><path d="M200,250 Q246.259915781132,205.35621358624996 262.519831562264,160.7124271724999" fill="none" stroke="#86EFAC" stroke-width="0.8" opacity="0.3"/>
      <path d="M200,250 Q219.2377570458723,216.82250211902473 286.4755140917446,183.64500423804947 Q237.2377570458723,216.82250211902473 200,250" 
            fill="#16A34A" opacity="0.8099999999999999" stroke="#16A34A" stroke-width="0.5"/><path d="M200,250 Q228.2377570458723,216.82250211902473 286.4755140917446,183.64500423804947" fill="none" stroke="#86EFAC" stroke-width="0.8" opacity="0.3"/>
</svg>