<svg xmlns="http://www.w3.org/2000/svg" viewBox="0 0 400 300" width="400" height="300">
  <defs>
    <linearGradient id="ebg_19" x1="0%" y1="0%" x2="0%" y2="100%">
      <stop offset="0%" style="stop-color:#F1F5F9"/>
      <stop offset="100%" style="stop-color:#E2E8F0"/>
    </linearGradient>
  </defs>
  <rect width="400" height="300" rx="16" fill="url(#ebg_19)"/>
  
    <rect x="100" y="90" width="200" height="25" rx="8" fill="#8B5CF6" opacity="0.9"/>
    <rect x="110" y="95" width="180" height="15" rx="4" fill="#A78BFA" opacity="0.6"/>
    <circle cx="130" cy="102" r="4" fill="white" opacity="0.7"/><circle cx="160" cy="102" r="4" fill="white" opacity="0.7"/><circle cx="190" cy="102" r="4" fill="white" opacity="0.7"/><circle cx="220" cy="102" r="4" fill="white" opacity="0.7"/><circle cx="250" cy="102" r="4" fill="white" opacity="0.7"/><circle cx="280" cy="102" r="4" fill="white" opacity="0.7"/>
    <line x1="100" y1="115" x2="100" y2="80" stroke="#7C3AED" stroke-width="3" opacity="0.4"/>
    <line x1="300" y1="115" x2="300" y2="80" stroke="#7C3AED" stroke-width="3" opacity="0.4"/>
    <line x1="140" y1="118" x2="140" y2="207" stroke="#A78BFA" stroke-width="1" opacity="0.15"/><line x1="170" y1="118" x2="170" y2="207" stroke="#A78BFA" stroke-width="1" opacity="0.18"/><line x1="200" y1="118" x2="200" y2="207" stroke="#A78BFA" stroke-width="1" opacity="0.21"/><line x1="230" y1="118" x2="230" y2="207" stroke="#A78BFA" stroke-width="1" opacity="0.24"/><line x1="260" y1="118" x2="260" y2="207" stroke="#A78BFA" stroke-width="1" opacity="0.27"/>
</svg>